  0
SECTION
  2
HEADER
  9
$ACADVER
  1
AC1009
  9
$FILLMODE
 70
0
  9
$EXTMIN
 10
-9.7348
 20
-16.1345
 30
0.0000
  9
$EXTMAX
 10
385.7300
 20
144.5387
 30
0.0000
  0
ENDSEC
  0
SECTION
  2
TABLES
  0
TABLE
  2
LTYPE
 70
1
  0
LTYPE
  2
CONTINUOUS
 70
64
  3
Solid line
 72
65
 73
0
 40
0
  0
ENDTAB
  0
TABLE
  2
LAYER
 70
255
  0
LAYER
  2
19
 70
64
 62
53
  6
CONTINUOUS
  0
LAYER
  2
20
 70
64
 62
30
  6
CONTINUOUS
  0
LAYER
  2
22
 70
64
 62
253
  6
CONTINUOUS
  0
LAYER
  2
49
 70
64
 62
254
  6
CONTINUOUS
  0
LAYER
  2
112
 70
64
 62
253
  6
CONTINUOUS
  0
LAYER
  2
113
 70
64
 62
253
  6
CONTINUOUS
  0
LAYER
  2
114
 70
64
 62
253
  6
CONTINUOUS
  0
LAYER
  2
115
 70
64
 62
253
  6
CONTINUOUS
  0
LAYER
  2
116
 70
64
 62
253
  6
CONTINUOUS
  0
LAYER
  2
117
 70
64
 62
253
  6
CONTINUOUS
  0
LAYER
  2
118
 70
64
 62
253
  6
CONTINUOUS
  0
LAYER
  2
119
 70
64
 62
253
  6
CONTINUOUS
  0
LAYER
  2
120
 70
64
 62
253
  6
CONTINUOUS
  0
LAYER
  2
121
 70
64
 62
253
  6
CONTINUOUS
  0
LAYER
  2
122
 70
64
 62
253
  6
CONTINUOUS
  0
LAYER
  2
123
 70
64
 62
253
  6
CONTINUOUS
  0
LAYER
  2
124
 70
64
 62
253
  6
CONTINUOUS
  0
LAYER
  2
127
 70
64
 62
253
  6
CONTINUOUS
  0
LAYER
  2
128
 70
64
 62
253
  6
CONTINUOUS
  0
LAYER
  2
129
 70
64
 62
253
  6
CONTINUOUS
  0
LAYER
  2
130
 70
64
 62
253
  6
CONTINUOUS
  0
LAYER
  2
131
 70
64
 62
253
  6
CONTINUOUS
  0
LAYER
  2
132
 70
64
 62
253
  6
CONTINUOUS
  0
LAYER
  2
133
 70
64
 62
253
  6
CONTINUOUS
  0
LAYER
  2
134
 70
64
 62
253
  6
CONTINUOUS
  0
LAYER
  2
135
 70
64
 62
253
  6
CONTINUOUS
  0
LAYER
  2
136
 70
64
 62
253
  6
CONTINUOUS
  0
LAYER
  2
137
 70
64
 62
253
  6
CONTINUOUS
  0
LAYER
  2
138
 70
64
 62
253
  6
CONTINUOUS
  0
LAYER
  2
139
 70
64
 62
253
  6
CONTINUOUS
  0
LAYER
  2
140
 70
64
 62
253
  6
CONTINUOUS
  0
LAYER
  2
141
 70
64
 62
253
  6
CONTINUOUS
  0
LAYER
  2
142
 70
64
 62
253
  6
CONTINUOUS
  0
LAYER
  2
143
 70
64
 62
253
  6
CONTINUOUS
  0
LAYER
  2
144
 70
64
 62
253
  6
CONTINUOUS
  0
LAYER
  2
145
 70
64
 62
253
  6
CONTINUOUS
  0
LAYER
  2
146
 70
64
 62
253
  6
CONTINUOUS
  0
LAYER
  2
147
 70
64
 62
253
  6
CONTINUOUS
  0
LAYER
  2
148
 70
64
 62
253
  6
CONTINUOUS
  0
LAYER
  2
149
 70
64
 62
253
  6
CONTINUOUS
  0
LAYER
  2
150
 70
64
 62
253
  6
CONTINUOUS
  0
LAYER
  2
152
 70
64
 62
253
  6
CONTINUOUS
  0
LAYER
  2
153
 70
64
 62
253
  6
CONTINUOUS
  0
LAYER
  2
154
 70
64
 62
253
  6
CONTINUOUS
  0
LAYER
  2
155
 70
64
 62
253
  6
CONTINUOUS
  0
LAYER
  2
191
 70
64
 62
253
  6
CONTINUOUS
  0
LAYER
  2
192
 70
64
 62
253
  6
CONTINUOUS
  0
LAYER
  2
193
 70
64
 62
253
  6
CONTINUOUS
  0
LAYER
  2
194
 70
64
 62
253
  6
CONTINUOUS
  0
LAYER
  2
195
 70
64
 62
253
  6
CONTINUOUS
  0
LAYER
  2
196
 70
64
 62
253
  6
CONTINUOUS
  0
LAYER
  2
199
 70
64
 62
253
  6
CONTINUOUS
  0
LAYER
  2
200
 70
64
 62
253
  6
CONTINUOUS
  0
LAYER
  2
201
 70
64
 62
253
  6
CONTINUOUS
  0
LAYER
  2
202
 70
64
 62
253
  6
CONTINUOUS
  0
LAYER
  2
203
 70
64
 62
253
  6
CONTINUOUS
  0
LAYER
  2
204
 70
64
 62
253
  6
CONTINUOUS
  0
LAYER
  2
205
 70
64
 62
253
  6
CONTINUOUS
  0
LAYER
  2
206
 70
64
 62
253
  6
CONTINUOUS
  0
LAYER
  2
207
 70
64
 62
253
  6
CONTINUOUS
  0
LAYER
  2
208
 70
64
 62
253
  6
CONTINUOUS
  0
LAYER
  2
209
 70
64
 62
253
  6
CONTINUOUS
  0
LAYER
  2
210
 70
64
 62
253
  6
CONTINUOUS
  0
LAYER
  2
211
 70
64
 62
253
  6
CONTINUOUS
  0
LAYER
  2
212
 70
64
 62
253
  6
CONTINUOUS
  0
LAYER
  2
213
 70
64
 62
253
  6
CONTINUOUS
  0
LAYER
  2
214
 70
64
 62
253
  6
CONTINUOUS
  0
LAYER
  2
215
 70
64
 62
253
  6
CONTINUOUS
  0
LAYER
  2
216
 70
64
 62
253
  6
CONTINUOUS
  0
LAYER
  2
217
 70
64
 62
253
  6
CONTINUOUS
  0
LAYER
  2
218
 70
64
 62
253
  6
CONTINUOUS
  0
LAYER
  2
219
 70
64
 62
253
  6
CONTINUOUS
  0
LAYER
  2
220
 70
64
 62
253
  6
CONTINUOUS
  0
LAYER
  2
221
 70
64
 62
253
  6
CONTINUOUS
  0
LAYER
  2
222
 70
64
 62
253
  6
CONTINUOUS
  0
LAYER
  2
223
 70
64
 62
253
  6
CONTINUOUS
  0
LAYER
  2
224
 70
64
 62
253
  6
CONTINUOUS
  0
LAYER
  2
225
 70
64
 62
253
  6
CONTINUOUS
  0
LAYER
  2
226
 70
64
 62
253
  6
CONTINUOUS
  0
LAYER
  2
227
 70
64
 62
253
  6
CONTINUOUS
  0
LAYER
  2
228
 70
64
 62
253
  6
CONTINUOUS
  0
LAYER
  2
229
 70
64
 62
253
  6
CONTINUOUS
  0
LAYER
  2
230
 70
64
 62
253
  6
CONTINUOUS
  0
LAYER
  2
231
 70
64
 62
253
  6
CONTINUOUS
  0
LAYER
  2
232
 70
64
 62
253
  6
CONTINUOUS
  0
LAYER
  2
233
 70
64
 62
253
  6
CONTINUOUS
  0
LAYER
  2
248
 70
64
 62
253
  6
CONTINUOUS
  0
LAYER
  2
249
 70
64
 62
253
  6
CONTINUOUS
  0
LAYER
  2
250
 70
64
 62
253
  6
CONTINUOUS
  0
LAYER
  2
251
 70
64
 62
253
  6
CONTINUOUS
  0
LAYER
  2
254
 70
64
 62
253
  6
CONTINUOUS
  0
LAYER
  2
255
 70
64
 62
253
  6
CONTINUOUS
  0
ENDTAB
  0
ENDSEC
  0
SECTION
  2
BLOCKS
  0
BLOCK
  8
0
  2
RECT
 70
64
 10
0.0000
 20
0.0000
 30
0.0000
  3
RECT
  0
SOLID
  8
0
 10
-0.5000
 20
-0.5000
 30
0.0000
 11
0.5000
 21
-0.5000
 31
0.0000
 12
-0.5000
 22
0.5000
 32
0.0000
 13
0.5000
 23
0.5000
 33
0.0000
  0
ENDBLK
  8
0
  0
BLOCK
  8
0
  2
PIE
 70
64
 10
0.0000
 20
0.0000
 30
0.0000
  3
PIE
  0
CIRCLE
  8
0
 10
0.0000
 20
0.0000
 30
0.0000
 40
0.5000
  0
ENDBLK
  8
0
  0
BLOCK
  8
0
  2
OCTAGONP
 70
64
 10
0.0000
 20
0.0000
 30
0.0000
  3
OCTAGONP
  0
POLYLINE
  8
0
 66
1
 10
0.0000
 20
0.0000
 30
0.0000
 40
0.0000
 41
0.0000
 70
1
  0
VERTEX
  8
0
 10
-0.5000
 20
-0.2071
 30
0.0000
  0
VERTEX
  8
0
 10
-0.5000
 20
0.2071
 30
0.0000
  0
VERTEX
  8
0
 10
-0.2071
 20
0.5000
 30
0.0000
  0
VERTEX
  8
0
 10
0.2071
 20
0.5000
 30
0.0000
  0
VERTEX
  8
0
 10
0.5000
 20
0.2071
 30
0.0000
  0
VERTEX
  8
0
 10
0.5000
 20
-0.2071
 30
0.0000
  0
VERTEX
  8
0
 10
0.2071
 20
-0.5000
 30
0.0000
  0
VERTEX
  8
0
 10
-0.2071
 20
-0.5000
 30
0.0000
  0
SEQEND
  8
0
  0
ENDBLK
  8
0
  0
BLOCK
  8
0
  2
SQUAREP
 70
64
 10
0.0000
 20
0.0000
 30
0.0000
  3
SQUAREP
  0
SOLID
  8
0
 10
-0.5000
 20
-0.5000
 30
0.0000
 11
0.5000
 21
-0.5000
 31
0.0000
 12
-0.5000
 22
0.5000
 32
0.0000
 13
0.5000
 23
0.5000
 33
0.0000
  0
ENDBLK
  8
0
  0
BLOCK
  8
0
  2
ROUNDP
 70
64
 10
0.0000
 20
0.0000
 30
0.0000
  3
ROUNDP
  0
CIRCLE
  8
0
 10
0.0000
 20
0.0000
 30
0.0000
 40
0.5000
  0
ENDBLK
  8
0
  0
BLOCK
  8
0
  2
ANNULUSP
 70
64
 10
0.0000
 20
0.0000
 30
0.0000
  3
ANNULUSP
  0
CIRCLE
  8
0
 10
0.0000
 20
0.0000
 30
0.0000
 40
0.5000
  0
ENDBLK
  8
0
  0
BLOCK
  8
0
  2
THERMALP
 70
64
 10
0.0000
 20
0.0000
 30
0.0000
  3
THERMALP
  0
LINE
  8
0
 10
-0.2379
 20
0.4500
 30
0.0000
 11
0.2379
 21
0.4500
 31
0.0000
  0
LINE
  8
0
 10
0.4500
 20
0.2379
 30
0.0000
 11
0.4500
 21
-0.2379
 31
0.0000
  0
LINE
  8
0
 10
0.2379
 20
-0.4500
 30
0.0000
 11
-0.2379
 21
-0.4500
 31
0.0000
  0
LINE
  8
0
 10
-0.4500
 20
-0.2379
 30
0.0000
 11
-0.4500
 21
0.2379
 31
0.0000
  0
ENDBLK
  8
0
  0
BLOCK
  8
0
  2
OCTAGONV
 70
64
 10
0.0000
 20
0.0000
 30
0.0000
  3
OCTAGONV
  0
POLYLINE
  8
0
 66
1
 10
0.0000
 20
0.0000
 30
0.0000
 40
0.0000
 41
0.0000
 70
1
  0
VERTEX
  8
0
 10
-0.5000
 20
-0.2071
 30
0.0000
  0
VERTEX
  8
0
 10
-0.5000
 20
0.2071
 30
0.0000
  0
VERTEX
  8
0
 10
-0.2071
 20
0.5000
 30
0.0000
  0
VERTEX
  8
0
 10
0.2071
 20
0.5000
 30
0.0000
  0
VERTEX
  8
0
 10
0.5000
 20
0.2071
 30
0.0000
  0
VERTEX
  8
0
 10
0.5000
 20
-0.2071
 30
0.0000
  0
VERTEX
  8
0
 10
0.2071
 20
-0.5000
 30
0.0000
  0
VERTEX
  8
0
 10
-0.2071
 20
-0.5000
 30
0.0000
  0
SEQEND
  8
0
  0
ENDBLK
  8
0
  0
BLOCK
  8
0
  2
SQUAREV
 70
64
 10
0.0000
 20
0.0000
 30
0.0000
  3
SQUAREV
  0
SOLID
  8
0
 10
-0.5000
 20
-0.5000
 30
0.0000
 11
0.5000
 21
-0.5000
 31
0.0000
 12
-0.5000
 22
0.5000
 32
0.0000
 13
0.5000
 23
0.5000
 33
0.0000
  0
ENDBLK
  8
0
  0
BLOCK
  8
0
  2
ROUNDV
 70
64
 10
0.0000
 20
0.0000
 30
0.0000
  3
ROUNDV
  0
CIRCLE
  8
0
 10
0.0000
 20
0.0000
 30
0.0000
 40
0.5000
  0
ENDBLK
  8
0
  0
BLOCK
  8
0
  2
ANNULUSV
 70
64
 10
0.0000
 20
0.0000
 30
0.0000
  3
ANNULUSV
  0
CIRCLE
  8
0
 10
0.0000
 20
0.0000
 30
0.0000
 40
0.5000
  0
ENDBLK
  8
0
  0
BLOCK
  8
0
  2
THERMALV
 70
64
 10
0.0000
 20
0.0000
 30
0.0000
  3
THERMALV
  0
LINE
  8
0
 10
-0.2379
 20
0.4500
 30
0.0000
 11
0.2379
 21
0.4500
 31
0.0000
  0
LINE
  8
0
 10
0.4500
 20
0.2379
 30
0.0000
 11
0.4500
 21
-0.2379
 31
0.0000
  0
LINE
  8
0
 10
0.2379
 20
-0.4500
 30
0.0000
 11
-0.2379
 21
-0.4500
 31
0.0000
  0
LINE
  8
0
 10
-0.4500
 20
-0.2379
 30
0.0000
 11
-0.4500
 21
0.2379
 31
0.0000
  0
ENDBLK
  8
0
  0
ENDSEC
  0
SECTION
  2
ENTITIES
  0
LINE
  8
20
 10
0.0000
 20
0.0000
 30
0.0000
 11
385.6000
 21
0.0000
 31
0.0000
  0
LINE
  8
20
 10
385.6000
 20
0.0000
 30
0.0000
 11
385.6000
 21
96.4000
 31
0.0000
  0
LINE
  8
20
 10
385.6000
 20
96.4000
 30
0.0000
 11
0.0000
 21
96.4000
 31
0.0000
  0
LINE
  8
20
 10
0.0000
 20
96.4000
 30
0.0000
 11
0.0000
 21
0.0000
 31
0.0000
  0
LINE
  8
49
 10
0.0000
 20
-15.1500
 30
0.0000
 11
192.8000
 21
-15.1500
 31
0.0000
  0
LINE
  8
49
 10
192.8000
 20
-15.1500
 30
0.0000
 11
385.6000
 21
-15.1500
 31
0.0000
  0
LINE
  8
49
 10
0.0000
 20
111.5500
 30
0.0000
 11
196.8000
 21
111.5500
 31
0.0000
  0
LINE
  8
49
 10
196.8000
 20
111.5500
 30
0.0000
 11
385.6000
 21
111.5500
 31
0.0000
  0
LINE
  8
49
 10
0.0000
 20
98.7500
 30
0.0000
 11
385.6000
 21
98.7500
 31
0.0000
  0
LINE
  8
49
 10
0.0000
 20
-2.3500
 30
0.0000
 11
385.6000
 21
-2.3500
 31
0.0000
  0
LINE
  8
49
 10
0.0000
 20
0.0000
 30
0.0000
 11
0.0000
 21
-15.1500
 31
0.0000
  0
LINE
  8
49
 10
385.6000
 20
0.0000
 30
0.0000
 11
385.6000
 21
-15.1500
 31
0.0000
  0
LINE
  8
49
 10
0.0000
 20
96.4000
 30
0.0000
 11
0.0000
 21
111.5500
 31
0.0000
  0
LINE
  8
49
 10
385.6000
 20
96.4000
 30
0.0000
 11
385.6000
 21
111.5500
 31
0.0000
  0
LINE
  8
49
 10
192.8000
 20
-15.1500
 30
0.0000
 11
192.8000
 21
0.0000
 31
0.0000
  0
LINE
  8
49
 10
196.8000
 20
96.4000
 30
0.0000
 11
196.8000
 21
111.5500
 31
0.0000
  0
CIRCLE
  8
49
 10
34.1300
 20
-8.9300
 30
0.0000
 40
2.3300
  0
CIRCLE
  8
49
 10
97.3300
 20
-8.9300
 30
0.0000
 40
2.3300
  0
CIRCLE
  8
49
 10
160.8300
 20
-8.9300
 30
0.0000
 40
2.3300
  0
CIRCLE
  8
49
 10
351.4800
 20
-8.9300
 30
0.0000
 40
2.3300
  0
CIRCLE
  8
49
 10
288.2800
 20
-8.9300
 30
0.0000
 40
2.3300
  0
CIRCLE
  8
49
 10
224.7800
 20
-8.9300
 30
0.0000
 40
2.3300
  0
CIRCLE
  8
49
 10
34.1300
 20
105.3300
 30
0.0000
 40
2.3300
  0
CIRCLE
  8
49
 10
97.3300
 20
105.3300
 30
0.0000
 40
2.3300
  0
CIRCLE
  8
49
 10
160.8300
 20
105.3300
 30
0.0000
 40
2.3300
  0
CIRCLE
  8
49
 10
351.4800
 20
105.3300
 30
0.0000
 40
2.3300
  0
CIRCLE
  8
49
 10
288.2800
 20
105.3300
 30
0.0000
 40
2.3300
  0
CIRCLE
  8
49
 10
224.7800
 20
105.3300
 30
0.0000
 40
2.3300
  0
CIRCLE
  8
20
 10
3.0000
 20
94.4000
 30
0.0000
 40
1.2500
  0
CIRCLE
  8
20
 10
3.0000
 20
2.0000
 30
0.0000
 40
1.2500
  0
CIRCLE
  8
20
 10
46.1600
 20
94.4000
 30
0.0000
 40
1.2500
  0
CIRCLE
  8
20
 10
103.2900
 20
94.4000
 30
0.0000
 40
1.2500
  0
CIRCLE
  8
20
 10
160.4400
 20
94.4000
 30
0.0000
 40
1.2500
  0
CIRCLE
  8
20
 10
217.5200
 20
94.4000
 30
0.0000
 40
1.2500
  0
CIRCLE
  8
20
 10
274.6400
 20
94.4000
 30
0.0000
 40
1.2500
  0
CIRCLE
  8
20
 10
331.7600
 20
94.4000
 30
0.0000
 40
1.2500
  0
CIRCLE
  8
20
 10
382.6000
 20
94.4000
 30
0.0000
 40
1.2500
  0
CIRCLE
  8
20
 10
46.1600
 20
2.0000
 30
0.0000
 40
1.2500
  0
CIRCLE
  8
20
 10
103.2900
 20
2.0000
 30
0.0000
 40
1.2500
  0
CIRCLE
  8
20
 10
160.4400
 20
2.0000
 30
0.0000
 40
1.2500
  0
CIRCLE
  8
20
 10
208.0600
 20
2.0000
 30
0.0000
 40
1.2500
  0
CIRCLE
  8
20
 10
274.6400
 20
2.0000
 30
0.0000
 40
1.2500
  0
CIRCLE
  8
20
 10
347.0000
 20
2.0000
 30
0.0000
 40
1.2500
  0
CIRCLE
  8
20
 10
382.6000
 20
2.0000
 30
0.0000
 40
1.2500
  0
CIRCLE
  8
20
 10
74.8000
 20
76.0000
 30
0.0000
 40
1.2500
  0
CIRCLE
  8
20
 10
131.9200
 20
76.0000
 30
0.0000
 40
1.2500
  0
CIRCLE
  8
20
 10
189.0400
 20
76.0000
 30
0.0000
 40
1.2500
  0
CIRCLE
  8
20
 10
246.1400
 20
76.0000
 30
0.0000
 40
1.2500
  0
CIRCLE
  8
20
 10
313.0000
 20
76.0000
 30
0.0000
 40
1.2500
  0
CIRCLE
  8
20
 10
50.8800
 20
37.8000
 30
0.0000
 40
1.2500
  0
CIRCLE
  8
20
 10
108.0000
 20
37.8000
 30
0.0000
 40
1.2500
  0
CIRCLE
  8
20
 10
165.1200
 20
37.8000
 30
0.0000
 40
1.2500
  0
CIRCLE
  8
20
 10
222.2400
 20
37.8000
 30
0.0000
 40
1.2500
  0
CIRCLE
  8
20
 10
269.8400
 20
37.8000
 30
0.0000
 40
1.2500
  0
CIRCLE
  8
20
 10
334.3400
 20
37.8000
 30
0.0000
 40
1.2500
  0
LINE
  8
22
 10
22.1271
 20
13.1220
 30
0.0000
 11
22.1271
 21
16.6780
 31
0.0000
  0
LINE
  8
22
 10
20.2729
 20
16.6780
 30
0.0000
 11
20.2729
 21
13.1220
 31
0.0000
  0
LINE
  8
22
 10
22.1271
 20
16.6780
 30
0.0000
 11
20.2729
 21
16.6780
 31
0.0000
  0
LINE
  8
22
 10
22.1271
 20
13.1220
 30
0.0000
 11
20.2729
 21
13.1220
 31
0.0000
  0
LINE
  8
22
 10
25.2271
 20
5.3220
 30
0.0000
 11
25.2271
 21
8.8780
 31
0.0000
  0
LINE
  8
22
 10
23.3729
 20
8.8780
 30
0.0000
 11
23.3729
 21
5.3220
 31
0.0000
  0
LINE
  8
22
 10
25.2271
 20
8.8780
 30
0.0000
 11
23.3729
 21
8.8780
 31
0.0000
  0
LINE
  8
22
 10
25.2271
 20
5.3220
 30
0.0000
 11
23.3729
 21
5.3220
 31
0.0000
  0
LINE
  8
22
 10
35.3729
 20
12.1780
 30
0.0000
 11
35.3729
 21
8.6220
 31
0.0000
  0
LINE
  8
22
 10
37.2271
 20
8.6220
 30
0.0000
 11
37.2271
 21
12.1780
 31
0.0000
  0
LINE
  8
22
 10
35.3729
 20
8.6220
 30
0.0000
 11
37.2271
 21
8.6220
 31
0.0000
  0
LINE
  8
22
 10
35.3729
 20
12.1780
 30
0.0000
 11
37.2271
 21
12.1780
 31
0.0000
  0
LINE
  8
22
 10
341.7570
 20
19.5898
 30
0.0000
 11
339.3440
 21
19.5898
 31
0.0000
  0
LINE
  8
22
 10
312.1660
 20
19.2088
 30
0.0000
 11
312.1660
 21
3.9688
 31
0.0000
  0
LINE
  8
22
 10
339.3440
 20
19.5898
 30
0.0000
 11
339.3440
 21
3.5878
 31
0.0000
  0
LINE
  8
22
 10
336.0420
 20
19.5898
 30
0.0000
 11
312.5470
 21
19.5898
 31
0.0000
  0
LINE
  8
22
 10
336.0420
 20
19.5898
 30
0.0000
 11
336.0420
 21
3.5878
 31
0.0000
  0
LINE
  8
22
 10
312.5470
 20
3.5878
 30
0.0000
 11
336.0420
 21
3.5878
 31
0.0000
  0
ARC
  8
22
 10
337.6930
 20
21.6852
 30
0.0000
 40
2.6678
 50
231.7662
 51
308.2338
  0
ARC
  8
22
 10
337.6930
 20
1.4923
 30
0.0000
 40
2.6678
 50
51.7662
 51
128.2338
  0
ARC
  8
22
 10
341.7570
 20
19.2088
 30
0.0000
 40
0.3810
 50
0.0000
 51
90.0000
  0
ARC
  8
22
 10
341.7570
 20
3.9688
 30
0.0000
 40
0.3810
 50
270.0000
 51
0.0000
  0
ARC
  8
22
 10
312.5470
 20
19.2088
 30
0.0000
 40
0.3810
 50
90.0000
 51
180.0000
  0
ARC
  8
22
 10
312.5470
 20
3.9688
 30
0.0000
 40
0.3810
 50
180.0000
 51
270.0000
  0
LINE
  8
22
 10
339.3440
 20
3.5878
 30
0.0000
 11
341.7570
 21
3.5878
 31
0.0000
  0
LINE
  8
22
 10
342.1380
 20
3.9688
 30
0.0000
 11
342.1380
 21
19.2088
 31
0.0000
  0
LINE
  8
22
 10
341.4522
 20
11.4589
 30
0.0000
 11
340.6733
 21
11.4589
 31
0.0000
  0
LINE
  8
22
 10
341.0627
 20
11.0695
 30
0.0000
 11
341.0627
 21
11.8484
 31
0.0000
  0
LINE
  8
22
 10
341.5792
 20
8.9189
 30
0.0000
 11
340.8003
 21
8.9189
 31
0.0000
  0
LINE
  8
22
 10
341.1897
 20
8.5295
 30
0.0000
 11
341.1897
 21
9.3084
 31
0.0000
  0
LINE
  8
22
 10
341.5792
 20
6.3789
 30
0.0000
 11
340.8003
 21
6.3789
 31
0.0000
  0
LINE
  8
22
 10
341.1897
 20
5.9895
 30
0.0000
 11
341.1897
 21
6.7684
 31
0.0000
  0
LINE
  8
22
 10
341.5792
 20
13.9989
 30
0.0000
 11
340.8003
 21
13.9989
 31
0.0000
  0
LINE
  8
22
 10
341.1897
 20
13.6095
 30
0.0000
 11
341.1897
 21
14.3884
 31
0.0000
  0
LINE
  8
22
 10
341.5792
 20
16.5389
 30
0.0000
 11
340.8003
 21
16.5389
 31
0.0000
  0
LINE
  8
22
 10
341.1897
 20
16.1495
 30
0.0000
 11
341.1897
 21
16.9284
 31
0.0000
  0
LINE
  8
22
 10
313.6392
 20
16.5389
 30
0.0000
 11
312.8603
 21
16.5389
 31
0.0000
  0
LINE
  8
22
 10
313.6392
 20
13.9989
 30
0.0000
 11
312.8603
 21
13.9989
 31
0.0000
  0
LINE
  8
22
 10
313.6392
 20
11.4589
 30
0.0000
 11
312.8603
 21
11.4589
 31
0.0000
  0
LINE
  8
22
 10
313.6392
 20
9.0459
 30
0.0000
 11
312.8603
 21
9.0459
 31
0.0000
  0
LINE
  8
22
 10
313.6392
 20
6.3789
 30
0.0000
 11
312.8603
 21
6.3789
 31
0.0000
  0
INSERT
  8
22
  2
RECT
 10
311.4040
 20
11.5888
 30
0.0000
 41
1.5240
 42
3.5560
 43
1.0000
 50
180.0000
  0
INSERT
  8
22
  2
RECT
 10
342.7095
 20
11.5888
 30
0.0000
 41
1.1430
 42
0.7620
 43
1.0000
 50
180.0000
  0
INSERT
  8
22
  2
RECT
 10
310.0705
 20
11.5888
 30
0.0000
 41
1.1430
 42
0.7620
 43
1.0000
 50
180.0000
  0
LINE
  8
22
 10
25.2525
 20
24.6225
 30
0.0000
 11
25.2525
 21
20.1775
 31
0.0000
  0
LINE
  8
22
 10
25.2525
 20
20.1775
 30
0.0000
 11
23.3475
 21
20.1775
 31
0.0000
  0
LINE
  8
22
 10
23.3475
 20
20.1775
 30
0.0000
 11
23.3475
 21
24.6225
 31
0.0000
  0
LINE
  8
22
 10
23.3475
 20
24.6225
 30
0.0000
 11
25.2525
 21
24.6225
 31
0.0000
  0
LINE
  8
22
 10
24.9350
 20
21.7650
 30
0.0000
 11
23.6650
 21
21.7650
 31
0.0000
  0
LINE
  8
22
 10
23.6650
 20
21.7650
 30
0.0000
 11
24.3000
 21
23.0350
 31
0.0000
  0
LINE
  8
22
 10
24.3000
 20
23.0350
 30
0.0000
 11
24.9350
 21
21.7650
 31
0.0000
  0
LINE
  8
22
 10
24.9350
 20
23.0350
 30
0.0000
 11
23.6650
 21
23.0350
 31
0.0000
  0
LINE
  8
22
 10
366.0425
 20
46.1238
 30
0.0000
 11
370.4875
 21
46.1238
 31
0.0000
  0
LINE
  8
22
 10
370.4875
 20
46.1238
 30
0.0000
 11
370.4875
 21
44.2188
 31
0.0000
  0
LINE
  8
22
 10
370.4875
 20
44.2188
 30
0.0000
 11
366.0425
 21
44.2188
 31
0.0000
  0
LINE
  8
22
 10
366.0425
 20
44.2188
 30
0.0000
 11
366.0425
 21
46.1238
 31
0.0000
  0
LINE
  8
22
 10
368.9000
 20
45.8063
 30
0.0000
 11
368.9000
 21
44.5363
 31
0.0000
  0
LINE
  8
22
 10
368.9000
 20
44.5363
 30
0.0000
 11
367.6300
 21
45.1713
 31
0.0000
  0
LINE
  8
22
 10
367.6300
 20
45.1713
 30
0.0000
 11
368.9000
 21
45.8063
 31
0.0000
  0
LINE
  8
22
 10
367.6300
 20
45.8063
 30
0.0000
 11
367.6300
 21
44.5363
 31
0.0000
  0
LINE
  8
22
 10
29.4188
 20
7.5328
 30
0.0000
 11
29.4188
 21
16.0672
 31
0.0000
  0
LINE
  8
22
 10
29.4188
 20
16.0672
 30
0.0000
 11
33.2542
 21
16.0672
 31
0.0000
  0
LINE
  8
22
 10
33.2542
 20
16.0672
 30
0.0000
 11
33.2542
 21
7.5328
 31
0.0000
  0
LINE
  8
22
 10
33.2542
 20
7.5328
 30
0.0000
 11
29.4188
 21
7.5328
 31
0.0000
  0
CIRCLE
  8
22
 10
30.1808
 20
8.2948
 30
0.0000
 40
0.5334
  0
LINE
  8
22
 10
369.8176
 20
64.5362
 30
0.0000
 11
376.8025
 21
64.5362
 31
0.0000
  0
LINE
  8
22
 10
378.7075
 20
83.1100
 30
0.0000
 11
378.7075
 21
49.9312
 31
0.0000
  0
LINE
  8
22
 10
378.7075
 20
83.1100
 30
0.0000
 11
369.8175
 21
83.1100
 31
0.0000
  0
LINE
  8
22
 10
369.8175
 20
83.1100
 30
0.0000
 11
369.8175
 21
78.6650
 31
0.0000
  0
LINE
  8
22
 10
369.8175
 20
78.6650
 30
0.0000
 11
369.8175
 21
77.3950
 31
0.0000
  0
LINE
  8
22
 10
369.8175
 20
77.3950
 30
0.0000
 11
369.8175
 21
49.9312
 31
0.0000
  0
LINE
  8
22
 10
369.8175
 20
49.9312
 30
0.0000
 11
378.7075
 21
49.9312
 31
0.0000
  0
LINE
  8
22
 10
377.2788
 20
68.6638
 30
0.0000
 11
376.8025
 21
68.6638
 31
0.0000
  0
LINE
  8
22
 10
376.8025
 20
68.6638
 30
0.0000
 11
369.8175
 21
68.6638
 31
0.0000
  0
LINE
  8
22
 10
377.4375
 20
68.6638
 30
0.0000
 11
377.4375
 21
64.5362
 31
0.0000
  0
LINE
  8
22
 10
376.8025
 20
68.6638
 30
0.0000
 11
376.8025
 21
64.5362
 31
0.0000
  0
LINE
  8
22
 10
377.4375
 20
64.5362
 30
0.0000
 11
376.8025
 21
64.5362
 31
0.0000
  0
LINE
  8
22
 10
369.8175
 20
78.6650
 30
0.0000
 11
372.0400
 21
78.0300
 31
0.0000
  0
LINE
  8
22
 10
372.0400
 20
78.0300
 30
0.0000
 11
369.8175
 21
77.3950
 31
0.0000
  0
LINE
  8
22
 10
382.5246
 20
79.0333
 30
0.0000
 11
382.7842
 21
79.3579
 31
0.0000
  0
LINE
  8
22
 10
382.7842
 20
79.3579
 30
0.0000
 11
381.6158
 21
79.3579
 31
0.0000
  0
LINE
  8
22
 10
381.6158
 20
79.0333
 30
0.0000
 11
381.6158
 21
79.6824
 31
0.0000
  0
INSERT
  8
22
  2
RECT
 10
373.5481
 20
67.8700
 30
0.0000
 41
0.6350
 42
6.5088
 43
1.0000
 50
270.0000
  0
INSERT
  8
22
  2
RECT
 10
381.0094
 20
72.9500
 30
0.0000
 41
0.6350
 42
0.7938
 43
1.0000
 50
270.0000
  0
INSERT
  8
22
  2
RECT
 10
381.0094
 20
78.0300
 30
0.0000
 41
0.6350
 42
0.7938
 43
1.0000
 50
270.0000
  0
INSERT
  8
22
  2
RECT
 10
381.0094
 20
75.4900
 30
0.0000
 41
0.6350
 42
0.7938
 43
1.0000
 50
270.0000
  0
INSERT
  8
22
  2
RECT
 10
381.0094
 20
70.4100
 30
0.0000
 41
0.6350
 42
0.7938
 43
1.0000
 50
270.0000
  0
INSERT
  8
22
  2
RECT
 10
381.0094
 20
67.8700
 30
0.0000
 41
0.6350
 42
0.7938
 43
1.0000
 50
270.0000
  0
INSERT
  8
22
  2
RECT
 10
381.0094
 20
60.2500
 30
0.0000
 41
0.6350
 42
0.7938
 43
1.0000
 50
270.0000
  0
INSERT
  8
22
  2
RECT
 10
381.0094
 20
65.3300
 30
0.0000
 41
0.6350
 42
0.7938
 43
1.0000
 50
270.0000
  0
INSERT
  8
22
  2
RECT
 10
381.0094
 20
62.7900
 30
0.0000
 41
0.6350
 42
0.7938
 43
1.0000
 50
270.0000
  0
INSERT
  8
22
  2
RECT
 10
381.0094
 20
57.7100
 30
0.0000
 41
0.6350
 42
0.7938
 43
1.0000
 50
270.0000
  0
INSERT
  8
22
  2
RECT
 10
381.0094
 20
55.1700
 30
0.0000
 41
0.6350
 42
0.7938
 43
1.0000
 50
270.0000
  0
INSERT
  8
22
  2
RECT
 10
373.5481
 20
65.3300
 30
0.0000
 41
0.6350
 42
6.5088
 43
1.0000
 50
270.0000
  0
LINE
  8
22
 10
249.5950
 20
16.1500
 30
0.0000
 11
249.5950
 21
13.6100
 31
0.0000
  0
LINE
  8
22
 10
249.5950
 20
13.6100
 30
0.0000
 11
247.0550
 21
13.6100
 31
0.0000
  0
LINE
  8
22
 10
247.0550
 20
13.6100
 30
0.0000
 11
247.0550
 21
15.5150
 31
0.0000
  0
LINE
  8
22
 10
247.0550
 20
15.5150
 30
0.0000
 11
247.6900
 21
16.1500
 31
0.0000
  0
LINE
  8
22
 10
247.6900
 20
16.1500
 30
0.0000
 11
249.5950
 21
16.1500
 31
0.0000
  0
LINE
  8
22
 10
240.7050
 20
14.8800
 30
0.0000
 11
246.4200
 21
14.8800
 31
0.0000
  0
LINE
  8
22
 10
249.5950
 20
13.6100
 30
0.0000
 11
249.5950
 21
11.0700
 31
0.0000
  0
LINE
  8
22
 10
249.5950
 20
11.0700
 30
0.0000
 11
247.0550
 21
11.0700
 31
0.0000
  0
LINE
  8
22
 10
247.0550
 20
11.0700
 30
0.0000
 11
247.0550
 21
13.6100
 31
0.0000
  0
LINE
  8
22
 10
240.7050
 20
12.3400
 30
0.0000
 11
246.4200
 21
12.3400
 31
0.0000
  0
LINE
  8
22
 10
249.5950
 20
11.0700
 30
0.0000
 11
249.5950
 21
8.5300
 31
0.0000
  0
LINE
  8
22
 10
249.5950
 20
8.5300
 30
0.0000
 11
247.0550
 21
8.5300
 31
0.0000
  0
LINE
  8
22
 10
247.0550
 20
8.5300
 30
0.0000
 11
247.0550
 21
11.0700
 31
0.0000
  0
LINE
  8
22
 10
240.7050
 20
9.8000
 30
0.0000
 11
246.4200
 21
9.8000
 31
0.0000
  0
LINE
  8
22
 10
249.5950
 20
8.5300
 30
0.0000
 11
249.5950
 21
5.9900
 31
0.0000
  0
LINE
  8
22
 10
249.5950
 20
5.9900
 30
0.0000
 11
247.0550
 21
5.9900
 31
0.0000
  0
LINE
  8
22
 10
247.0550
 20
5.9900
 30
0.0000
 11
247.0550
 21
8.5300
 31
0.0000
  0
LINE
  8
22
 10
240.7050
 20
7.2600
 30
0.0000
 11
246.4200
 21
7.2600
 31
0.0000
  0
LINE
  8
22
 10
249.5950
 20
5.9900
 30
0.0000
 11
249.5950
 21
3.4500
 31
0.0000
  0
LINE
  8
22
 10
249.5950
 20
3.4500
 30
0.0000
 11
247.0550
 21
3.4500
 31
0.0000
  0
LINE
  8
22
 10
247.0550
 20
3.4500
 30
0.0000
 11
247.0550
 21
5.9900
 31
0.0000
  0
LINE
  8
22
 10
240.7050
 20
4.7200
 30
0.0000
 11
246.4200
 21
4.7200
 31
0.0000
  0
INSERT
  8
22
  2
RECT
 10
250.2300
 20
14.8800
 30
0.0000
 41
0.7620
 42
1.2700
 43
1.0000
 50
270.0000
  0
INSERT
  8
22
  2
RECT
 10
246.8010
 20
14.8800
 30
0.0000
 41
0.7620
 42
0.5080
 43
1.0000
 50
270.0000
  0
INSERT
  8
22
  2
RECT
 10
250.2300
 20
12.3400
 30
0.0000
 41
0.7620
 42
1.2700
 43
1.0000
 50
270.0000
  0
INSERT
  8
22
  2
RECT
 10
246.8010
 20
12.3400
 30
0.0000
 41
0.7620
 42
0.5080
 43
1.0000
 50
270.0000
  0
INSERT
  8
22
  2
RECT
 10
250.2300
 20
9.8000
 30
0.0000
 41
0.7620
 42
1.2700
 43
1.0000
 50
270.0000
  0
INSERT
  8
22
  2
RECT
 10
246.8010
 20
9.8000
 30
0.0000
 41
0.7620
 42
0.5080
 43
1.0000
 50
270.0000
  0
INSERT
  8
22
  2
RECT
 10
250.2300
 20
7.2600
 30
0.0000
 41
0.7620
 42
1.2700
 43
1.0000
 50
270.0000
  0
INSERT
  8
22
  2
RECT
 10
246.8010
 20
7.2600
 30
0.0000
 41
0.7620
 42
0.5080
 43
1.0000
 50
270.0000
  0
INSERT
  8
22
  2
RECT
 10
250.2300
 20
4.7200
 30
0.0000
 41
0.7620
 42
1.2700
 43
1.0000
 50
270.0000
  0
INSERT
  8
22
  2
RECT
 10
246.8010
 20
4.7200
 30
0.0000
 41
0.7620
 42
0.5080
 43
1.0000
 50
270.0000
  0
LINE
  8
22
 10
4.3225
 20
74.8150
 30
0.0000
 11
4.3225
 21
77.3550
 31
0.0000
  0
LINE
  8
22
 10
4.3225
 20
77.3550
 30
0.0000
 11
6.8625
 21
77.3550
 31
0.0000
  0
LINE
  8
22
 10
6.8625
 20
77.3550
 30
0.0000
 11
6.8625
 21
75.4500
 31
0.0000
  0
LINE
  8
22
 10
6.8625
 20
75.4500
 30
0.0000
 11
6.2275
 21
74.8150
 31
0.0000
  0
LINE
  8
22
 10
6.2275
 20
74.8150
 30
0.0000
 11
4.3225
 21
74.8150
 31
0.0000
  0
LINE
  8
22
 10
13.2125
 20
76.0850
 30
0.0000
 11
7.4975
 21
76.0850
 31
0.0000
  0
LINE
  8
22
 10
4.3225
 20
77.3550
 30
0.0000
 11
4.3225
 21
79.8950
 31
0.0000
  0
LINE
  8
22
 10
4.3225
 20
79.8950
 30
0.0000
 11
6.8625
 21
79.8950
 31
0.0000
  0
LINE
  8
22
 10
6.8625
 20
79.8950
 30
0.0000
 11
6.8625
 21
77.3550
 31
0.0000
  0
LINE
  8
22
 10
13.2125
 20
78.6250
 30
0.0000
 11
7.4975
 21
78.6250
 31
0.0000
  0
LINE
  8
22
 10
4.3225
 20
79.8950
 30
0.0000
 11
4.3225
 21
82.4350
 31
0.0000
  0
LINE
  8
22
 10
4.3225
 20
82.4350
 30
0.0000
 11
6.8625
 21
82.4350
 31
0.0000
  0
LINE
  8
22
 10
6.8625
 20
82.4350
 30
0.0000
 11
6.8625
 21
79.8950
 31
0.0000
  0
LINE
  8
22
 10
13.2125
 20
81.1650
 30
0.0000
 11
7.4975
 21
81.1650
 31
0.0000
  0
INSERT
  8
22
  2
RECT
 10
7.1165
 20
76.0850
 30
0.0000
 41
0.7620
 42
0.5080
 43
1.0000
 50
90.0000
  0
INSERT
  8
22
  2
RECT
 10
7.1165
 20
78.6250
 30
0.0000
 41
0.7620
 42
0.5080
 43
1.0000
 50
90.0000
  0
INSERT
  8
22
  2
RECT
 10
7.1165
 20
81.1650
 30
0.0000
 41
0.7620
 42
0.5080
 43
1.0000
 50
90.0000
  0
INSERT
  8
22
  2
RECT
 10
3.8145
 20
76.0850
 30
0.0000
 41
0.7620
 42
1.0160
 43
1.0000
 50
90.0000
  0
INSERT
  8
22
  2
RECT
 10
3.8145
 20
78.6250
 30
0.0000
 41
0.7620
 42
1.0160
 43
1.0000
 50
90.0000
  0
INSERT
  8
22
  2
RECT
 10
3.8145
 20
81.1650
 30
0.0000
 41
0.7620
 42
1.0160
 43
1.0000
 50
90.0000
  0
LINE
  8
22
 10
380.2950
 20
11.5400
 30
0.0000
 11
380.2950
 21
9.0000
 31
0.0000
  0
LINE
  8
22
 10
380.2950
 20
9.0000
 30
0.0000
 11
377.7550
 21
9.0000
 31
0.0000
  0
LINE
  8
22
 10
377.7550
 20
9.0000
 30
0.0000
 11
377.7550
 21
10.9050
 31
0.0000
  0
LINE
  8
22
 10
377.7550
 20
10.9050
 30
0.0000
 11
378.3900
 21
11.5400
 31
0.0000
  0
LINE
  8
22
 10
378.3900
 20
11.5400
 30
0.0000
 11
380.2950
 21
11.5400
 31
0.0000
  0
LINE
  8
22
 10
371.4050
 20
10.2700
 30
0.0000
 11
377.1200
 21
10.2700
 31
0.0000
  0
LINE
  8
22
 10
380.2950
 20
9.0000
 30
0.0000
 11
380.2950
 21
6.4600
 31
0.0000
  0
LINE
  8
22
 10
380.2950
 20
6.4600
 30
0.0000
 11
377.7550
 21
6.4600
 31
0.0000
  0
LINE
  8
22
 10
377.7550
 20
6.4600
 30
0.0000
 11
377.7550
 21
9.0000
 31
0.0000
  0
LINE
  8
22
 10
371.4050
 20
7.7300
 30
0.0000
 11
377.1200
 21
7.7300
 31
0.0000
  0
INSERT
  8
22
  2
RECT
 10
377.5010
 20
10.2700
 30
0.0000
 41
0.7620
 42
0.5080
 43
1.0000
 50
270.0000
  0
INSERT
  8
22
  2
RECT
 10
377.5010
 20
7.7300
 30
0.0000
 41
0.7620
 42
0.5080
 43
1.0000
 50
270.0000
  0
INSERT
  8
22
  2
RECT
 10
380.8030
 20
10.2700
 30
0.0000
 41
0.7620
 42
1.0160
 43
1.0000
 50
270.0000
  0
INSERT
  8
22
  2
RECT
 10
380.8030
 20
7.7300
 30
0.0000
 41
0.7620
 42
1.0160
 43
1.0000
 50
270.0000
  0
LINE
  8
22
 10
299.8788
 20
18.7325
 30
0.0000
 11
299.8788
 21
16.1925
 31
0.0000
  0
LINE
  8
22
 10
299.8788
 20
16.1925
 30
0.0000
 11
297.3388
 21
16.1925
 31
0.0000
  0
LINE
  8
22
 10
297.3388
 20
16.1925
 30
0.0000
 11
297.3388
 21
18.0975
 31
0.0000
  0
LINE
  8
22
 10
297.3388
 20
18.0975
 30
0.0000
 11
297.9737
 21
18.7325
 31
0.0000
  0
LINE
  8
22
 10
297.9737
 20
18.7325
 30
0.0000
 11
299.8788
 21
18.7325
 31
0.0000
  0
LINE
  8
22
 10
290.9888
 20
17.4625
 30
0.0000
 11
296.7038
 21
17.4625
 31
0.0000
  0
LINE
  8
22
 10
299.8788
 20
16.1925
 30
0.0000
 11
299.8788
 21
13.6525
 31
0.0000
  0
LINE
  8
22
 10
299.8788
 20
13.6525
 30
0.0000
 11
297.3388
 21
13.6525
 31
0.0000
  0
LINE
  8
22
 10
297.3388
 20
13.6525
 30
0.0000
 11
297.3388
 21
16.1925
 31
0.0000
  0
LINE
  8
22
 10
290.9888
 20
14.9225
 30
0.0000
 11
296.7038
 21
14.9225
 31
0.0000
  0
LINE
  8
22
 10
299.8788
 20
13.6525
 30
0.0000
 11
299.8788
 21
11.1125
 31
0.0000
  0
LINE
  8
22
 10
299.8788
 20
11.1125
 30
0.0000
 11
297.3388
 21
11.1125
 31
0.0000
  0
LINE
  8
22
 10
297.3388
 20
11.1125
 30
0.0000
 11
297.3388
 21
13.6525
 31
0.0000
  0
LINE
  8
22
 10
290.9888
 20
12.3825
 30
0.0000
 11
296.7038
 21
12.3825
 31
0.0000
  0
LINE
  8
22
 10
299.8788
 20
11.1125
 30
0.0000
 11
299.8788
 21
8.5725
 31
0.0000
  0
LINE
  8
22
 10
299.8788
 20
8.5725
 30
0.0000
 11
297.3388
 21
8.5725
 31
0.0000
  0
LINE
  8
22
 10
297.3388
 20
8.5725
 30
0.0000
 11
297.3388
 21
11.1125
 31
0.0000
  0
LINE
  8
22
 10
290.9888
 20
9.8425
 30
0.0000
 11
296.7038
 21
9.8425
 31
0.0000
  0
INSERT
  8
22
  2
RECT
 10
300.5138
 20
17.4625
 30
0.0000
 41
0.7620
 42
1.2700
 43
1.0000
 50
270.0000
  0
INSERT
  8
22
  2
RECT
 10
297.0848
 20
17.4625
 30
0.0000
 41
0.7620
 42
0.5080
 43
1.0000
 50
270.0000
  0
INSERT
  8
22
  2
RECT
 10
300.5138
 20
14.9225
 30
0.0000
 41
0.7620
 42
1.2700
 43
1.0000
 50
270.0000
  0
INSERT
  8
22
  2
RECT
 10
297.0848
 20
14.9225
 30
0.0000
 41
0.7620
 42
0.5080
 43
1.0000
 50
270.0000
  0
INSERT
  8
22
  2
RECT
 10
300.5138
 20
12.3825
 30
0.0000
 41
0.7620
 42
1.2700
 43
1.0000
 50
270.0000
  0
INSERT
  8
22
  2
RECT
 10
297.0848
 20
12.3825
 30
0.0000
 41
0.7620
 42
0.5080
 43
1.0000
 50
270.0000
  0
INSERT
  8
22
  2
RECT
 10
300.5138
 20
9.8425
 30
0.0000
 41
0.7620
 42
1.2700
 43
1.0000
 50
270.0000
  0
INSERT
  8
22
  2
RECT
 10
297.0848
 20
9.8425
 30
0.0000
 41
0.7620
 42
0.5080
 43
1.0000
 50
270.0000
  0
LINE
  8
22
 10
380.2950
 20
27.4800
 30
0.0000
 11
380.2950
 21
24.9400
 31
0.0000
  0
LINE
  8
22
 10
380.2950
 20
24.9400
 30
0.0000
 11
377.7550
 21
24.9400
 31
0.0000
  0
LINE
  8
22
 10
377.7550
 20
24.9400
 30
0.0000
 11
377.7550
 21
26.8450
 31
0.0000
  0
LINE
  8
22
 10
377.7550
 20
26.8450
 30
0.0000
 11
378.3900
 21
27.4800
 31
0.0000
  0
LINE
  8
22
 10
378.3900
 20
27.4800
 30
0.0000
 11
380.2950
 21
27.4800
 31
0.0000
  0
LINE
  8
22
 10
371.4050
 20
26.2100
 30
0.0000
 11
377.1200
 21
26.2100
 31
0.0000
  0
LINE
  8
22
 10
380.2950
 20
24.9400
 30
0.0000
 11
380.2950
 21
22.4000
 31
0.0000
  0
LINE
  8
22
 10
380.2950
 20
22.4000
 30
0.0000
 11
377.7550
 21
22.4000
 31
0.0000
  0
LINE
  8
22
 10
377.7550
 20
22.4000
 30
0.0000
 11
377.7550
 21
24.9400
 31
0.0000
  0
LINE
  8
22
 10
371.4050
 20
23.6700
 30
0.0000
 11
377.1200
 21
23.6700
 31
0.0000
  0
LINE
  8
22
 10
380.2950
 20
22.4000
 30
0.0000
 11
380.2950
 21
19.8600
 31
0.0000
  0
LINE
  8
22
 10
380.2950
 20
19.8600
 30
0.0000
 11
377.7550
 21
19.8600
 31
0.0000
  0
LINE
  8
22
 10
377.7550
 20
19.8600
 30
0.0000
 11
377.7550
 21
22.4000
 31
0.0000
  0
LINE
  8
22
 10
371.4050
 20
21.1300
 30
0.0000
 11
377.1200
 21
21.1300
 31
0.0000
  0
LINE
  8
22
 10
380.2950
 20
19.8600
 30
0.0000
 11
380.2950
 21
17.3200
 31
0.0000
  0
LINE
  8
22
 10
380.2950
 20
17.3200
 30
0.0000
 11
377.7550
 21
17.3200
 31
0.0000
  0
LINE
  8
22
 10
377.7550
 20
17.3200
 30
0.0000
 11
377.7550
 21
19.8600
 31
0.0000
  0
LINE
  8
22
 10
371.4050
 20
18.5900
 30
0.0000
 11
377.1200
 21
18.5900
 31
0.0000
  0
INSERT
  8
22
  2
RECT
 10
380.9300
 20
26.2100
 30
0.0000
 41
0.7620
 42
1.2700
 43
1.0000
 50
270.0000
  0
INSERT
  8
22
  2
RECT
 10
377.5010
 20
26.2100
 30
0.0000
 41
0.7620
 42
0.5080
 43
1.0000
 50
270.0000
  0
INSERT
  8
22
  2
RECT
 10
380.9300
 20
23.6700
 30
0.0000
 41
0.7620
 42
1.2700
 43
1.0000
 50
270.0000
  0
INSERT
  8
22
  2
RECT
 10
377.5010
 20
23.6700
 30
0.0000
 41
0.7620
 42
0.5080
 43
1.0000
 50
270.0000
  0
INSERT
  8
22
  2
RECT
 10
380.9300
 20
21.1300
 30
0.0000
 41
0.7620
 42
1.2700
 43
1.0000
 50
270.0000
  0
INSERT
  8
22
  2
RECT
 10
377.5010
 20
21.1300
 30
0.0000
 41
0.7620
 42
0.5080
 43
1.0000
 50
270.0000
  0
INSERT
  8
22
  2
RECT
 10
380.9300
 20
18.5900
 30
0.0000
 41
0.7620
 42
1.2700
 43
1.0000
 50
270.0000
  0
INSERT
  8
22
  2
RECT
 10
377.5010
 20
18.5900
 30
0.0000
 41
0.7620
 42
0.5080
 43
1.0000
 50
270.0000
  0
LINE
  8
22
 10
380.2950
 20
91.6100
 30
0.0000
 11
380.2950
 21
89.0700
 31
0.0000
  0
LINE
  8
22
 10
380.2950
 20
89.0700
 30
0.0000
 11
377.7550
 21
89.0700
 31
0.0000
  0
LINE
  8
22
 10
377.7550
 20
89.0700
 30
0.0000
 11
377.7550
 21
90.9750
 31
0.0000
  0
LINE
  8
22
 10
377.7550
 20
90.9750
 30
0.0000
 11
378.3900
 21
91.6100
 31
0.0000
  0
LINE
  8
22
 10
378.3900
 20
91.6100
 30
0.0000
 11
380.2950
 21
91.6100
 31
0.0000
  0
LINE
  8
22
 10
371.4050
 20
90.3400
 30
0.0000
 11
377.1200
 21
90.3400
 31
0.0000
  0
LINE
  8
22
 10
380.2950
 20
89.0700
 30
0.0000
 11
380.2950
 21
86.5300
 31
0.0000
  0
LINE
  8
22
 10
380.2950
 20
86.5300
 30
0.0000
 11
377.7550
 21
86.5300
 31
0.0000
  0
LINE
  8
22
 10
377.7550
 20
86.5300
 30
0.0000
 11
377.7550
 21
89.0700
 31
0.0000
  0
LINE
  8
22
 10
371.4050
 20
87.8000
 30
0.0000
 11
377.1200
 21
87.8000
 31
0.0000
  0
LINE
  8
22
 10
380.2950
 20
86.5300
 30
0.0000
 11
380.2950
 21
83.9900
 31
0.0000
  0
LINE
  8
22
 10
380.2950
 20
83.9900
 30
0.0000
 11
377.7550
 21
83.9900
 31
0.0000
  0
LINE
  8
22
 10
377.7550
 20
83.9900
 30
0.0000
 11
377.7550
 21
86.5300
 31
0.0000
  0
LINE
  8
22
 10
371.4050
 20
85.2600
 30
0.0000
 11
377.1200
 21
85.2600
 31
0.0000
  0
INSERT
  8
22
  2
RECT
 10
377.5010
 20
90.3400
 30
0.0000
 41
0.7620
 42
0.5080
 43
1.0000
 50
270.0000
  0
INSERT
  8
22
  2
RECT
 10
377.5010
 20
87.8000
 30
0.0000
 41
0.7620
 42
0.5080
 43
1.0000
 50
270.0000
  0
INSERT
  8
22
  2
RECT
 10
377.5010
 20
85.2600
 30
0.0000
 41
0.7620
 42
0.5080
 43
1.0000
 50
270.0000
  0
INSERT
  8
22
  2
RECT
 10
380.8030
 20
90.3400
 30
0.0000
 41
0.7620
 42
1.0160
 43
1.0000
 50
270.0000
  0
INSERT
  8
22
  2
RECT
 10
380.8030
 20
87.8000
 30
0.0000
 41
0.7620
 42
1.0160
 43
1.0000
 50
270.0000
  0
INSERT
  8
22
  2
RECT
 10
380.8030
 20
85.2600
 30
0.0000
 41
0.7620
 42
1.0160
 43
1.0000
 50
270.0000
  0
CIRCLE
  8
22
 10
56.9250
 20
12.4063
 30
0.0000
 40
1.0160
  0
CIRCLE
  8
22
 10
209.4000
 20
12.4000
 30
0.0000
 40
1.0160
  0
LINE
  8
22
 10
308.2500
 20
53.5000
 30
0.0000
 11
329.3500
 21
53.5000
 31
0.0000
  0
LINE
  8
22
 10
308.2500
 20
21.5000
 30
0.0000
 11
329.3500
 21
21.5000
 31
0.0000
  0
LINE
  8
22
 10
308.2500
 20
53.5000
 30
0.0000
 11
308.2500
 21
21.5000
 31
0.0000
  0
LINE
  8
22
 10
329.3500
 20
53.5000
 30
0.0000
 11
329.3500
 21
21.5000
 31
0.0000
  0
LINE
  8
22
 10
314.1109
 20
22.5558
 30
0.0000
 11
314.1109
 21
23.7242
 31
0.0000
  0
LINE
  8
22
 10
314.1109
 20
23.7242
 30
0.0000
 11
313.7863
 21
23.7242
 31
0.0000
  0
ARC
  8
22
 10
313.7863
 20
23.3996
 30
0.0000
 40
0.3246
 50
90.0000
 51
270.0000
  0
LINE
  8
22
 10
313.7863
 20
23.0751
 30
0.0000
 11
314.1109
 21
23.0751
 31
0.0000
  0
LINE
  8
22
 10
313.0229
 20
23.4646
 30
0.0000
 11
312.6984
 21
23.7242
 31
0.0000
  0
LINE
  8
22
 10
312.6984
 20
23.7242
 30
0.0000
 11
312.6984
 21
22.5558
 31
0.0000
  0
LINE
  8
22
 10
313.0229
 20
22.5558
 30
0.0000
 11
312.3738
 21
22.5558
 31
0.0000
  0
ARC
  8
22
 10
310.9171
 20
23.1400
 30
0.0000
 40
0.9629
 50
359.9999
 51
25.9891
  0
ARC
  8
22
 10
311.5554
 20
23.4840
 30
0.0000
 40
0.2402
 50
18.9249
 51
90.0000
  0
ARC
  8
22
 10
311.5554
 20
23.4840
 30
0.0000
 40
0.2402
 50
90.0002
 51
161.0741
  0
ARC
  8
22
 10
312.1936
 20
23.1400
 30
0.0000
 40
0.9628
 50
154.0109
 51
180.0001
  0
ARC
  8
22
 10
310.9170
 20
23.1400
 30
0.0000
 40
0.9629
 50
334.0112
 51
360.0000
  0
ARC
  8
22
 10
311.5554
 20
22.7960
 30
0.0000
 40
0.2402
 50
270.0002
 51
341.0746
  0
ARC
  8
22
 10
312.1937
 20
23.1400
 30
0.0000
 40
0.9629
 50
180.0000
 51
205.9888
  0
ARC
  8
22
 10
311.5554
 20
22.7960
 30
0.0000
 40
0.2402
 50
198.9267
 51
270.0000
  0
LINE
  8
22
 10
311.8150
 20
22.8154
 30
0.0000
 11
311.2957
 21
23.4646
 31
0.0000
  0
LINE
  8
22
 10
314.1109
 20
25.0958
 30
0.0000
 11
314.1109
 21
26.2642
 31
0.0000
  0
LINE
  8
22
 10
314.1109
 20
26.2642
 30
0.0000
 11
313.7863
 21
26.2642
 31
0.0000
  0
ARC
  8
22
 10
313.7863
 20
25.9396
 30
0.0000
 40
0.3246
 50
90.0000
 51
270.0000
  0
LINE
  8
22
 10
313.7863
 20
25.6151
 30
0.0000
 11
314.1109
 21
25.6151
 31
0.0000
  0
LINE
  8
22
 10
313.0229
 20
26.0046
 30
0.0000
 11
312.6984
 21
26.2642
 31
0.0000
  0
LINE
  8
22
 10
312.6984
 20
26.2642
 30
0.0000
 11
312.6984
 21
25.0958
 31
0.0000
  0
LINE
  8
22
 10
313.0229
 20
25.0958
 30
0.0000
 11
312.3738
 21
25.0958
 31
0.0000
  0
LINE
  8
22
 10
311.8799
 20
26.0046
 30
0.0000
 11
311.5554
 21
26.2642
 31
0.0000
  0
LINE
  8
22
 10
311.5554
 20
26.2642
 30
0.0000
 11
311.5554
 21
25.0958
 31
0.0000
  0
LINE
  8
22
 10
311.8799
 20
25.0958
 30
0.0000
 11
311.2308
 21
25.0958
 31
0.0000
  0
LINE
  8
22
 10
314.1109
 20
27.6358
 30
0.0000
 11
314.1109
 21
28.8042
 31
0.0000
  0
LINE
  8
22
 10
314.1109
 20
28.8042
 30
0.0000
 11
313.7863
 21
28.8042
 31
0.0000
  0
ARC
  8
22
 10
313.7863
 20
28.4796
 30
0.0000
 40
0.3246
 50
90.0000
 51
270.0000
  0
LINE
  8
22
 10
313.7863
 20
28.1551
 30
0.0000
 11
314.1109
 21
28.1551
 31
0.0000
  0
LINE
  8
22
 10
313.0229
 20
28.5446
 30
0.0000
 11
312.6984
 21
28.8042
 31
0.0000
  0
LINE
  8
22
 10
312.6984
 20
28.8042
 30
0.0000
 11
312.6984
 21
27.6358
 31
0.0000
  0
LINE
  8
22
 10
313.0229
 20
27.6358
 30
0.0000
 11
312.3738
 21
27.6358
 31
0.0000
  0
ARC
  8
22
 10
311.5229
 20
28.5121
 30
0.0000
 40
0.2921
 50
90.0000
 51
180.0000
  0
ARC
  8
22
 10
311.5229
 20
28.4289
 30
0.0000
 40
0.3753
 50
17.9444
 51
90.0001
  0
ARC
  8
22
 10
311.5445
 20
28.5121
 30
0.0000
 40
0.3137
 50
180.0002
 51
226.3962
  0
LINE
  8
22
 10
311.3282
 20
28.2849
 30
0.0000
 11
311.8799
 21
27.6358
 31
0.0000
  0
LINE
  8
22
 10
311.8799
 20
27.6358
 30
0.0000
 11
311.2308
 21
27.6358
 31
0.0000
  0
LINE
  8
22
 10
314.1109
 20
30.1758
 30
0.0000
 11
314.1109
 21
31.3442
 31
0.0000
  0
LINE
  8
22
 10
314.1109
 20
31.3442
 30
0.0000
 11
313.7863
 21
31.3442
 31
0.0000
  0
ARC
  8
22
 10
313.7863
 20
31.0196
 30
0.0000
 40
0.3246
 50
90.0000
 51
270.0000
  0
LINE
  8
22
 10
313.7863
 20
30.6951
 30
0.0000
 11
314.1109
 21
30.6951
 31
0.0000
  0
LINE
  8
22
 10
313.0229
 20
31.0846
 30
0.0000
 11
312.6984
 21
31.3442
 31
0.0000
  0
LINE
  8
22
 10
312.6984
 20
31.3442
 30
0.0000
 11
312.6984
 21
30.1758
 31
0.0000
  0
LINE
  8
22
 10
313.0229
 20
30.1758
 30
0.0000
 11
312.3738
 21
30.1758
 31
0.0000
  0
LINE
  8
22
 10
311.8799
 20
30.1758
 30
0.0000
 11
311.5554
 21
30.1758
 31
0.0000
  0
ARC
  8
22
 10
311.5554
 20
30.5004
 30
0.0000
 40
0.3246
 50
90.0000
 51
270.0000
  0
LINE
  8
22
 10
311.8799
 20
31.3442
 30
0.0000
 11
311.4904
 21
31.3442
 31
0.0000
  0
ARC
  8
22
 10
311.4904
 20
31.0846
 30
0.0000
 40
0.2596
 50
90.0000
 51
270.0000
  0
LINE
  8
22
 10
311.4904
 20
30.8249
 30
0.0000
 11
311.7501
 21
30.8249
 31
0.0000
  0
LINE
  8
22
 10
314.1109
 20
32.7158
 30
0.0000
 11
314.1109
 21
33.8842
 31
0.0000
  0
LINE
  8
22
 10
314.1109
 20
33.8842
 30
0.0000
 11
313.7863
 21
33.8842
 31
0.0000
  0
ARC
  8
22
 10
313.7863
 20
33.5596
 30
0.0000
 40
0.3246
 50
90.0000
 51
270.0000
  0
LINE
  8
22
 10
313.7863
 20
33.2351
 30
0.0000
 11
314.1109
 21
33.2351
 31
0.0000
  0
LINE
  8
22
 10
313.0229
 20
33.6246
 30
0.0000
 11
312.6984
 21
33.8842
 31
0.0000
  0
LINE
  8
22
 10
312.6984
 20
33.8842
 30
0.0000
 11
312.6984
 21
32.7158
 31
0.0000
  0
LINE
  8
22
 10
313.0229
 20
32.7158
 30
0.0000
 11
312.3738
 21
32.7158
 31
0.0000
  0
LINE
  8
22
 10
311.6203
 20
33.8842
 30
0.0000
 11
311.8799
 21
32.9754
 31
0.0000
  0
LINE
  8
22
 10
311.8799
 20
32.9754
 30
0.0000
 11
311.2308
 21
32.9754
 31
0.0000
  0
LINE
  8
22
 10
311.4255
 20
33.2351
 30
0.0000
 11
311.4255
 21
32.7158
 31
0.0000
  0
LINE
  8
22
 10
314.1109
 20
35.2558
 30
0.0000
 11
314.1109
 21
36.4242
 31
0.0000
  0
LINE
  8
22
 10
314.1109
 20
36.4242
 30
0.0000
 11
313.7863
 21
36.4242
 31
0.0000
  0
ARC
  8
22
 10
313.7863
 20
36.0996
 30
0.0000
 40
0.3246
 50
90.0000
 51
270.0000
  0
LINE
  8
22
 10
313.7863
 20
35.7751
 30
0.0000
 11
314.1109
 21
35.7751
 31
0.0000
  0
LINE
  8
22
 10
313.0229
 20
36.1646
 30
0.0000
 11
312.6984
 21
36.4242
 31
0.0000
  0
LINE
  8
22
 10
312.6984
 20
36.4242
 30
0.0000
 11
312.6984
 21
35.2558
 31
0.0000
  0
LINE
  8
22
 10
313.0229
 20
35.2558
 30
0.0000
 11
312.3738
 21
35.2558
 31
0.0000
  0
LINE
  8
22
 10
311.8799
 20
35.2558
 30
0.0000
 11
311.4904
 21
35.2558
 31
0.0000
  0
ARC
  8
22
 10
311.4904
 20
35.5154
 30
0.0000
 40
0.2596
 50
180.0000
 51
270.0000
  0
LINE
  8
22
 10
311.2308
 20
35.5154
 30
0.0000
 11
311.2308
 21
35.6453
 31
0.0000
  0
ARC
  8
22
 10
311.4904
 20
35.6453
 30
0.0000
 40
0.2596
 50
90.0000
 51
180.0000
  0
LINE
  8
22
 10
311.4904
 20
35.9049
 30
0.0000
 11
311.8799
 21
35.9049
 31
0.0000
  0
LINE
  8
22
 10
311.8799
 20
35.9049
 30
0.0000
 11
311.8799
 21
36.4242
 31
0.0000
  0
LINE
  8
22
 10
311.8799
 20
36.4242
 30
0.0000
 11
311.2308
 21
36.4242
 31
0.0000
  0
LINE
  8
22
 10
314.1109
 20
37.7958
 30
0.0000
 11
314.1109
 21
38.9642
 31
0.0000
  0
LINE
  8
22
 10
314.1109
 20
38.9642
 30
0.0000
 11
313.7863
 21
38.9642
 31
0.0000
  0
ARC
  8
22
 10
313.7863
 20
38.6396
 30
0.0000
 40
0.3246
 50
90.0000
 51
270.0000
  0
LINE
  8
22
 10
313.7863
 20
38.3151
 30
0.0000
 11
314.1109
 21
38.3151
 31
0.0000
  0
LINE
  8
22
 10
313.0229
 20
38.7046
 30
0.0000
 11
312.6984
 21
38.9642
 31
0.0000
  0
LINE
  8
22
 10
312.6984
 20
38.9642
 30
0.0000
 11
312.6984
 21
37.7958
 31
0.0000
  0
LINE
  8
22
 10
313.0229
 20
37.7958
 30
0.0000
 11
312.3738
 21
37.7958
 31
0.0000
  0
LINE
  8
22
 10
311.8799
 20
38.4449
 30
0.0000
 11
311.4904
 21
38.4449
 31
0.0000
  0
ARC
  8
22
 10
311.4904
 20
38.1853
 30
0.0000
 40
0.2596
 50
90.0000
 51
180.0000
  0
LINE
  8
22
 10
311.2308
 20
38.1853
 30
0.0000
 11
311.2308
 21
38.1204
 31
0.0000
  0
ARC
  8
22
 10
311.5554
 20
38.1204
 30
0.0000
 40
0.3246
 50
180.0000
 51
0.0000
  0
LINE
  8
22
 10
311.8799
 20
38.1204
 30
0.0000
 11
311.8799
 21
38.4449
 31
0.0000
  0
ARC
  8
22
 10
311.3606
 20
38.4449
 30
0.0000
 40
0.5193
 50
0.0000
 51
90.0000
  0
LINE
  8
22
 10
314.1109
 20
40.3358
 30
0.0000
 11
314.1109
 21
41.5042
 31
0.0000
  0
LINE
  8
22
 10
314.1109
 20
41.5042
 30
0.0000
 11
313.7863
 21
41.5042
 31
0.0000
  0
ARC
  8
22
 10
313.7863
 20
41.1796
 30
0.0000
 40
0.3246
 50
90.0000
 51
270.0000
  0
LINE
  8
22
 10
313.7863
 20
40.8551
 30
0.0000
 11
314.1109
 21
40.8551
 31
0.0000
  0
LINE
  8
22
 10
313.0229
 20
41.2446
 30
0.0000
 11
312.6984
 21
41.5042
 31
0.0000
  0
LINE
  8
22
 10
312.6984
 20
41.5042
 30
0.0000
 11
312.6984
 21
40.3358
 31
0.0000
  0
LINE
  8
22
 10
313.0229
 20
40.3358
 30
0.0000
 11
312.3738
 21
40.3358
 31
0.0000
  0
LINE
  8
22
 10
311.8799
 20
41.3744
 30
0.0000
 11
311.8799
 21
41.5042
 31
0.0000
  0
LINE
  8
22
 10
311.8799
 20
41.5042
 30
0.0000
 11
311.2308
 21
41.5042
 31
0.0000
  0
LINE
  8
22
 10
311.2308
 20
41.5042
 30
0.0000
 11
311.5554
 21
40.3358
 31
0.0000
  0
LINE
  8
22
 10
316.8442
 20
48.3528
 30
0.0000
 11
315.6758
 21
48.7423
 31
0.0000
  0
LINE
  8
22
 10
315.6758
 20
48.7423
 30
0.0000
 11
316.8442
 21
49.1318
 31
0.0000
  0
LINE
  8
22
 10
315.6758
 20
50.0767
 30
0.0000
 11
315.6758
 21
49.8171
 31
0.0000
  0
ARC
  8
22
 10
315.9354
 20
49.8171
 30
0.0000
 40
0.2596
 50
180.0000
 51
270.0000
  0
LINE
  8
22
 10
315.9354
 20
49.5574
 30
0.0000
 11
316.5846
 21
49.5574
 31
0.0000
  0
ARC
  8
22
 10
316.5846
 20
49.8171
 30
0.0000
 40
0.2596
 50
270.0000
 51
359.9993
  0
LINE
  8
22
 10
316.8442
 20
49.8171
 30
0.0000
 11
316.8442
 21
50.0767
 31
0.0000
  0
LINE
  8
22
 10
315.6758
 20
51.0292
 30
0.0000
 11
315.6758
 21
50.7696
 31
0.0000
  0
ARC
  8
22
 10
315.9354
 20
50.7696
 30
0.0000
 40
0.2596
 50
180.0000
 51
270.0000
  0
LINE
  8
22
 10
315.9354
 20
50.5099
 30
0.0000
 11
316.5846
 21
50.5099
 31
0.0000
  0
ARC
  8
22
 10
316.5846
 20
50.7696
 30
0.0000
 40
0.2596
 50
270.0000
 51
359.9993
  0
LINE
  8
22
 10
316.8442
 20
50.7696
 30
0.0000
 11
316.8442
 21
51.0292
 31
0.0000
  0
LINE
  8
22
 10
313.8639
 20
46.0649
 30
0.0000
 11
313.6692
 21
46.0649
 31
0.0000
  0
LINE
  8
22
 10
313.6692
 20
46.0649
 30
0.0000
 11
313.6692
 21
45.4158
 31
0.0000
  0
LINE
  8
22
 10
313.6692
 20
45.4158
 30
0.0000
 11
314.0587
 21
45.4158
 31
0.0000
  0
ARC
  8
22
 10
314.0587
 20
45.6754
 30
0.0000
 40
0.2596
 50
270.0000
 51
0.0000
  0
LINE
  8
22
 10
314.3183
 20
45.6754
 30
0.0000
 11
314.3183
 21
46.3246
 31
0.0000
  0
ARC
  8
22
 10
314.0587
 20
46.3246
 30
0.0000
 40
0.2596
 50
0.0000
 51
90.0000
  0
LINE
  8
22
 10
314.0587
 20
46.5842
 30
0.0000
 11
313.6692
 21
46.5842
 31
0.0000
  0
LINE
  8
22
 10
313.0991
 20
45.4158
 30
0.0000
 11
313.0991
 21
46.5842
 31
0.0000
  0
LINE
  8
22
 10
313.0991
 20
46.5842
 30
0.0000
 11
312.4500
 21
45.4158
 31
0.0000
  0
LINE
  8
22
 10
312.4500
 20
45.4158
 30
0.0000
 11
312.4500
 21
46.5842
 31
0.0000
  0
LINE
  8
22
 10
311.8799
 20
45.4158
 30
0.0000
 11
311.8799
 21
46.5842
 31
0.0000
  0
LINE
  8
22
 10
311.8799
 20
46.5842
 30
0.0000
 11
311.5554
 21
46.5842
 31
0.0000
  0
ARC
  8
22
 10
311.5554
 20
46.2596
 30
0.0000
 40
0.3246
 50
90.0000
 51
180.0000
  0
LINE
  8
22
 10
311.2308
 20
46.2596
 30
0.0000
 11
311.2308
 21
45.7404
 31
0.0000
  0
ARC
  8
22
 10
311.5554
 20
45.7404
 30
0.0000
 40
0.3246
 50
180.0000
 51
270.0000
  0
LINE
  8
22
 10
311.5554
 20
45.4158
 30
0.0000
 11
311.8799
 21
45.4158
 31
0.0000
  0
LINE
  8
22
 10
325.9148
 20
46.0649
 30
0.0000
 11
325.7201
 21
46.0649
 31
0.0000
  0
LINE
  8
22
 10
325.7201
 20
46.0649
 30
0.0000
 11
325.7201
 21
45.4158
 31
0.0000
  0
LINE
  8
22
 10
325.7201
 20
45.4158
 30
0.0000
 11
326.1096
 21
45.4158
 31
0.0000
  0
ARC
  8
22
 10
326.1096
 20
45.6754
 30
0.0000
 40
0.2596
 50
270.0000
 51
0.0000
  0
LINE
  8
22
 10
326.3692
 20
45.6754
 30
0.0000
 11
326.3692
 21
46.3246
 31
0.0000
  0
ARC
  8
22
 10
326.1096
 20
46.3246
 30
0.0000
 40
0.2596
 50
0.0000
 51
90.0000
  0
LINE
  8
22
 10
326.1096
 20
46.5842
 30
0.0000
 11
325.7201
 21
46.5842
 31
0.0000
  0
LINE
  8
22
 10
325.1500
 20
45.4158
 30
0.0000
 11
325.1500
 21
46.5842
 31
0.0000
  0
LINE
  8
22
 10
325.1500
 20
46.5842
 30
0.0000
 11
324.5009
 21
45.4158
 31
0.0000
  0
LINE
  8
22
 10
324.5009
 20
45.4158
 30
0.0000
 11
324.5009
 21
46.5842
 31
0.0000
  0
LINE
  8
22
 10
323.9308
 20
45.4158
 30
0.0000
 11
323.9308
 21
46.5842
 31
0.0000
  0
LINE
  8
22
 10
323.9308
 20
46.5842
 30
0.0000
 11
323.6063
 21
46.5842
 31
0.0000
  0
ARC
  8
22
 10
323.6063
 20
46.2596
 30
0.0000
 40
0.3246
 50
90.0000
 51
180.0000
  0
LINE
  8
22
 10
323.2817
 20
46.2596
 30
0.0000
 11
323.2817
 21
45.7404
 31
0.0000
  0
ARC
  8
22
 10
323.6063
 20
45.7404
 30
0.0000
 40
0.3246
 50
180.0000
 51
270.0000
  0
LINE
  8
22
 10
323.6063
 20
45.4158
 30
0.0000
 11
323.9308
 21
45.4158
 31
0.0000
  0
LINE
  8
22
 10
313.7849
 20
48.3961
 30
0.0000
 11
313.7849
 21
48.5908
 31
0.0000
  0
LINE
  8
22
 10
313.7849
 20
48.5908
 30
0.0000
 11
313.1358
 21
48.5908
 31
0.0000
  0
LINE
  8
22
 10
313.1358
 20
48.5908
 30
0.0000
 11
313.1358
 21
48.2013
 31
0.0000
  0
ARC
  8
22
 10
313.3954
 20
48.2013
 30
0.0000
 40
0.2596
 50
180.0000
 51
270.0000
  0
LINE
  8
22
 10
313.3954
 20
47.9417
 30
0.0000
 11
314.0446
 21
47.9417
 31
0.0000
  0
ARC
  8
22
 10
314.0446
 20
48.2013
 30
0.0000
 40
0.2596
 50
270.0000
 51
359.9993
  0
LINE
  8
22
 10
314.3042
 20
48.2013
 30
0.0000
 11
314.3042
 21
48.5908
 31
0.0000
  0
LINE
  8
22
 10
313.1358
 20
49.1609
 30
0.0000
 11
314.3042
 21
49.1609
 31
0.0000
  0
LINE
  8
22
 10
314.3042
 20
49.1609
 30
0.0000
 11
313.1358
 21
49.8100
 31
0.0000
  0
LINE
  8
22
 10
313.1358
 20
49.8100
 30
0.0000
 11
314.3042
 21
49.8100
 31
0.0000
  0
LINE
  8
22
 10
313.1358
 20
50.3801
 30
0.0000
 11
314.3042
 21
50.3801
 31
0.0000
  0
LINE
  8
22
 10
314.3042
 20
50.3801
 30
0.0000
 11
314.3042
 21
50.7046
 31
0.0000
  0
ARC
  8
22
 10
313.9796
 20
50.7046
 30
0.0000
 40
0.3246
 50
0.0000
 51
90.0000
  0
LINE
  8
22
 10
313.9796
 20
51.0292
 30
0.0000
 11
313.4604
 21
51.0292
 31
0.0000
  0
ARC
  8
22
 10
313.4604
 20
50.7046
 30
0.0000
 40
0.3246
 50
90.0000
 51
180.0000
  0
LINE
  8
22
 10
313.1358
 20
50.7046
 30
0.0000
 11
313.1358
 21
50.3801
 31
0.0000
  0
LINE
  8
22
 10
326.3692
 20
44.0442
 30
0.0000
 11
325.9797
 21
42.8758
 31
0.0000
  0
LINE
  8
22
 10
325.9797
 20
42.8758
 30
0.0000
 11
325.5903
 21
44.0442
 31
0.0000
  0
LINE
  8
22
 10
325.1232
 20
42.8758
 30
0.0000
 11
325.1232
 21
44.0442
 31
0.0000
  0
LINE
  8
22
 10
325.1232
 20
44.0442
 30
0.0000
 11
324.7986
 21
44.0442
 31
0.0000
  0
ARC
  8
22
 10
324.7986
 20
43.7196
 30
0.0000
 40
0.3246
 50
90.0000
 51
180.0000
  0
LINE
  8
22
 10
324.4741
 20
43.7196
 30
0.0000
 11
324.4741
 21
43.2004
 31
0.0000
  0
ARC
  8
22
 10
324.7986
 20
43.2004
 30
0.0000
 40
0.3246
 50
180.0000
 51
270.0000
  0
LINE
  8
22
 10
324.7986
 20
42.8758
 30
0.0000
 11
325.1232
 21
42.8758
 31
0.0000
  0
LINE
  8
22
 10
323.9040
 20
42.8758
 30
0.0000
 11
323.9040
 21
44.0442
 31
0.0000
  0
LINE
  8
22
 10
323.9040
 20
44.0442
 30
0.0000
 11
323.5794
 21
44.0442
 31
0.0000
  0
ARC
  8
22
 10
323.5794
 20
43.7196
 30
0.0000
 40
0.3246
 50
90.0000
 51
180.0000
  0
LINE
  8
22
 10
323.2549
 20
43.7196
 30
0.0000
 11
323.2549
 21
43.2004
 31
0.0000
  0
ARC
  8
22
 10
323.5794
 20
43.2004
 30
0.0000
 40
0.3246
 50
180.0000
 51
270.0000
  0
LINE
  8
22
 10
323.5794
 20
42.8758
 30
0.0000
 11
323.9040
 21
42.8758
 31
0.0000
  0
LINE
  8
22
 10
314.3451
 20
44.0442
 30
0.0000
 11
313.9556
 21
42.8758
 31
0.0000
  0
LINE
  8
22
 10
313.9556
 20
42.8758
 30
0.0000
 11
313.5662
 21
44.0442
 31
0.0000
  0
LINE
  8
22
 10
313.0991
 20
42.8758
 30
0.0000
 11
313.0991
 21
44.0442
 31
0.0000
  0
LINE
  8
22
 10
313.0991
 20
44.0442
 30
0.0000
 11
312.7746
 21
44.0442
 31
0.0000
  0
ARC
  8
22
 10
312.7746
 20
43.7196
 30
0.0000
 40
0.3246
 50
90.0000
 51
180.0000
  0
LINE
  8
22
 10
312.4500
 20
43.7196
 30
0.0000
 11
312.4500
 21
43.2004
 31
0.0000
  0
ARC
  8
22
 10
312.7746
 20
43.2004
 30
0.0000
 40
0.3246
 50
180.0000
 51
270.0000
  0
LINE
  8
22
 10
312.7746
 20
42.8758
 30
0.0000
 11
313.0991
 21
42.8758
 31
0.0000
  0
LINE
  8
22
 10
311.8799
 20
42.8758
 30
0.0000
 11
311.8799
 21
44.0442
 31
0.0000
  0
LINE
  8
22
 10
311.8799
 20
44.0442
 30
0.0000
 11
311.5554
 21
44.0442
 31
0.0000
  0
ARC
  8
22
 10
311.5554
 20
43.7196
 30
0.0000
 40
0.3246
 50
90.0000
 51
180.0000
  0
LINE
  8
22
 10
311.2308
 20
43.7196
 30
0.0000
 11
311.2308
 21
43.2004
 31
0.0000
  0
ARC
  8
22
 10
311.5554
 20
43.2004
 30
0.0000
 40
0.3246
 50
180.0000
 51
270.0000
  0
LINE
  8
22
 10
311.5554
 20
42.8758
 30
0.0000
 11
311.8799
 21
42.8758
 31
0.0000
  0
LINE
  8
22
 10
326.3692
 20
22.5558
 30
0.0000
 11
326.3692
 21
23.7242
 31
0.0000
  0
LINE
  8
22
 10
326.3692
 20
23.7242
 30
0.0000
 11
326.0446
 21
23.7242
 31
0.0000
  0
ARC
  8
22
 10
326.0446
 20
23.3996
 30
0.0000
 40
0.3246
 50
90.0000
 51
270.0000
  0
LINE
  8
22
 10
326.0446
 20
23.0751
 30
0.0000
 11
326.3692
 21
23.0751
 31
0.0000
  0
ARC
  8
22
 10
324.3184
 20
23.1400
 30
0.0000
 40
0.9629
 50
359.9999
 51
25.9891
  0
ARC
  8
22
 10
324.9567
 20
23.4840
 30
0.0000
 40
0.2402
 50
18.9249
 51
90.0000
  0
ARC
  8
22
 10
324.9567
 20
23.4840
 30
0.0000
 40
0.2402
 50
90.0002
 51
161.0741
  0
ARC
  8
22
 10
325.5950
 20
23.1400
 30
0.0000
 40
0.9628
 50
154.0109
 51
180.0001
  0
ARC
  8
22
 10
324.3184
 20
23.1400
 30
0.0000
 40
0.9629
 50
334.0112
 51
360.0000
  0
ARC
  8
22
 10
324.9567
 20
22.7960
 30
0.0000
 40
0.2402
 50
270.0002
 51
341.0746
  0
ARC
  8
22
 10
325.5950
 20
23.1400
 30
0.0000
 40
0.9629
 50
180.0000
 51
205.9888
  0
ARC
  8
22
 10
324.9567
 20
22.7960
 30
0.0000
 40
0.2402
 50
198.9267
 51
270.0000
  0
LINE
  8
22
 10
325.2163
 20
22.8154
 30
0.0000
 11
324.6970
 21
23.4646
 31
0.0000
  0
LINE
  8
22
 10
324.1382
 20
23.5944
 30
0.0000
 11
324.1382
 21
23.7242
 31
0.0000
  0
LINE
  8
22
 10
324.1382
 20
23.7242
 30
0.0000
 11
323.4891
 21
23.7242
 31
0.0000
  0
LINE
  8
22
 10
323.4891
 20
23.7242
 30
0.0000
 11
323.8137
 21
22.5558
 31
0.0000
  0
LINE
  8
22
 10
326.3692
 20
25.0958
 30
0.0000
 11
326.3692
 21
26.2642
 31
0.0000
  0
LINE
  8
22
 10
326.3692
 20
26.2642
 30
0.0000
 11
326.0446
 21
26.2642
 31
0.0000
  0
ARC
  8
22
 10
326.0446
 20
25.9396
 30
0.0000
 40
0.3246
 50
90.0000
 51
270.0000
  0
LINE
  8
22
 10
326.0446
 20
25.6151
 30
0.0000
 11
326.3692
 21
25.6151
 31
0.0000
  0
ARC
  8
22
 10
324.3184
 20
25.6800
 30
0.0000
 40
0.9629
 50
359.9999
 51
25.9891
  0
ARC
  8
22
 10
324.9567
 20
26.0240
 30
0.0000
 40
0.2402
 50
18.9249
 51
90.0000
  0
ARC
  8
22
 10
324.9567
 20
26.0240
 30
0.0000
 40
0.2402
 50
90.0002
 51
161.0741
  0
ARC
  8
22
 10
325.5950
 20
25.6800
 30
0.0000
 40
0.9628
 50
154.0109
 51
180.0001
  0
ARC
  8
22
 10
324.3184
 20
25.6800
 30
0.0000
 40
0.9629
 50
334.0112
 51
360.0000
  0
ARC
  8
22
 10
324.9567
 20
25.3360
 30
0.0000
 40
0.2402
 50
270.0002
 51
341.0746
  0
ARC
  8
22
 10
325.5950
 20
25.6800
 30
0.0000
 40
0.9629
 50
180.0000
 51
205.9888
  0
ARC
  8
22
 10
324.9567
 20
25.3360
 30
0.0000
 40
0.2402
 50
198.9267
 51
270.0000
  0
LINE
  8
22
 10
325.2163
 20
25.3554
 30
0.0000
 11
324.6970
 21
26.0046
 31
0.0000
  0
LINE
  8
22
 10
324.1382
 20
25.7449
 30
0.0000
 11
323.7488
 21
25.7449
 31
0.0000
  0
ARC
  8
22
 10
323.7488
 20
25.4853
 30
0.0000
 40
0.2596
 50
90.0000
 51
180.0000
  0
LINE
  8
22
 10
323.4891
 20
25.4853
 30
0.0000
 11
323.4891
 21
25.4204
 31
0.0000
  0
ARC
  8
22
 10
323.8137
 20
25.4204
 30
0.0000
 40
0.3246
 50
180.0000
 51
0.0000
  0
LINE
  8
22
 10
324.1382
 20
25.4204
 30
0.0000
 11
324.1382
 21
25.7449
 31
0.0000
  0
ARC
  8
22
 10
323.6190
 20
25.7449
 30
0.0000
 40
0.5193
 50
0.0000
 51
90.0000
  0
LINE
  8
22
 10
326.3692
 20
27.6358
 30
0.0000
 11
326.3692
 21
28.8042
 31
0.0000
  0
LINE
  8
22
 10
326.3692
 20
28.8042
 30
0.0000
 11
326.0446
 21
28.8042
 31
0.0000
  0
ARC
  8
22
 10
326.0446
 20
28.4796
 30
0.0000
 40
0.3246
 50
90.0000
 51
270.0000
  0
LINE
  8
22
 10
326.0446
 20
28.1551
 30
0.0000
 11
326.3692
 21
28.1551
 31
0.0000
  0
ARC
  8
22
 10
324.3184
 20
28.2200
 30
0.0000
 40
0.9629
 50
359.9999
 51
25.9891
  0
ARC
  8
22
 10
324.9567
 20
28.5640
 30
0.0000
 40
0.2402
 50
18.9249
 51
90.0000
  0
ARC
  8
22
 10
324.9567
 20
28.5640
 30
0.0000
 40
0.2402
 50
90.0002
 51
161.0741
  0
ARC
  8
22
 10
325.5950
 20
28.2200
 30
0.0000
 40
0.9628
 50
154.0109
 51
180.0001
  0
ARC
  8
22
 10
324.3184
 20
28.2200
 30
0.0000
 40
0.9629
 50
334.0112
 51
360.0000
  0
ARC
  8
22
 10
324.9567
 20
27.8760
 30
0.0000
 40
0.2402
 50
270.0002
 51
341.0746
  0
ARC
  8
22
 10
325.5950
 20
28.2200
 30
0.0000
 40
0.9629
 50
180.0000
 51
205.9888
  0
ARC
  8
22
 10
324.9567
 20
27.8760
 30
0.0000
 40
0.2402
 50
198.9267
 51
270.0000
  0
LINE
  8
22
 10
325.2163
 20
27.8954
 30
0.0000
 11
324.6970
 21
28.5446
 31
0.0000
  0
LINE
  8
22
 10
324.1382
 20
27.6358
 30
0.0000
 11
323.7488
 21
27.6358
 31
0.0000
  0
ARC
  8
22
 10
323.7488
 20
27.8954
 30
0.0000
 40
0.2596
 50
180.0000
 51
270.0000
  0
LINE
  8
22
 10
323.4891
 20
27.8954
 30
0.0000
 11
323.4891
 21
28.0253
 31
0.0000
  0
ARC
  8
22
 10
323.7488
 20
28.0253
 30
0.0000
 40
0.2596
 50
90.0000
 51
180.0000
  0
LINE
  8
22
 10
323.7488
 20
28.2849
 30
0.0000
 11
324.1382
 21
28.2849
 31
0.0000
  0
LINE
  8
22
 10
324.1382
 20
28.2849
 30
0.0000
 11
324.1382
 21
28.8042
 31
0.0000
  0
LINE
  8
22
 10
324.1382
 20
28.8042
 30
0.0000
 11
323.4891
 21
28.8042
 31
0.0000
  0
LINE
  8
22
 10
326.3692
 20
30.1758
 30
0.0000
 11
326.3692
 21
31.3442
 31
0.0000
  0
LINE
  8
22
 10
326.3692
 20
31.3442
 30
0.0000
 11
326.0446
 21
31.3442
 31
0.0000
  0
ARC
  8
22
 10
326.0446
 20
31.0196
 30
0.0000
 40
0.3246
 50
90.0000
 51
270.0000
  0
LINE
  8
22
 10
326.0446
 20
30.6951
 30
0.0000
 11
326.3692
 21
30.6951
 31
0.0000
  0
ARC
  8
22
 10
324.3184
 20
30.7600
 30
0.0000
 40
0.9629
 50
359.9999
 51
25.9891
  0
ARC
  8
22
 10
324.9567
 20
31.1040
 30
0.0000
 40
0.2402
 50
18.9249
 51
90.0000
  0
ARC
  8
22
 10
324.9567
 20
31.1040
 30
0.0000
 40
0.2402
 50
90.0002
 51
161.0741
  0
ARC
  8
22
 10
325.5950
 20
30.7600
 30
0.0000
 40
0.9628
 50
154.0109
 51
180.0001
  0
ARC
  8
22
 10
324.3184
 20
30.7600
 30
0.0000
 40
0.9629
 50
334.0112
 51
360.0000
  0
ARC
  8
22
 10
324.9567
 20
30.4160
 30
0.0000
 40
0.2402
 50
270.0002
 51
341.0746
  0
ARC
  8
22
 10
325.5950
 20
30.7600
 30
0.0000
 40
0.9629
 50
180.0000
 51
205.9888
  0
ARC
  8
22
 10
324.9567
 20
30.4160
 30
0.0000
 40
0.2402
 50
198.9267
 51
270.0000
  0
LINE
  8
22
 10
325.2163
 20
30.4354
 30
0.0000
 11
324.6970
 21
31.0846
 31
0.0000
  0
LINE
  8
22
 10
323.8786
 20
31.3442
 30
0.0000
 11
324.1382
 21
30.4354
 31
0.0000
  0
LINE
  8
22
 10
324.1382
 20
30.4354
 30
0.0000
 11
323.4891
 21
30.4354
 31
0.0000
  0
LINE
  8
22
 10
323.6839
 20
30.6951
 30
0.0000
 11
323.6839
 21
30.1758
 31
0.0000
  0
LINE
  8
22
 10
326.3692
 20
32.7158
 30
0.0000
 11
326.3692
 21
33.8842
 31
0.0000
  0
LINE
  8
22
 10
326.3692
 20
33.8842
 30
0.0000
 11
326.0446
 21
33.8842
 31
0.0000
  0
ARC
  8
22
 10
326.0446
 20
33.5596
 30
0.0000
 40
0.3246
 50
90.0000
 51
270.0000
  0
LINE
  8
22
 10
326.0446
 20
33.2351
 30
0.0000
 11
326.3692
 21
33.2351
 31
0.0000
  0
ARC
  8
22
 10
324.3184
 20
33.3000
 30
0.0000
 40
0.9629
 50
359.9999
 51
25.9891
  0
ARC
  8
22
 10
324.9567
 20
33.6440
 30
0.0000
 40
0.2402
 50
18.9249
 51
90.0000
  0
ARC
  8
22
 10
324.9567
 20
33.6440
 30
0.0000
 40
0.2402
 50
90.0002
 51
161.0741
  0
ARC
  8
22
 10
325.5950
 20
33.3000
 30
0.0000
 40
0.9628
 50
154.0109
 51
180.0001
  0
ARC
  8
22
 10
324.3184
 20
33.3000
 30
0.0000
 40
0.9629
 50
334.0112
 51
360.0000
  0
ARC
  8
22
 10
324.9567
 20
32.9560
 30
0.0000
 40
0.2402
 50
270.0002
 51
341.0746
  0
ARC
  8
22
 10
325.5950
 20
33.3000
 30
0.0000
 40
0.9629
 50
180.0000
 51
205.9888
  0
ARC
  8
22
 10
324.9567
 20
32.9560
 30
0.0000
 40
0.2402
 50
198.9267
 51
270.0000
  0
LINE
  8
22
 10
325.2163
 20
32.9754
 30
0.0000
 11
324.6970
 21
33.6246
 31
0.0000
  0
LINE
  8
22
 10
324.1382
 20
32.7158
 30
0.0000
 11
323.8137
 21
32.7158
 31
0.0000
  0
ARC
  8
22
 10
323.8137
 20
33.0404
 30
0.0000
 40
0.3246
 50
90.0000
 51
270.0000
  0
LINE
  8
22
 10
324.1382
 20
33.8842
 30
0.0000
 11
323.7488
 21
33.8842
 31
0.0000
  0
ARC
  8
22
 10
323.7488
 20
33.6246
 30
0.0000
 40
0.2596
 50
90.0000
 51
270.0000
  0
LINE
  8
22
 10
323.7488
 20
33.3649
 30
0.0000
 11
324.0084
 21
33.3649
 31
0.0000
  0
LINE
  8
22
 10
326.3692
 20
35.2558
 30
0.0000
 11
326.3692
 21
36.4242
 31
0.0000
  0
LINE
  8
22
 10
326.3692
 20
36.4242
 30
0.0000
 11
326.0446
 21
36.4242
 31
0.0000
  0
ARC
  8
22
 10
326.0446
 20
36.0996
 30
0.0000
 40
0.3246
 50
90.0000
 51
270.0000
  0
LINE
  8
22
 10
326.0446
 20
35.7751
 30
0.0000
 11
326.3692
 21
35.7751
 31
0.0000
  0
ARC
  8
22
 10
324.3184
 20
35.8400
 30
0.0000
 40
0.9629
 50
359.9999
 51
25.9891
  0
ARC
  8
22
 10
324.9567
 20
36.1840
 30
0.0000
 40
0.2402
 50
18.9249
 51
90.0000
  0
ARC
  8
22
 10
324.9567
 20
36.1840
 30
0.0000
 40
0.2402
 50
90.0002
 51
161.0741
  0
ARC
  8
22
 10
325.5950
 20
35.8400
 30
0.0000
 40
0.9628
 50
154.0109
 51
180.0001
  0
ARC
  8
22
 10
324.3184
 20
35.8400
 30
0.0000
 40
0.9629
 50
334.0112
 51
360.0000
  0
ARC
  8
22
 10
324.9567
 20
35.4960
 30
0.0000
 40
0.2402
 50
270.0002
 51
341.0746
  0
ARC
  8
22
 10
325.5950
 20
35.8400
 30
0.0000
 40
0.9629
 50
180.0000
 51
205.9888
  0
ARC
  8
22
 10
324.9567
 20
35.4960
 30
0.0000
 40
0.2402
 50
198.9267
 51
270.0000
  0
LINE
  8
22
 10
325.2163
 20
35.5154
 30
0.0000
 11
324.6970
 21
36.1646
 31
0.0000
  0
ARC
  8
22
 10
323.7812
 20
36.1321
 30
0.0000
 40
0.2921
 50
90.0000
 51
180.0000
  0
ARC
  8
22
 10
323.7812
 20
36.0489
 30
0.0000
 40
0.3753
 50
17.9444
 51
90.0001
  0
ARC
  8
22
 10
323.8029
 20
36.1321
 30
0.0000
 40
0.3137
 50
180.0002
 51
226.3962
  0
LINE
  8
22
 10
323.5865
 20
35.9049
 30
0.0000
 11
324.1382
 21
35.2558
 31
0.0000
  0
LINE
  8
22
 10
324.1382
 20
35.2558
 30
0.0000
 11
323.4891
 21
35.2558
 31
0.0000
  0
LINE
  8
22
 10
326.3692
 20
37.7958
 30
0.0000
 11
326.3692
 21
38.9642
 31
0.0000
  0
LINE
  8
22
 10
326.3692
 20
38.9642
 30
0.0000
 11
326.0446
 21
38.9642
 31
0.0000
  0
ARC
  8
22
 10
326.0446
 20
38.6396
 30
0.0000
 40
0.3246
 50
90.0000
 51
270.0000
  0
LINE
  8
22
 10
326.0446
 20
38.3151
 30
0.0000
 11
326.3692
 21
38.3151
 31
0.0000
  0
ARC
  8
22
 10
324.3184
 20
38.3800
 30
0.0000
 40
0.9629
 50
359.9999
 51
25.9891
  0
ARC
  8
22
 10
324.9567
 20
38.7240
 30
0.0000
 40
0.2402
 50
18.9249
 51
90.0000
  0
ARC
  8
22
 10
324.9567
 20
38.7240
 30
0.0000
 40
0.2402
 50
90.0002
 51
161.0741
  0
ARC
  8
22
 10
325.5950
 20
38.3800
 30
0.0000
 40
0.9628
 50
154.0109
 51
180.0001
  0
ARC
  8
22
 10
324.3184
 20
38.3800
 30
0.0000
 40
0.9629
 50
334.0112
 51
360.0000
  0
ARC
  8
22
 10
324.9567
 20
38.0360
 30
0.0000
 40
0.2402
 50
270.0002
 51
341.0746
  0
ARC
  8
22
 10
325.5950
 20
38.3800
 30
0.0000
 40
0.9629
 50
180.0000
 51
205.9888
  0
ARC
  8
22
 10
324.9567
 20
38.0360
 30
0.0000
 40
0.2402
 50
198.9267
 51
270.0000
  0
LINE
  8
22
 10
325.2163
 20
38.0554
 30
0.0000
 11
324.6970
 21
38.7046
 31
0.0000
  0
LINE
  8
22
 10
324.1382
 20
38.7046
 30
0.0000
 11
323.8137
 21
38.9642
 31
0.0000
  0
LINE
  8
22
 10
323.8137
 20
38.9642
 30
0.0000
 11
323.8137
 21
37.7958
 31
0.0000
  0
LINE
  8
22
 10
324.1382
 20
37.7958
 30
0.0000
 11
323.4891
 21
37.7958
 31
0.0000
  0
LINE
  8
22
 10
326.3692
 20
40.3358
 30
0.0000
 11
326.3692
 21
41.5042
 31
0.0000
  0
LINE
  8
22
 10
326.3692
 20
41.5042
 30
0.0000
 11
326.0446
 21
41.5042
 31
0.0000
  0
ARC
  8
22
 10
326.0446
 20
41.1796
 30
0.0000
 40
0.3246
 50
90.0000
 51
270.0000
  0
LINE
  8
22
 10
326.0446
 20
40.8551
 30
0.0000
 11
326.3692
 21
40.8551
 31
0.0000
  0
ARC
  8
22
 10
324.3184
 20
40.9200
 30
0.0000
 40
0.9629
 50
359.9999
 51
25.9891
  0
ARC
  8
22
 10
324.9567
 20
41.2640
 30
0.0000
 40
0.2402
 50
18.9249
 51
90.0000
  0
ARC
  8
22
 10
324.9567
 20
41.2640
 30
0.0000
 40
0.2402
 50
90.0002
 51
161.0741
  0
ARC
  8
22
 10
325.5950
 20
40.9200
 30
0.0000
 40
0.9628
 50
154.0109
 51
180.0001
  0
ARC
  8
22
 10
324.3184
 20
40.9200
 30
0.0000
 40
0.9629
 50
334.0112
 51
360.0000
  0
ARC
  8
22
 10
324.9567
 20
40.5760
 30
0.0000
 40
0.2402
 50
270.0002
 51
341.0746
  0
ARC
  8
22
 10
325.5950
 20
40.9200
 30
0.0000
 40
0.9629
 50
180.0000
 51
205.9888
  0
ARC
  8
22
 10
324.9567
 20
40.5760
 30
0.0000
 40
0.2402
 50
198.9267
 51
270.0000
  0
LINE
  8
22
 10
325.2163
 20
40.5954
 30
0.0000
 11
324.6970
 21
41.2446
 31
0.0000
  0
ARC
  8
22
 10
323.1754
 20
40.9200
 30
0.0000
 40
0.9629
 50
359.9999
 51
25.9891
  0
ARC
  8
22
 10
323.8137
 20
41.2640
 30
0.0000
 40
0.2402
 50
18.9249
 51
90.0000
  0
ARC
  8
22
 10
323.8137
 20
41.2640
 30
0.0000
 40
0.2402
 50
90.0002
 51
161.0741
  0
ARC
  8
22
 10
324.4520
 20
40.9200
 30
0.0000
 40
0.9628
 50
154.0109
 51
180.0001
  0
ARC
  8
22
 10
323.1754
 20
40.9200
 30
0.0000
 40
0.9629
 50
334.0112
 51
360.0000
  0
ARC
  8
22
 10
323.8137
 20
40.5760
 30
0.0000
 40
0.2402
 50
270.0002
 51
341.0746
  0
ARC
  8
22
 10
324.4520
 20
40.9200
 30
0.0000
 40
0.9629
 50
180.0000
 51
205.9888
  0
ARC
  8
22
 10
323.8137
 20
40.5760
 30
0.0000
 40
0.2402
 50
198.9267
 51
270.0000
  0
LINE
  8
22
 10
324.0733
 20
40.5954
 30
0.0000
 11
323.5540
 21
41.2446
 31
0.0000
  0
ARC
  8
22
 10
318.4754
 20
48.3805
 30
0.0000
 40
0.2596
 50
90.0000
 51
180.0000
  0
ARC
  8
22
 10
318.7643
 20
48.3805
 30
0.0000
 40
0.5485
 50
180.0001
 51
225.2390
  0
ARC
  8
22
 10
319.1246
 20
48.2832
 30
0.0000
 40
0.2596
 50
270.0000
 51
0.0007
  0
ARC
  8
22
 10
318.8974
 20
48.2832
 30
0.0000
 40
0.4868
 50
0.0007
 51
36.8699
  0
ARC
  8
22
 10
319.1246
 20
48.2872
 30
0.0000
 40
0.2637
 50
210.5098
 51
270.0002
  0
ARC
  8
22
 10
318.4754
 20
48.3765
 30
0.0000
 40
0.2637
 50
30.5101
 51
89.9999
  0
LINE
  8
22
 10
318.7026
 20
48.5104
 30
0.0000
 11
318.8974
 21
48.1534
 31
0.0000
  0
LINE
  8
22
 10
318.2158
 20
49.1341
 30
0.0000
 11
319.3842
 21
49.1341
 31
0.0000
  0
LINE
  8
22
 10
319.3842
 20
49.1341
 30
0.0000
 11
319.3842
 21
49.4586
 31
0.0000
  0
ARC
  8
22
 10
319.0596
 20
49.4586
 30
0.0000
 40
0.3246
 50
0.0000
 51
90.0000
  0
LINE
  8
22
 10
319.0596
 20
49.7832
 30
0.0000
 11
318.5404
 21
49.7832
 31
0.0000
  0
ARC
  8
22
 10
318.5404
 20
49.4586
 30
0.0000
 40
0.3246
 50
90.0000
 51
180.0000
  0
LINE
  8
22
 10
318.2158
 20
49.4586
 30
0.0000
 11
318.2158
 21
49.1341
 31
0.0000
  0
LINE
  8
22
 10
318.2158
 20
50.2503
 30
0.0000
 11
319.3842
 21
50.6397
 31
0.0000
  0
LINE
  8
22
 10
319.3842
 20
50.6397
 30
0.0000
 11
318.2158
 21
51.0292
 31
0.0000
  0
LINE
  8
22
 10
318.5079
 20
50.9318
 30
0.0000
 11
318.5079
 21
50.3476
 31
0.0000
  0
ARC
  8
22
 10
321.0154
 20
48.8016
 30
0.0000
 40
0.2596
 50
90.0000
 51
180.0000
  0
ARC
  8
22
 10
321.3043
 20
48.8016
 30
0.0000
 40
0.5485
 50
180.0001
 51
225.2390
  0
ARC
  8
22
 10
321.6646
 20
48.7043
 30
0.0000
 40
0.2596
 50
270.0000
 51
0.0007
  0
ARC
  8
22
 10
321.4374
 20
48.7043
 30
0.0000
 40
0.4868
 50
0.0007
 51
36.8699
  0
ARC
  8
22
 10
321.6646
 20
48.7083
 30
0.0000
 40
0.2637
 50
210.5098
 51
270.0002
  0
ARC
  8
22
 10
321.0154
 20
48.7976
 30
0.0000
 40
0.2637
 50
30.5101
 51
89.9999
  0
LINE
  8
22
 10
321.2426
 20
48.9314
 30
0.0000
 11
321.4374
 21
48.5744
 31
0.0000
  0
LINE
  8
22
 10
320.7558
 20
50.0330
 30
0.0000
 11
320.7558
 21
49.7734
 31
0.0000
  0
ARC
  8
22
 10
321.0154
 20
49.7734
 30
0.0000
 40
0.2596
 50
180.0000
 51
270.0000
  0
LINE
  8
22
 10
321.0154
 20
49.5137
 30
0.0000
 11
321.6646
 21
49.5137
 31
0.0000
  0
ARC
  8
22
 10
321.6646
 20
49.7734
 30
0.0000
 40
0.2596
 50
270.0000
 51
359.9993
  0
LINE
  8
22
 10
321.9242
 20
49.7734
 30
0.0000
 11
321.9242
 21
50.0330
 31
0.0000
  0
LINE
  8
22
 10
321.9242
 20
50.5099
 30
0.0000
 11
320.7558
 21
50.5099
 31
0.0000
  0
LINE
  8
22
 10
320.7558
 20
50.5099
 30
0.0000
 11
320.7558
 21
51.0292
 31
0.0000
  0
LINE
  8
22
 10
324.6674
 20
48.4666
 30
0.0000
 11
324.6674
 21
51.0800
 31
0.0000
  0
LINE
  8
22
 10
324.4642
 20
48.6472
 30
0.0000
 11
323.2958
 21
48.6472
 31
0.0000
  0
LINE
  8
22
 10
323.2958
 20
48.5174
 30
0.0000
 11
323.2958
 21
48.7771
 31
0.0000
  0
LINE
  8
22
 10
324.4642
 20
48.5174
 30
0.0000
 11
324.4642
 21
48.7771
 31
0.0000
  0
LINE
  8
22
 10
323.2958
 20
49.2752
 30
0.0000
 11
324.4642
 21
49.2752
 31
0.0000
  0
LINE
  8
22
 10
324.4642
 20
49.2752
 30
0.0000
 11
323.2958
 21
49.9243
 31
0.0000
  0
LINE
  8
22
 10
323.2958
 20
49.9243
 30
0.0000
 11
324.4642
 21
49.9243
 31
0.0000
  0
LINE
  8
22
 10
323.2958
 20
50.7046
 30
0.0000
 11
324.4642
 21
50.7046
 31
0.0000
  0
LINE
  8
22
 10
324.4642
 20
50.3801
 30
0.0000
 11
324.4642
 21
51.0292
 31
0.0000
  0
LINE
  8
22
 10
319.2826
 20
30.8342
 30
0.0000
 11
320.8320
 21
30.8342
 31
0.0000
  0
LINE
  8
22
 10
320.8320
 20
30.8342
 30
0.0000
 11
320.8320
 21
31.2646
 31
0.0000
  0
ARC
  8
22
 10
320.4016
 20
31.2646
 30
0.0000
 40
0.4304
 50
0.0000
 51
180.0000
  0
LINE
  8
22
 10
319.9712
 20
31.2646
 30
0.0000
 11
319.9712
 21
30.8342
 31
0.0000
  0
LINE
  8
22
 10
319.2826
 20
32.9364
 30
0.0000
 11
319.2826
 21
32.5921
 31
0.0000
  0
ARC
  8
22
 10
319.6269
 20
32.5921
 30
0.0000
 40
0.3443
 50
180.0000
 51
270.0000
  0
LINE
  8
22
 10
319.6269
 20
32.2478
 30
0.0000
 11
320.4877
 21
32.2478
 31
0.0000
  0
ARC
  8
22
 10
320.4877
 20
32.5921
 30
0.0000
 40
0.3443
 50
270.0000
 51
359.9995
  0
LINE
  8
22
 10
320.8320
 20
32.5921
 30
0.0000
 11
320.8320
 21
32.9364
 31
0.0000
  0
LINE
  8
22
 10
319.2826
 20
33.5427
 30
0.0000
 11
320.8320
 21
33.5427
 31
0.0000
  0
LINE
  8
22
 10
320.8320
 20
33.5427
 30
0.0000
 11
320.8320
 21
34.2313
 31
0.0000
  0
LINE
  8
22
 10
320.1434
 20
33.5427
 30
0.0000
 11
320.1434
 21
34.2313
 31
0.0000
  0
ARC
  8
22
 10
319.7130
 20
35.2091
 30
0.0000
 40
0.4304
 50
270.0000
 51
90.0000
  0
ARC
  8
22
 10
319.7130
 20
35.2091
 30
0.0000
 40
0.4304
 50
90.0000
 51
270.0000
  0
ARC
  8
22
 10
320.4877
 20
35.2091
 30
0.0000
 40
0.3443
 50
270.0000
 51
90.0000
  0
ARC
  8
22
 10
320.4877
 20
35.2091
 30
0.0000
 40
0.3443
 50
90.0000
 51
270.0000
  0
LINE
  8
22
 10
319.2826
 20
36.2653
 30
0.0000
 11
319.2826
 21
36.7818
 31
0.0000
  0
ARC
  8
22
 10
319.6269
 20
36.7818
 30
0.0000
 40
0.3443
 50
89.9995
 51
180.0000
  0
LINE
  8
22
 10
319.6269
 20
37.1261
 30
0.0000
 11
319.7991
 21
37.1261
 31
0.0000
  0
ARC
  8
22
 10
319.7991
 20
36.7818
 30
0.0000
 40
0.3443
 50
0.0000
 51
90.0000
  0
LINE
  8
22
 10
320.1434
 20
36.7818
 30
0.0000
 11
320.1434
 21
36.2653
 31
0.0000
  0
LINE
  8
22
 10
320.1434
 20
36.2653
 30
0.0000
 11
320.8320
 21
36.2653
 31
0.0000
  0
LINE
  8
22
 10
320.8320
 20
36.2653
 30
0.0000
 11
320.8320
 21
37.1261
 31
0.0000
  0
LINE
  8
22
 10
320.6598
 20
37.7519
 30
0.0000
 11
320.8320
 21
37.7519
 31
0.0000
  0
LINE
  8
22
 10
320.8320
 20
37.7519
 30
0.0000
 11
320.8320
 21
38.6127
 31
0.0000
  0
LINE
  8
22
 10
320.8320
 20
38.6127
 30
0.0000
 11
319.2826
 21
38.1823
 31
0.0000
  0
LINE
  8
22
 10
319.2826
 20
39.2385
 30
0.0000
 11
319.2826
 21
39.7549
 31
0.0000
  0
ARC
  8
22
 10
319.6269
 20
39.7549
 30
0.0000
 40
0.3443
 50
89.9995
 51
180.0000
  0
LINE
  8
22
 10
319.6269
 20
40.0993
 30
0.0000
 11
319.7991
 21
40.0993
 31
0.0000
  0
ARC
  8
22
 10
319.7991
 20
39.7549
 30
0.0000
 40
0.3443
 50
0.0000
 51
90.0000
  0
LINE
  8
22
 10
320.1434
 20
39.7549
 30
0.0000
 11
320.1434
 21
39.2385
 31
0.0000
  0
LINE
  8
22
 10
320.1434
 20
39.2385
 30
0.0000
 11
320.8320
 21
39.2385
 31
0.0000
  0
LINE
  8
22
 10
320.8320
 20
39.2385
 30
0.0000
 11
320.8320
 21
40.0993
 31
0.0000
  0
LINE
  8
22
 10
320.8320
 20
41.6510
 30
0.0000
 11
319.2826
 21
41.6510
 31
0.0000
  0
LINE
  8
22
 10
319.2826
 20
41.4788
 30
0.0000
 11
319.2826
 21
41.8231
 31
0.0000
  0
LINE
  8
22
 10
320.8320
 20
41.4788
 30
0.0000
 11
320.8320
 21
41.8231
 31
0.0000
  0
ARC
  8
22
 10
321.0042
 20
42.5925
 30
0.0000
 40
0.2582
 50
270.0000
 51
90.0000
  0
ARC
  8
22
 10
321.0042
 20
42.5387
 30
0.0000
 40
0.3120
 50
90.0001
 51
133.6030
  0
LINE
  8
22
 10
320.7890
 20
42.7646
 30
0.0000
 11
320.2295
 21
42.3342
 31
0.0000
  0
LINE
  8
22
 10
320.2295
 20
42.3342
 30
0.0000
 11
320.2295
 21
42.8507
 31
0.0000
  0
LINE
  8
22
 10
319.2826
 20
44.0858
 30
0.0000
 11
319.2826
 21
43.7415
 31
0.0000
  0
ARC
  8
22
 10
319.6269
 20
43.7415
 30
0.0000
 40
0.3443
 50
180.0000
 51
270.0000
  0
LINE
  8
22
 10
319.6269
 20
43.3971
 30
0.0000
 11
320.4877
 21
43.3971
 31
0.0000
  0
ARC
  8
22
 10
320.4877
 20
43.7415
 30
0.0000
 40
0.3443
 50
270.0000
 51
359.9995
  0
LINE
  8
22
 10
320.8320
 20
43.7415
 30
0.0000
 11
320.8320
 21
44.0858
 31
0.0000
  0
LINE
  8
22
 10
318.3174
 20
30.1223
 30
0.0000
 11
316.7680
 21
30.1223
 31
0.0000
  0
LINE
  8
22
 10
316.7680
 20
29.9501
 30
0.0000
 11
316.7680
 21
30.2944
 31
0.0000
  0
LINE
  8
22
 10
318.3174
 20
29.9501
 30
0.0000
 11
318.3174
 21
30.2944
 31
0.0000
  0
LINE
  8
22
 10
316.5958
 20
30.8186
 30
0.0000
 11
318.4896
 21
31.5072
 31
0.0000
  0
LINE
  8
22
 10
317.1984
 20
32.0704
 30
0.0000
 11
317.8870
 21
32.0704
 31
0.0000
  0
ARC
  8
22
 10
317.8870
 20
32.5008
 30
0.0000
 40
0.4304
 50
270.0000
 51
90.0000
  0
LINE
  8
22
 10
317.8870
 20
32.9312
 30
0.0000
 11
317.1984
 21
32.9312
 31
0.0000
  0
ARC
  8
22
 10
317.1984
 20
32.5008
 30
0.0000
 40
0.4304
 50
90.0000
 51
270.0000
  0
LINE
  8
22
 10
317.3705
 20
33.5700
 30
0.0000
 11
317.3705
 21
34.6030
 31
0.0000
  0
LINE
  8
22
 10
316.7680
 20
35.9827
 30
0.0000
 11
316.7680
 21
35.2941
 31
0.0000
  0
LINE
  8
22
 10
316.7680
 20
35.2941
 30
0.0000
 11
318.3174
 21
35.2941
 31
0.0000
  0
LINE
  8
22
 10
318.3174
 20
35.2941
 30
0.0000
 11
318.3174
 21
35.9827
 31
0.0000
  0
LINE
  8
22
 10
317.6288
 20
35.2941
 30
0.0000
 11
317.6288
 21
35.8105
 31
0.0000
  0
LINE
  8
22
 10
316.7680
 20
36.4676
 30
0.0000
 11
317.8009
 21
37.1562
 31
0.0000
  0
LINE
  8
22
 10
317.8009
 20
36.4676
 30
0.0000
 11
316.7680
 21
37.1562
 31
0.0000
  0
LINE
  8
22
 10
316.2515
 20
37.7628
 30
0.0000
 11
317.8009
 21
37.7628
 31
0.0000
  0
LINE
  8
22
 10
317.8009
 20
37.7628
 30
0.0000
 11
317.8009
 21
38.1932
 31
0.0000
  0
ARC
  8
22
 10
317.5427
 20
38.1932
 30
0.0000
 40
0.2582
 50
0.0000
 51
90.0000
  0
LINE
  8
22
 10
317.5427
 20
38.4514
 30
0.0000
 11
317.0262
 21
38.4514
 31
0.0000
  0
ARC
  8
22
 10
317.0262
 20
38.1932
 30
0.0000
 40
0.2582
 50
90.0000
 51
180.0000
  0
LINE
  8
22
 10
316.7680
 20
38.1932
 30
0.0000
 11
316.7680
 21
37.7628
 31
0.0000
  0
LINE
  8
22
 10
317.3705
 20
39.7261
 30
0.0000
 11
317.3705
 21
39.3388
 31
0.0000
  0
ARC
  8
22
 10
317.0693
 20
39.3388
 30
0.0000
 40
0.3013
 50
180.0000
 51
0.0000
  0
LINE
  8
22
 10
316.7680
 20
39.3388
 30
0.0000
 11
316.7680
 21
39.7261
 31
0.0000
  0
LINE
  8
22
 10
316.7680
 20
39.7261
 30
0.0000
 11
317.5427
 21
39.7261
 31
0.0000
  0
ARC
  8
22
 10
317.5427
 20
39.4679
 30
0.0000
 40
0.2582
 50
0.0000
 51
90.0000
  0
LINE
  8
22
 10
317.8009
 20
39.4679
 30
0.0000
 11
317.8009
 21
39.1236
 31
0.0000
  0
LINE
  8
22
 10
316.7680
 20
40.4318
 30
0.0000
 11
317.8009
 21
40.4318
 31
0.0000
  0
LINE
  8
22
 10
317.8009
 20
40.4318
 30
0.0000
 11
317.8009
 21
40.8622
 31
0.0000
  0
ARC
  8
22
 10
317.5427
 20
40.8622
 30
0.0000
 40
0.2582
 50
0.0000
 51
90.0000
  0
LINE
  8
22
 10
317.5427
 20
41.1204
 30
0.0000
 11
316.7680
 21
41.1204
 31
0.0000
  0
LINE
  8
22
 10
318.3174
 20
42.4515
 30
0.0000
 11
316.7680
 21
42.4515
 31
0.0000
  0
LINE
  8
22
 10
316.7680
 20
42.4515
 30
0.0000
 11
316.7680
 21
42.0211
 31
0.0000
  0
ARC
  8
22
 10
317.0262
 20
42.0211
 30
0.0000
 40
0.2582
 50
180.0000
 51
270.0000
  0
LINE
  8
22
 10
317.0262
 20
41.7629
 30
0.0000
 11
317.5427
 21
41.7629
 31
0.0000
  0
ARC
  8
22
 10
317.5427
 20
42.0211
 30
0.0000
 40
0.2582
 50
270.0000
 51
0.0000
  0
LINE
  8
22
 10
317.8009
 20
42.0211
 30
0.0000
 11
317.8009
 21
42.4515
 31
0.0000
  0
LINE
  8
22
 10
316.7680
 20
43.7963
 30
0.0000
 11
316.7680
 21
43.3659
 31
0.0000
  0
ARC
  8
22
 10
317.0262
 20
43.3659
 30
0.0000
 40
0.2582
 50
180.0000
 51
270.0000
  0
LINE
  8
22
 10
317.0262
 20
43.1076
 30
0.0000
 11
317.4566
 21
43.1076
 31
0.0000
  0
ARC
  8
22
 10
317.4566
 20
43.4519
 30
0.0000
 40
0.3443
 50
270.0000
 51
90.0000
  0
LINE
  8
22
 10
317.4566
 20
43.7963
 30
0.0000
 11
317.2845
 21
43.7963
 31
0.0000
  0
LINE
  8
22
 10
317.2845
 20
43.7963
 30
0.0000
 11
317.2845
 21
43.1076
 31
0.0000
  0
LINE
  8
22
 10
316.7680
 20
44.4534
 30
0.0000
 11
317.8009
 21
44.4534
 31
0.0000
  0
LINE
  8
22
 10
317.8009
 20
44.4534
 30
0.0000
 11
317.8009
 21
44.9699
 31
0.0000
  0
LINE
  8
22
 10
317.8009
 20
44.9699
 30
0.0000
 11
317.6288
 21
44.9699
 31
0.0000
  0
LINE
  8
22
 10
334.8000
 20
89.6700
 30
0.0000
 11
329.6000
 21
89.6700
 31
0.0000
  0
LINE
  8
22
 10
322.2000
 20
89.6700
 30
0.0000
 11
317.0000
 21
89.6700
 31
0.0000
  0
LINE
  8
22
 10
317.0000
 20
89.6700
 30
0.0000
 11
317.0000
 21
56.6700
 31
0.0000
  0
LINE
  8
22
 10
317.0000
 20
56.6700
 30
0.0000
 11
334.8000
 21
56.6700
 31
0.0000
  0
LINE
  8
22
 10
334.8000
 20
56.6700
 30
0.0000
 11
334.8000
 21
89.6700
 31
0.0000
  0
LINE
  8
22
 10
329.6000
 20
89.6700
 30
0.0000
 11
329.6000
 21
90.4700
 31
0.0000
  0
LINE
  8
22
 10
329.6000
 20
90.4700
 30
0.0000
 11
322.2000
 21
90.4700
 31
0.0000
  0
LINE
  8
22
 10
322.2000
 20
90.4700
 30
0.0000
 11
322.2000
 21
89.6700
 31
0.0000
  0
LINE
  8
22
 10
322.2000
 20
89.6700
 30
0.0000
 11
322.2000
 21
85.4700
 31
0.0000
  0
LINE
  8
22
 10
322.2000
 20
85.4700
 30
0.0000
 11
329.6000
 21
85.4700
 31
0.0000
  0
LINE
  8
22
 10
329.6000
 20
85.4700
 30
0.0000
 11
329.6000
 21
89.6700
 31
0.0000
  0
LINE
  8
22
 10
35.6786
 20
41.6613
 30
0.0000
 11
35.2612
 21
41.4438
 31
0.0000
  0
LINE
  8
22
 10
38.3187
 20
41.4438
 30
0.0000
 11
37.9013
 21
41.6613
 31
0.0000
  0
LINE
  8
22
 10
37.9013
 20
41.6613
 30
0.0000
 11
35.6786
 21
41.6613
 31
0.0000
  0
LINE
  8
22
 10
35.2612
 20
42.4551
 30
0.0000
 11
35.2612
 21
41.4438
 31
0.0000
  0
LINE
  8
22
 10
36.3137
 20
42.1375
 30
0.0000
 11
35.6787
 21
42.1376
 31
0.0000
  0
LINE
  8
22
 10
35.6787
 20
42.1376
 30
0.0000
 11
35.3613
 21
42.4550
 31
0.0000
  0
LINE
  8
22
 10
35.3613
 20
42.4550
 30
0.0000
 11
35.2612
 21
42.4551
 31
0.0000
  0
LINE
  8
22
 10
35.6787
 20
42.1376
 30
0.0000
 11
35.6787
 21
41.6612
 31
0.0000
  0
LINE
  8
22
 10
37.9013
 20
41.6613
 30
0.0000
 11
37.9013
 21
42.1375
 31
0.0000
  0
LINE
  8
22
 10
37.9013
 20
42.1375
 30
0.0000
 11
36.3137
 21
42.1375
 31
0.0000
  0
LINE
  8
22
 10
37.9013
 20
42.1375
 30
0.0000
 11
38.3188
 21
42.4550
 31
0.0000
  0
LINE
  8
22
 10
38.3188
 20
42.4550
 30
0.0000
 11
37.3663
 21
42.4550
 31
0.0000
  0
LINE
  8
22
 10
36.2137
 20
42.4550
 30
0.0000
 11
35.3613
 21
42.4550
 31
0.0000
  0
LINE
  8
22
 10
38.3188
 20
42.4550
 30
0.0000
 11
38.3188
 21
41.1850
 31
0.0000
  0
LINE
  8
22
 10
35.2612
 20
41.1850
 30
0.0000
 11
35.2612
 21
41.4231
 31
0.0000
  0
LINE
  8
22
 10
37.1662
 20
41.1850
 30
0.0000
 11
36.4138
 21
41.1850
 31
0.0000
  0
LINE
  8
22
 10
21.3114
 20
11.6587
 30
0.0000
 11
21.7288
 21
11.8762
 31
0.0000
  0
LINE
  8
22
 10
18.6713
 20
11.8762
 30
0.0000
 11
19.0887
 21
11.6587
 31
0.0000
  0
LINE
  8
22
 10
19.0887
 20
11.6587
 30
0.0000
 11
21.3114
 21
11.6587
 31
0.0000
  0
LINE
  8
22
 10
21.7288
 20
10.8649
 30
0.0000
 11
21.7288
 21
11.8762
 31
0.0000
  0
LINE
  8
22
 10
20.6763
 20
11.1825
 30
0.0000
 11
21.3113
 21
11.1824
 31
0.0000
  0
LINE
  8
22
 10
21.3113
 20
11.1824
 30
0.0000
 11
21.6287
 21
10.8650
 31
0.0000
  0
LINE
  8
22
 10
21.6287
 20
10.8650
 30
0.0000
 11
21.7288
 21
10.8649
 31
0.0000
  0
LINE
  8
22
 10
21.3113
 20
11.1824
 30
0.0000
 11
21.3113
 21
11.6588
 31
0.0000
  0
LINE
  8
22
 10
19.0887
 20
11.6587
 30
0.0000
 11
19.0887
 21
11.1825
 31
0.0000
  0
LINE
  8
22
 10
19.0887
 20
11.1825
 30
0.0000
 11
20.6763
 21
11.1825
 31
0.0000
  0
LINE
  8
22
 10
19.0887
 20
11.1825
 30
0.0000
 11
18.6712
 21
10.8650
 31
0.0000
  0
LINE
  8
22
 10
18.6712
 20
10.8650
 30
0.0000
 11
19.6237
 21
10.8650
 31
0.0000
  0
LINE
  8
22
 10
20.7763
 20
10.8650
 30
0.0000
 11
21.6287
 21
10.8650
 31
0.0000
  0
LINE
  8
22
 10
18.6712
 20
10.8650
 30
0.0000
 11
18.6712
 21
12.1350
 31
0.0000
  0
LINE
  8
22
 10
21.7288
 20
12.1350
 30
0.0000
 11
21.7288
 21
11.8969
 31
0.0000
  0
LINE
  8
22
 10
19.8238
 20
12.1350
 30
0.0000
 11
20.5762
 21
12.1350
 31
0.0000
  0
LINE
  8
22
 10
30.5114
 20
27.1587
 30
0.0000
 11
30.9288
 21
27.3762
 31
0.0000
  0
LINE
  8
22
 10
27.8713
 20
27.3762
 30
0.0000
 11
28.2887
 21
27.1587
 31
0.0000
  0
LINE
  8
22
 10
28.2887
 20
27.1587
 30
0.0000
 11
30.5114
 21
27.1587
 31
0.0000
  0
LINE
  8
22
 10
30.9288
 20
26.3649
 30
0.0000
 11
30.9288
 21
27.3762
 31
0.0000
  0
LINE
  8
22
 10
29.8763
 20
26.6825
 30
0.0000
 11
30.5113
 21
26.6824
 31
0.0000
  0
LINE
  8
22
 10
30.5113
 20
26.6824
 30
0.0000
 11
30.8287
 21
26.3650
 31
0.0000
  0
LINE
  8
22
 10
30.8287
 20
26.3650
 30
0.0000
 11
30.9288
 21
26.3649
 31
0.0000
  0
LINE
  8
22
 10
30.5113
 20
26.6824
 30
0.0000
 11
30.5113
 21
27.1588
 31
0.0000
  0
LINE
  8
22
 10
28.2887
 20
27.1587
 30
0.0000
 11
28.2887
 21
26.6825
 31
0.0000
  0
LINE
  8
22
 10
28.2887
 20
26.6825
 30
0.0000
 11
29.8763
 21
26.6825
 31
0.0000
  0
LINE
  8
22
 10
28.2887
 20
26.6825
 30
0.0000
 11
27.8712
 21
26.3650
 31
0.0000
  0
LINE
  8
22
 10
27.8712
 20
26.3650
 30
0.0000
 11
28.8237
 21
26.3650
 31
0.0000
  0
LINE
  8
22
 10
29.9763
 20
26.3650
 30
0.0000
 11
30.8287
 21
26.3650
 31
0.0000
  0
LINE
  8
22
 10
27.8712
 20
26.3650
 30
0.0000
 11
27.8712
 21
27.6350
 31
0.0000
  0
LINE
  8
22
 10
30.9288
 20
27.6350
 30
0.0000
 11
30.9288
 21
27.3969
 31
0.0000
  0
LINE
  8
22
 10
29.0238
 20
27.6350
 30
0.0000
 11
29.7762
 21
27.6350
 31
0.0000
  0
LINE
  8
22
 10
365.1013
 20
37.8464
 30
0.0000
 11
364.8838
 21
38.2638
 31
0.0000
  0
LINE
  8
22
 10
364.8838
 20
35.2063
 30
0.0000
 11
365.1013
 21
35.6237
 31
0.0000
  0
LINE
  8
22
 10
365.1013
 20
35.6237
 30
0.0000
 11
365.1013
 21
37.8464
 31
0.0000
  0
LINE
  8
22
 10
365.8951
 20
38.2638
 30
0.0000
 11
364.8838
 21
38.2638
 31
0.0000
  0
LINE
  8
22
 10
365.5775
 20
37.2113
 30
0.0000
 11
365.5776
 21
37.8463
 31
0.0000
  0
LINE
  8
22
 10
365.5776
 20
37.8463
 30
0.0000
 11
365.8950
 21
38.1637
 31
0.0000
  0
LINE
  8
22
 10
365.8950
 20
38.1637
 30
0.0000
 11
365.8951
 21
38.2638
 31
0.0000
  0
LINE
  8
22
 10
365.5776
 20
37.8463
 30
0.0000
 11
365.1012
 21
37.8463
 31
0.0000
  0
LINE
  8
22
 10
365.1013
 20
35.6237
 30
0.0000
 11
365.5775
 21
35.6237
 31
0.0000
  0
LINE
  8
22
 10
365.5775
 20
35.6237
 30
0.0000
 11
365.5775
 21
37.2113
 31
0.0000
  0
LINE
  8
22
 10
365.5775
 20
35.6237
 30
0.0000
 11
365.8950
 21
35.2062
 31
0.0000
  0
LINE
  8
22
 10
365.8950
 20
35.2062
 30
0.0000
 11
365.8950
 21
36.1587
 31
0.0000
  0
LINE
  8
22
 10
365.8950
 20
37.3113
 30
0.0000
 11
365.8950
 21
38.1637
 31
0.0000
  0
LINE
  8
22
 10
365.8950
 20
35.2062
 30
0.0000
 11
364.6250
 21
35.2062
 31
0.0000
  0
LINE
  8
22
 10
364.6250
 20
38.2638
 30
0.0000
 11
364.8631
 21
38.2638
 31
0.0000
  0
LINE
  8
22
 10
364.6250
 20
36.3588
 30
0.0000
 11
364.6250
 21
37.1112
 31
0.0000
  0
LINE
  8
22
 10
28.1480
 20
43.7471
 30
0.0000
 11
24.5920
 21
43.7471
 31
0.0000
  0
LINE
  8
22
 10
24.5920
 20
41.8929
 30
0.0000
 11
28.1480
 21
41.8929
 31
0.0000
  0
LINE
  8
22
 10
24.5920
 20
43.7471
 30
0.0000
 11
24.5920
 21
41.8929
 31
0.0000
  0
LINE
  8
22
 10
28.1480
 20
43.7471
 30
0.0000
 11
28.1480
 21
41.8929
 31
0.0000
  0
LINE
  8
22
 10
38.5280
 20
39.9471
 30
0.0000
 11
34.9720
 21
39.9471
 31
0.0000
  0
LINE
  8
22
 10
34.9720
 20
38.0929
 30
0.0000
 11
38.5280
 21
38.0929
 31
0.0000
  0
LINE
  8
22
 10
34.9720
 20
39.9471
 30
0.0000
 11
34.9720
 21
38.0929
 31
0.0000
  0
LINE
  8
22
 10
38.5280
 20
39.9471
 30
0.0000
 11
38.5280
 21
38.0929
 31
0.0000
  0
LINE
  8
22
 10
35.2080
 20
57.7471
 30
0.0000
 11
31.6520
 21
57.7471
 31
0.0000
  0
LINE
  8
22
 10
31.6520
 20
55.8929
 30
0.0000
 11
35.2080
 21
55.8929
 31
0.0000
  0
LINE
  8
22
 10
31.6520
 20
57.7471
 30
0.0000
 11
31.6520
 21
55.8929
 31
0.0000
  0
LINE
  8
22
 10
35.2080
 20
57.7471
 30
0.0000
 11
35.2080
 21
55.8929
 31
0.0000
  0
LINE
  8
22
 10
20.0271
 20
13.1220
 30
0.0000
 11
20.0271
 21
16.6780
 31
0.0000
  0
LINE
  8
22
 10
18.1729
 20
16.6780
 30
0.0000
 11
18.1729
 21
13.1220
 31
0.0000
  0
LINE
  8
22
 10
20.0271
 20
16.6780
 30
0.0000
 11
18.1729
 21
16.6780
 31
0.0000
  0
LINE
  8
22
 10
20.0271
 20
13.1220
 30
0.0000
 11
18.1729
 21
13.1220
 31
0.0000
  0
LINE
  8
22
 10
21.9271
 20
5.3220
 30
0.0000
 11
21.9271
 21
8.8780
 31
0.0000
  0
LINE
  8
22
 10
20.0729
 20
8.8780
 30
0.0000
 11
20.0729
 21
5.3220
 31
0.0000
  0
LINE
  8
22
 10
21.9271
 20
8.8780
 30
0.0000
 11
20.0729
 21
8.8780
 31
0.0000
  0
LINE
  8
22
 10
21.9271
 20
5.3220
 30
0.0000
 11
20.0729
 21
5.3220
 31
0.0000
  0
LINE
  8
22
 10
27.3271
 20
5.3220
 30
0.0000
 11
27.3271
 21
8.8780
 31
0.0000
  0
LINE
  8
22
 10
25.4729
 20
8.8780
 30
0.0000
 11
25.4729
 21
5.3220
 31
0.0000
  0
LINE
  8
22
 10
27.3271
 20
8.8780
 30
0.0000
 11
25.4729
 21
8.8780
 31
0.0000
  0
LINE
  8
22
 10
27.3271
 20
5.3220
 30
0.0000
 11
25.4729
 21
5.3220
 31
0.0000
  0
LINE
  8
22
 10
25.2271
 20
25.0220
 30
0.0000
 11
25.2271
 21
28.5780
 31
0.0000
  0
LINE
  8
22
 10
23.3729
 20
28.5780
 30
0.0000
 11
23.3729
 21
25.0220
 31
0.0000
  0
LINE
  8
22
 10
25.2271
 20
28.5780
 30
0.0000
 11
23.3729
 21
28.5780
 31
0.0000
  0
LINE
  8
22
 10
25.2271
 20
25.0220
 30
0.0000
 11
23.3729
 21
25.0220
 31
0.0000
  0
LINE
  8
22
 10
70.0270
 20
14.0817
 30
0.0000
 11
73.5830
 21
14.0817
 31
0.0000
  0
LINE
  8
22
 10
73.5830
 20
15.9359
 30
0.0000
 11
70.0270
 21
15.9359
 31
0.0000
  0
LINE
  8
22
 10
73.5830
 20
14.0817
 30
0.0000
 11
73.5830
 21
15.9359
 31
0.0000
  0
LINE
  8
22
 10
70.0270
 20
14.0817
 30
0.0000
 11
70.0270
 21
15.9359
 31
0.0000
  0
LINE
  8
22
 10
222.4507
 20
13.9642
 30
0.0000
 11
226.0068
 21
13.9642
 31
0.0000
  0
LINE
  8
22
 10
226.0068
 20
15.8184
 30
0.0000
 11
222.4507
 21
15.8184
 31
0.0000
  0
LINE
  8
22
 10
226.0068
 20
13.9642
 30
0.0000
 11
226.0068
 21
15.8184
 31
0.0000
  0
LINE
  8
22
 10
222.4507
 20
13.9642
 30
0.0000
 11
222.4507
 21
15.8184
 31
0.0000
  0
LINE
  8
22
 10
312.9220
 20
67.3729
 30
0.0000
 11
316.4780
 21
67.3729
 31
0.0000
  0
LINE
  8
22
 10
316.4780
 20
69.2271
 30
0.0000
 11
312.9220
 21
69.2271
 31
0.0000
  0
LINE
  8
22
 10
316.4780
 20
67.3729
 30
0.0000
 11
316.4780
 21
69.2271
 31
0.0000
  0
LINE
  8
22
 10
312.9220
 20
67.3729
 30
0.0000
 11
312.9220
 21
69.2271
 31
0.0000
  0
LINE
  8
22
 10
363.3729
 20
93.1780
 30
0.0000
 11
363.3729
 21
89.6220
 31
0.0000
  0
LINE
  8
22
 10
365.2271
 20
89.6220
 30
0.0000
 11
365.2271
 21
93.1780
 31
0.0000
  0
LINE
  8
22
 10
363.3729
 20
89.6220
 30
0.0000
 11
365.2271
 21
89.6220
 31
0.0000
  0
LINE
  8
22
 10
363.3729
 20
93.1780
 30
0.0000
 11
365.2271
 21
93.1780
 31
0.0000
  0
LINE
  8
22
 10
335.6220
 20
75.0729
 30
0.0000
 11
339.1780
 21
75.0729
 31
0.0000
  0
LINE
  8
22
 10
339.1780
 20
76.9271
 30
0.0000
 11
335.6220
 21
76.9271
 31
0.0000
  0
LINE
  8
22
 10
339.1780
 20
75.0729
 30
0.0000
 11
339.1780
 21
76.9271
 31
0.0000
  0
LINE
  8
22
 10
335.6220
 20
75.0729
 30
0.0000
 11
335.6220
 21
76.9271
 31
0.0000
  0
LINE
  8
22
 10
335.6220
 20
72.3729
 30
0.0000
 11
339.1780
 21
72.3729
 31
0.0000
  0
LINE
  8
22
 10
339.1780
 20
74.2271
 30
0.0000
 11
335.6220
 21
74.2271
 31
0.0000
  0
LINE
  8
22
 10
339.1780
 20
72.3729
 30
0.0000
 11
339.1780
 21
74.2271
 31
0.0000
  0
LINE
  8
22
 10
335.6220
 20
72.3729
 30
0.0000
 11
335.6220
 21
74.2271
 31
0.0000
  0
LINE
  8
22
 10
335.5220
 20
62.2729
 30
0.0000
 11
339.0780
 21
62.2729
 31
0.0000
  0
LINE
  8
22
 10
339.0780
 20
64.1271
 30
0.0000
 11
335.5220
 21
64.1271
 31
0.0000
  0
LINE
  8
22
 10
339.0780
 20
62.2729
 30
0.0000
 11
339.0780
 21
64.1271
 31
0.0000
  0
LINE
  8
22
 10
335.5220
 20
62.2729
 30
0.0000
 11
335.5220
 21
64.1271
 31
0.0000
  0
LINE
  8
22
 10
335.6220
 20
69.8729
 30
0.0000
 11
339.1780
 21
69.8729
 31
0.0000
  0
LINE
  8
22
 10
339.1780
 20
71.7271
 30
0.0000
 11
335.6220
 21
71.7271
 31
0.0000
  0
LINE
  8
22
 10
339.1780
 20
69.8729
 30
0.0000
 11
339.1780
 21
71.7271
 31
0.0000
  0
LINE
  8
22
 10
335.6220
 20
69.8729
 30
0.0000
 11
335.6220
 21
71.7271
 31
0.0000
  0
LINE
  8
22
 10
306.8955
 20
15.8496
 30
0.0000
 11
303.3395
 21
15.8496
 31
0.0000
  0
LINE
  8
22
 10
303.3395
 20
13.9954
 30
0.0000
 11
306.8955
 21
13.9954
 31
0.0000
  0
LINE
  8
22
 10
303.3395
 20
15.8496
 30
0.0000
 11
303.3395
 21
13.9954
 31
0.0000
  0
LINE
  8
22
 10
306.8955
 20
15.8496
 30
0.0000
 11
306.8955
 21
13.9954
 31
0.0000
  0
LINE
  8
22
 10
363.4280
 20
39.4484
 30
0.0000
 11
359.8720
 21
39.4484
 31
0.0000
  0
LINE
  8
22
 10
359.8720
 20
37.5941
 30
0.0000
 11
363.4280
 21
37.5941
 31
0.0000
  0
LINE
  8
22
 10
359.8720
 20
39.4484
 30
0.0000
 11
359.8720
 21
37.5941
 31
0.0000
  0
LINE
  8
22
 10
363.4280
 20
39.4484
 30
0.0000
 11
363.4280
 21
37.5941
 31
0.0000
  0
LINE
  8
22
 10
369.7780
 20
40.2271
 30
0.0000
 11
366.2220
 21
40.2271
 31
0.0000
  0
LINE
  8
22
 10
366.2220
 20
38.3729
 30
0.0000
 11
369.7780
 21
38.3729
 31
0.0000
  0
LINE
  8
22
 10
366.2220
 20
40.2271
 30
0.0000
 11
366.2220
 21
38.3729
 31
0.0000
  0
LINE
  8
22
 10
369.7780
 20
40.2271
 30
0.0000
 11
369.7780
 21
38.3729
 31
0.0000
  0
LINE
  8
22
 10
369.7780
 20
42.7271
 30
0.0000
 11
366.2220
 21
42.7271
 31
0.0000
  0
LINE
  8
22
 10
366.2220
 20
40.8729
 30
0.0000
 11
369.7780
 21
40.8729
 31
0.0000
  0
LINE
  8
22
 10
366.2220
 20
42.7271
 30
0.0000
 11
366.2220
 21
40.8729
 31
0.0000
  0
LINE
  8
22
 10
369.7780
 20
42.7271
 30
0.0000
 11
369.7780
 21
40.8729
 31
0.0000
  0
LINE
  8
22
 10
332.1700
 20
21.8700
 30
0.0000
 11
329.6300
 21
21.8700
 31
0.0000
  0
LINE
  8
22
 10
329.6300
 20
44.7300
 30
0.0000
 11
332.1700
 21
44.7300
 31
0.0000
  0
LINE
  8
22
 10
332.1700
 20
44.7300
 30
0.0000
 11
331.5350
 21
44.0950
 31
0.0000
  0
LINE
  8
22
 10
329.6300
 20
44.7300
 30
0.0000
 11
330.2650
 21
44.0950
 31
0.0000
  0
LINE
  8
22
 10
329.6300
 20
42.1900
 30
0.0000
 11
330.2650
 21
42.8250
 31
0.0000
  0
LINE
  8
22
 10
329.6300
 20
21.8700
 30
0.0000
 11
329.6300
 21
42.1900
 31
0.0000
  0
LINE
  8
22
 10
329.6300
 20
42.1900
 30
0.0000
 11
329.6300
 21
44.7300
 31
0.0000
  0
LINE
  8
22
 10
332.1700
 20
42.1900
 30
0.0000
 11
331.5350
 21
42.8250
 31
0.0000
  0
LINE
  8
22
 10
332.1700
 20
44.7300
 30
0.0000
 11
332.1700
 21
42.1900
 31
0.0000
  0
LINE
  8
22
 10
332.1700
 20
42.1900
 30
0.0000
 11
332.1700
 21
21.8700
 31
0.0000
  0
LINE
  8
22
 10
329.6300
 20
42.1900
 30
0.0000
 11
332.1700
 21
42.1900
 31
0.0000
  0
CIRCLE
  8
22
 10
377.0000
 20
41.0000
 30
0.0000
 40
7.0000
  0
CIRCLE
  8
22
 10
377.0000
 20
41.0000
 30
0.0000
 40
1.0000
  0
CIRCLE
  8
20
 10
17.6000
 20
86.0500
 30
0.0000
 40
2.0000
  0
CIRCLE
  8
20
 10
22.6800
 20
86.0500
 30
0.0000
 40
0.8500
  0
CIRCLE
  8
20
 10
12.5200
 20
86.0500
 30
0.0000
 40
0.8500
  0
CIRCLE
  8
20
 10
36.6400
 20
86.0500
 30
0.0000
 40
2.0000
  0
CIRCLE
  8
20
 10
41.7200
 20
86.0500
 30
0.0000
 40
0.8500
  0
CIRCLE
  8
20
 10
31.5600
 20
86.0500
 30
0.0000
 40
0.8500
  0
CIRCLE
  8
20
 10
55.6800
 20
86.0500
 30
0.0000
 40
2.0000
  0
CIRCLE
  8
20
 10
60.7600
 20
86.0500
 30
0.0000
 40
0.8500
  0
CIRCLE
  8
20
 10
50.6000
 20
86.0500
 30
0.0000
 40
0.8500
  0
CIRCLE
  8
20
 10
74.7200
 20
86.0500
 30
0.0000
 40
2.0000
  0
CIRCLE
  8
20
 10
79.8000
 20
86.0500
 30
0.0000
 40
0.8500
  0
CIRCLE
  8
20
 10
69.6400
 20
86.0500
 30
0.0000
 40
0.8500
  0
CIRCLE
  8
20
 10
93.7600
 20
86.0500
 30
0.0000
 40
2.0000
  0
CIRCLE
  8
20
 10
98.8400
 20
86.0500
 30
0.0000
 40
0.8500
  0
CIRCLE
  8
20
 10
88.6800
 20
86.0500
 30
0.0000
 40
0.8500
  0
CIRCLE
  8
20
 10
112.8000
 20
86.0500
 30
0.0000
 40
2.0000
  0
CIRCLE
  8
20
 10
117.8800
 20
86.0500
 30
0.0000
 40
0.8500
  0
CIRCLE
  8
20
 10
107.7200
 20
86.0500
 30
0.0000
 40
0.8500
  0
CIRCLE
  8
20
 10
131.8400
 20
86.0500
 30
0.0000
 40
2.0000
  0
CIRCLE
  8
20
 10
136.9200
 20
86.0500
 30
0.0000
 40
0.8500
  0
CIRCLE
  8
20
 10
126.7600
 20
86.0500
 30
0.0000
 40
0.8500
  0
CIRCLE
  8
20
 10
150.8800
 20
86.0500
 30
0.0000
 40
2.0000
  0
CIRCLE
  8
20
 10
155.9600
 20
86.0500
 30
0.0000
 40
0.8500
  0
CIRCLE
  8
20
 10
145.8000
 20
86.0500
 30
0.0000
 40
0.8500
  0
CIRCLE
  8
20
 10
169.9200
 20
86.0500
 30
0.0000
 40
2.0000
  0
CIRCLE
  8
20
 10
175.0000
 20
86.0500
 30
0.0000
 40
0.8500
  0
CIRCLE
  8
20
 10
164.8400
 20
86.0500
 30
0.0000
 40
0.8500
  0
CIRCLE
  8
20
 10
188.9600
 20
86.0500
 30
0.0000
 40
2.0000
  0
CIRCLE
  8
20
 10
194.0400
 20
86.0500
 30
0.0000
 40
0.8500
  0
CIRCLE
  8
20
 10
183.8800
 20
86.0500
 30
0.0000
 40
0.8500
  0
CIRCLE
  8
20
 10
208.0000
 20
86.0500
 30
0.0000
 40
2.0000
  0
CIRCLE
  8
20
 10
213.0800
 20
86.0500
 30
0.0000
 40
0.8500
  0
CIRCLE
  8
20
 10
202.9200
 20
86.0500
 30
0.0000
 40
0.8500
  0
CIRCLE
  8
20
 10
227.0400
 20
86.0500
 30
0.0000
 40
2.0000
  0
CIRCLE
  8
20
 10
232.1200
 20
86.0500
 30
0.0000
 40
0.8500
  0
CIRCLE
  8
20
 10
221.9600
 20
86.0500
 30
0.0000
 40
0.8500
  0
CIRCLE
  8
20
 10
246.0800
 20
86.0500
 30
0.0000
 40
2.0000
  0
CIRCLE
  8
20
 10
251.1600
 20
86.0500
 30
0.0000
 40
0.8500
  0
CIRCLE
  8
20
 10
241.0000
 20
86.0500
 30
0.0000
 40
0.8500
  0
CIRCLE
  8
20
 10
265.1200
 20
86.0500
 30
0.0000
 40
2.0000
  0
CIRCLE
  8
20
 10
270.2000
 20
86.0500
 30
0.0000
 40
0.8500
  0
CIRCLE
  8
20
 10
260.0400
 20
86.0500
 30
0.0000
 40
0.8500
  0
CIRCLE
  8
20
 10
284.1600
 20
86.0500
 30
0.0000
 40
2.0000
  0
CIRCLE
  8
20
 10
289.2400
 20
86.0500
 30
0.0000
 40
0.8500
  0
CIRCLE
  8
20
 10
279.0800
 20
86.0500
 30
0.0000
 40
0.8500
  0
CIRCLE
  8
20
 10
303.2000
 20
86.0500
 30
0.0000
 40
2.0000
  0
CIRCLE
  8
20
 10
308.2800
 20
86.0500
 30
0.0000
 40
0.8500
  0
CIRCLE
  8
20
 10
298.1200
 20
86.0500
 30
0.0000
 40
0.8500
  0
CIRCLE
  8
20
 10
353.8500
 20
86.0500
 30
0.0000
 40
2.0000
  0
CIRCLE
  8
20
 10
353.8500
 20
80.9700
 30
0.0000
 40
0.8500
  0
CIRCLE
  8
20
 10
353.8500
 20
91.1300
 30
0.0000
 40
0.8500
  0
CIRCLE
  8
20
 10
349.1000
 20
86.0500
 30
0.0000
 40
2.0000
  0
CIRCLE
  8
20
 10
349.1000
 20
91.1300
 30
0.0000
 40
0.8500
  0
CIRCLE
  8
20
 10
349.1000
 20
80.9700
 30
0.0000
 40
0.8500
  0
CIRCLE
  8
20
 10
27.2000
 20
67.0000
 30
0.0000
 40
2.0000
  0
CIRCLE
  8
20
 10
27.2000
 20
61.9200
 30
0.0000
 40
0.8500
  0
CIRCLE
  8
20
 10
27.2000
 20
72.0800
 30
0.0000
 40
0.8500
  0
CIRCLE
  8
20
 10
22.4500
 20
67.0000
 30
0.0000
 40
2.0000
  0
CIRCLE
  8
20
 10
22.4500
 20
72.0800
 30
0.0000
 40
0.8500
  0
CIRCLE
  8
20
 10
22.4500
 20
61.9200
 30
0.0000
 40
0.8500
  0
CIRCLE
  8
20
 10
46.2400
 20
67.0000
 30
0.0000
 40
2.0000
  0
CIRCLE
  8
20
 10
51.3200
 20
67.0000
 30
0.0000
 40
0.8500
  0
CIRCLE
  8
20
 10
41.1600
 20
67.0000
 30
0.0000
 40
0.8500
  0
CIRCLE
  8
20
 10
65.2800
 20
67.0000
 30
0.0000
 40
2.0000
  0
CIRCLE
  8
20
 10
70.3600
 20
67.0000
 30
0.0000
 40
0.8500
  0
CIRCLE
  8
20
 10
60.2000
 20
67.0000
 30
0.0000
 40
0.8500
  0
CIRCLE
  8
20
 10
84.3200
 20
67.0000
 30
0.0000
 40
2.0000
  0
CIRCLE
  8
20
 10
89.4000
 20
67.0000
 30
0.0000
 40
0.8500
  0
CIRCLE
  8
20
 10
79.2400
 20
67.0000
 30
0.0000
 40
0.8500
  0
CIRCLE
  8
20
 10
103.3600
 20
67.0000
 30
0.0000
 40
2.0000
  0
CIRCLE
  8
20
 10
108.4400
 20
67.0000
 30
0.0000
 40
0.8500
  0
CIRCLE
  8
20
 10
98.2800
 20
67.0000
 30
0.0000
 40
0.8500
  0
CIRCLE
  8
20
 10
122.4000
 20
67.0000
 30
0.0000
 40
2.0000
  0
CIRCLE
  8
20
 10
127.4800
 20
67.0000
 30
0.0000
 40
0.8500
  0
CIRCLE
  8
20
 10
117.3200
 20
67.0000
 30
0.0000
 40
0.8500
  0
CIRCLE
  8
20
 10
141.4400
 20
67.0000
 30
0.0000
 40
2.0000
  0
CIRCLE
  8
20
 10
146.5200
 20
67.0000
 30
0.0000
 40
0.8500
  0
CIRCLE
  8
20
 10
136.3600
 20
67.0000
 30
0.0000
 40
0.8500
  0
CIRCLE
  8
20
 10
160.4800
 20
67.0000
 30
0.0000
 40
2.0000
  0
CIRCLE
  8
20
 10
165.5600
 20
67.0000
 30
0.0000
 40
0.8500
  0
CIRCLE
  8
20
 10
155.4000
 20
67.0000
 30
0.0000
 40
0.8500
  0
CIRCLE
  8
20
 10
179.5200
 20
67.0000
 30
0.0000
 40
2.0000
  0
CIRCLE
  8
20
 10
184.6000
 20
67.0000
 30
0.0000
 40
0.8500
  0
CIRCLE
  8
20
 10
174.4400
 20
67.0000
 30
0.0000
 40
0.8500
  0
CIRCLE
  8
20
 10
198.5600
 20
67.0000
 30
0.0000
 40
2.0000
  0
CIRCLE
  8
20
 10
203.6400
 20
67.0000
 30
0.0000
 40
0.8500
  0
CIRCLE
  8
20
 10
193.4800
 20
67.0000
 30
0.0000
 40
0.8500
  0
CIRCLE
  8
20
 10
217.6000
 20
67.0000
 30
0.0000
 40
2.0000
  0
CIRCLE
  8
20
 10
222.6800
 20
67.0000
 30
0.0000
 40
0.8500
  0
CIRCLE
  8
20
 10
212.5200
 20
67.0000
 30
0.0000
 40
0.8500
  0
CIRCLE
  8
20
 10
236.6400
 20
67.0000
 30
0.0000
 40
2.0000
  0
CIRCLE
  8
20
 10
241.7200
 20
67.0000
 30
0.0000
 40
0.8500
  0
CIRCLE
  8
20
 10
231.5600
 20
67.0000
 30
0.0000
 40
0.8500
  0
CIRCLE
  8
20
 10
255.6800
 20
67.0000
 30
0.0000
 40
2.0000
  0
CIRCLE
  8
20
 10
260.7600
 20
67.0000
 30
0.0000
 40
0.8500
  0
CIRCLE
  8
20
 10
250.6000
 20
67.0000
 30
0.0000
 40
0.8500
  0
CIRCLE
  8
20
 10
274.7200
 20
67.0000
 30
0.0000
 40
2.0000
  0
CIRCLE
  8
20
 10
279.8000
 20
67.0000
 30
0.0000
 40
0.8500
  0
CIRCLE
  8
20
 10
269.6400
 20
67.0000
 30
0.0000
 40
0.8500
  0
CIRCLE
  8
20
 10
293.7600
 20
67.0000
 30
0.0000
 40
2.0000
  0
CIRCLE
  8
20
 10
293.7600
 20
72.0800
 30
0.0000
 40
0.8500
  0
CIRCLE
  8
20
 10
293.7600
 20
61.9200
 30
0.0000
 40
0.8500
  0
CIRCLE
  8
20
 10
298.5100
 20
67.0000
 30
0.0000
 40
2.0000
  0
CIRCLE
  8
20
 10
298.5100
 20
61.9200
 30
0.0000
 40
0.8500
  0
CIRCLE
  8
20
 10
298.5100
 20
72.0800
 30
0.0000
 40
0.8500
  0
CIRCLE
  8
20
 10
353.8500
 20
67.0000
 30
0.0000
 40
2.0000
  0
CIRCLE
  8
20
 10
353.8500
 20
61.9200
 30
0.0000
 40
0.8500
  0
CIRCLE
  8
20
 10
353.8500
 20
72.0800
 30
0.0000
 40
0.8500
  0
CIRCLE
  8
20
 10
349.1000
 20
67.0000
 30
0.0000
 40
2.0000
  0
CIRCLE
  8
20
 10
349.1000
 20
72.0800
 30
0.0000
 40
0.8500
  0
CIRCLE
  8
20
 10
349.1000
 20
61.9200
 30
0.0000
 40
0.8500
  0
CIRCLE
  8
20
 10
12.8000
 20
47.9500
 30
0.0000
 40
2.0000
  0
CIRCLE
  8
20
 10
17.8800
 20
47.9500
 30
0.0000
 40
0.8500
  0
CIRCLE
  8
20
 10
7.7200
 20
47.9500
 30
0.0000
 40
0.8500
  0
CIRCLE
  8
20
 10
31.8400
 20
47.9500
 30
0.0000
 40
2.0000
  0
CIRCLE
  8
20
 10
26.7600
 20
47.9500
 30
0.0000
 40
0.8500
  0
CIRCLE
  8
20
 10
36.9200
 20
47.9500
 30
0.0000
 40
0.8500
  0
CIRCLE
  8
20
 10
50.8800
 20
47.9500
 30
0.0000
 40
2.0000
  0
CIRCLE
  8
20
 10
55.9600
 20
47.9500
 30
0.0000
 40
0.8500
  0
CIRCLE
  8
20
 10
45.8000
 20
47.9500
 30
0.0000
 40
0.8500
  0
CIRCLE
  8
20
 10
69.9200
 20
47.9500
 30
0.0000
 40
2.0000
  0
CIRCLE
  8
20
 10
75.0000
 20
47.9500
 30
0.0000
 40
0.8500
  0
CIRCLE
  8
20
 10
64.8400
 20
47.9500
 30
0.0000
 40
0.8500
  0
CIRCLE
  8
20
 10
88.9600
 20
47.9500
 30
0.0000
 40
2.0000
  0
CIRCLE
  8
20
 10
94.0400
 20
47.9500
 30
0.0000
 40
0.8500
  0
CIRCLE
  8
20
 10
83.8800
 20
47.9500
 30
0.0000
 40
0.8500
  0
CIRCLE
  8
20
 10
108.0000
 20
47.9500
 30
0.0000
 40
2.0000
  0
CIRCLE
  8
20
 10
113.0800
 20
47.9500
 30
0.0000
 40
0.8500
  0
CIRCLE
  8
20
 10
102.9200
 20
47.9500
 30
0.0000
 40
0.8500
  0
CIRCLE
  8
20
 10
127.0400
 20
47.9500
 30
0.0000
 40
2.0000
  0
CIRCLE
  8
20
 10
132.1200
 20
47.9500
 30
0.0000
 40
0.8500
  0
CIRCLE
  8
20
 10
121.9600
 20
47.9500
 30
0.0000
 40
0.8500
  0
CIRCLE
  8
20
 10
146.0800
 20
47.9500
 30
0.0000
 40
2.0000
  0
CIRCLE
  8
20
 10
151.1600
 20
47.9500
 30
0.0000
 40
0.8500
  0
CIRCLE
  8
20
 10
141.0000
 20
47.9500
 30
0.0000
 40
0.8500
  0
CIRCLE
  8
20
 10
165.1200
 20
47.9500
 30
0.0000
 40
2.0000
  0
CIRCLE
  8
20
 10
170.2000
 20
47.9500
 30
0.0000
 40
0.8500
  0
CIRCLE
  8
20
 10
160.0400
 20
47.9500
 30
0.0000
 40
0.8500
  0
CIRCLE
  8
20
 10
184.1600
 20
47.9500
 30
0.0000
 40
2.0000
  0
CIRCLE
  8
20
 10
189.2400
 20
47.9500
 30
0.0000
 40
0.8500
  0
CIRCLE
  8
20
 10
179.0800
 20
47.9500
 30
0.0000
 40
0.8500
  0
CIRCLE
  8
20
 10
203.2000
 20
47.9500
 30
0.0000
 40
2.0000
  0
CIRCLE
  8
20
 10
208.2800
 20
47.9500
 30
0.0000
 40
0.8500
  0
CIRCLE
  8
20
 10
198.1200
 20
47.9500
 30
0.0000
 40
0.8500
  0
CIRCLE
  8
20
 10
222.2400
 20
47.9500
 30
0.0000
 40
2.0000
  0
CIRCLE
  8
20
 10
227.3200
 20
47.9500
 30
0.0000
 40
0.8500
  0
CIRCLE
  8
20
 10
217.1600
 20
47.9500
 30
0.0000
 40
0.8500
  0
CIRCLE
  8
20
 10
241.2800
 20
47.9500
 30
0.0000
 40
2.0000
  0
CIRCLE
  8
20
 10
246.3600
 20
47.9500
 30
0.0000
 40
0.8500
  0
CIRCLE
  8
20
 10
236.2000
 20
47.9500
 30
0.0000
 40
0.8500
  0
CIRCLE
  8
20
 10
260.3200
 20
47.9500
 30
0.0000
 40
2.0000
  0
CIRCLE
  8
20
 10
265.4000
 20
47.9500
 30
0.0000
 40
0.8500
  0
CIRCLE
  8
20
 10
255.2400
 20
47.9500
 30
0.0000
 40
0.8500
  0
CIRCLE
  8
20
 10
288.8800
 20
47.9500
 30
0.0000
 40
2.0000
  0
CIRCLE
  8
20
 10
293.9600
 20
47.9500
 30
0.0000
 40
0.8500
  0
CIRCLE
  8
20
 10
283.8000
 20
47.9500
 30
0.0000
 40
0.8500
  0
CIRCLE
  8
20
 10
353.8500
 20
47.9500
 30
0.0000
 40
2.0000
  0
CIRCLE
  8
20
 10
353.8500
 20
42.8700
 30
0.0000
 40
0.8500
  0
CIRCLE
  8
20
 10
353.8500
 20
53.0300
 30
0.0000
 40
0.8500
  0
CIRCLE
  8
20
 10
349.1000
 20
47.9500
 30
0.0000
 40
2.0000
  0
CIRCLE
  8
20
 10
349.1000
 20
53.0300
 30
0.0000
 40
0.8500
  0
CIRCLE
  8
20
 10
349.1000
 20
42.8700
 30
0.0000
 40
0.8500
  0
CIRCLE
  8
20
 10
12.8000
 20
28.9000
 30
0.0000
 40
2.0000
  0
CIRCLE
  8
20
 10
17.8800
 20
28.9000
 30
0.0000
 40
0.8500
  0
CIRCLE
  8
20
 10
7.7200
 20
28.9000
 30
0.0000
 40
0.8500
  0
CIRCLE
  8
20
 10
41.3600
 20
28.9000
 30
0.0000
 40
2.0000
  0
CIRCLE
  8
20
 10
41.3600
 20
23.8200
 30
0.0000
 40
0.8500
  0
CIRCLE
  8
20
 10
41.3600
 20
33.9800
 30
0.0000
 40
0.8500
  0
CIRCLE
  8
20
 10
36.6100
 20
28.9000
 30
0.0000
 40
2.0000
  0
CIRCLE
  8
20
 10
36.6100
 20
33.9800
 30
0.0000
 40
0.8500
  0
CIRCLE
  8
20
 10
36.6100
 20
23.8200
 30
0.0000
 40
0.8500
  0
CIRCLE
  8
20
 10
60.4000
 20
28.9000
 30
0.0000
 40
2.0000
  0
CIRCLE
  8
20
 10
65.4800
 20
28.9000
 30
0.0000
 40
0.8500
  0
CIRCLE
  8
20
 10
55.3200
 20
28.9000
 30
0.0000
 40
0.8500
  0
CIRCLE
  8
20
 10
79.4400
 20
28.9000
 30
0.0000
 40
2.0000
  0
CIRCLE
  8
20
 10
84.5200
 20
28.9000
 30
0.0000
 40
0.8500
  0
CIRCLE
  8
20
 10
74.3600
 20
28.9000
 30
0.0000
 40
0.8500
  0
CIRCLE
  8
20
 10
98.4800
 20
28.9000
 30
0.0000
 40
2.0000
  0
CIRCLE
  8
20
 10
103.5600
 20
28.9000
 30
0.0000
 40
0.8500
  0
CIRCLE
  8
20
 10
93.4000
 20
28.9000
 30
0.0000
 40
0.8500
  0
CIRCLE
  8
20
 10
117.5200
 20
28.9000
 30
0.0000
 40
2.0000
  0
CIRCLE
  8
20
 10
122.6000
 20
28.9000
 30
0.0000
 40
0.8500
  0
CIRCLE
  8
20
 10
112.4400
 20
28.9000
 30
0.0000
 40
0.8500
  0
CIRCLE
  8
20
 10
136.5600
 20
28.9000
 30
0.0000
 40
2.0000
  0
CIRCLE
  8
20
 10
141.6400
 20
28.9000
 30
0.0000
 40
0.8500
  0
CIRCLE
  8
20
 10
131.4800
 20
28.9000
 30
0.0000
 40
0.8500
  0
CIRCLE
  8
20
 10
155.6000
 20
28.9000
 30
0.0000
 40
2.0000
  0
CIRCLE
  8
20
 10
160.6800
 20
28.9000
 30
0.0000
 40
0.8500
  0
CIRCLE
  8
20
 10
150.5200
 20
28.9000
 30
0.0000
 40
0.8500
  0
CIRCLE
  8
20
 10
174.6400
 20
28.9000
 30
0.0000
 40
2.0000
  0
CIRCLE
  8
20
 10
179.7200
 20
28.9000
 30
0.0000
 40
0.8500
  0
CIRCLE
  8
20
 10
169.5600
 20
28.9000
 30
0.0000
 40
0.8500
  0
CIRCLE
  8
20
 10
193.6800
 20
28.9000
 30
0.0000
 40
2.0000
  0
CIRCLE
  8
20
 10
198.7600
 20
28.9000
 30
0.0000
 40
0.8500
  0
CIRCLE
  8
20
 10
188.6000
 20
28.9000
 30
0.0000
 40
0.8500
  0
CIRCLE
  8
20
 10
212.7200
 20
28.9000
 30
0.0000
 40
2.0000
  0
CIRCLE
  8
20
 10
217.8000
 20
28.9000
 30
0.0000
 40
0.8500
  0
CIRCLE
  8
20
 10
207.6400
 20
28.9000
 30
0.0000
 40
0.8500
  0
CIRCLE
  8
20
 10
231.7600
 20
28.9000
 30
0.0000
 40
2.0000
  0
CIRCLE
  8
20
 10
236.8400
 20
28.9000
 30
0.0000
 40
0.8500
  0
CIRCLE
  8
20
 10
226.6800
 20
28.9000
 30
0.0000
 40
0.8500
  0
CIRCLE
  8
20
 10
260.3200
 20
28.9000
 30
0.0000
 40
2.0000
  0
CIRCLE
  8
20
 10
260.3200
 20
23.8200
 30
0.0000
 40
0.8500
  0
CIRCLE
  8
20
 10
260.3200
 20
33.9800
 30
0.0000
 40
0.8500
  0
CIRCLE
  8
20
 10
255.5700
 20
28.9000
 30
0.0000
 40
2.0000
  0
CIRCLE
  8
20
 10
255.5700
 20
33.9800
 30
0.0000
 40
0.8500
  0
CIRCLE
  8
20
 10
255.5700
 20
23.8200
 30
0.0000
 40
0.8500
  0
CIRCLE
  8
20
 10
279.3600
 20
28.9000
 30
0.0000
 40
2.0000
  0
CIRCLE
  8
20
 10
284.4400
 20
28.9000
 30
0.0000
 40
0.8500
  0
CIRCLE
  8
20
 10
274.2800
 20
28.9000
 30
0.0000
 40
0.8500
  0
CIRCLE
  8
20
 10
298.4000
 20
28.9000
 30
0.0000
 40
2.0000
  0
CIRCLE
  8
20
 10
303.4800
 20
28.9000
 30
0.0000
 40
0.8500
  0
CIRCLE
  8
20
 10
293.3200
 20
28.9000
 30
0.0000
 40
0.8500
  0
CIRCLE
  8
20
 10
353.8500
 20
28.9000
 30
0.0000
 40
2.0000
  0
CIRCLE
  8
20
 10
353.8500
 20
23.8200
 30
0.0000
 40
0.8500
  0
CIRCLE
  8
20
 10
353.8500
 20
33.9800
 30
0.0000
 40
0.8500
  0
CIRCLE
  8
20
 10
349.1000
 20
28.9000
 30
0.0000
 40
2.0000
  0
CIRCLE
  8
20
 10
349.1000
 20
33.9800
 30
0.0000
 40
0.8500
  0
CIRCLE
  8
20
 10
349.1000
 20
23.8200
 30
0.0000
 40
0.8500
  0
CIRCLE
  8
20
 10
141.3800
 20
9.8500
 30
0.0000
 40
2.0000
  0
CIRCLE
  8
20
 10
146.4600
 20
9.8500
 30
0.0000
 40
0.8500
  0
CIRCLE
  8
20
 10
136.3000
 20
9.8500
 30
0.0000
 40
0.8500
  0
CIRCLE
  8
20
 10
65.1800
 20
9.8500
 30
0.0000
 40
2.0000
  0
CIRCLE
  8
20
 10
70.2600
 20
9.8500
 30
0.0000
 40
0.8500
  0
CIRCLE
  8
20
 10
60.1000
 20
9.8500
 30
0.0000
 40
0.8500
  0
CIRCLE
  8
20
 10
217.5800
 20
9.8500
 30
0.0000
 40
2.0000
  0
CIRCLE
  8
20
 10
222.6600
 20
9.8500
 30
0.0000
 40
0.8500
  0
CIRCLE
  8
20
 10
212.5000
 20
9.8500
 30
0.0000
 40
0.8500
  0
LINE
  8
22
 10
52.7749
 20
129.4977
 30
0.0000
 11
52.7749
 21
130.8439
 31
0.0000
  0
LINE
  8
22
 10
52.7749
 20
130.8439
 30
0.0000
 11
52.4009
 21
130.8439
 31
0.0000
  0
ARC
  8
22
 10
52.4009
 20
130.6195
 30
0.0000
 40
0.2244
 50
90.0000
 51
179.9992
  0
LINE
  8
22
 10
52.1765
 20
130.6195
 30
0.0000
 11
52.1765
 21
130.1708
 31
0.0000
  0
ARC
  8
22
 10
52.4009
 20
130.1708
 30
0.0000
 40
0.2244
 50
180.0000
 51
270.0000
  0
LINE
  8
22
 10
52.4009
 20
129.9464
 30
0.0000
 11
52.7749
 21
129.9464
 31
0.0000
  0
LINE
  8
22
 10
51.5852
 20
131.2926
 30
0.0000
 11
51.5852
 21
130.1708
 31
0.0000
  0
ARC
  8
22
 10
51.3609
 20
130.1708
 30
0.0000
 40
0.2244
 50
270.0008
 51
0.0000
  0
LINE
  8
22
 10
50.2773
 20
130.4699
 30
0.0000
 11
50.6139
 21
130.4699
 31
0.0000
  0
ARC
  8
22
 10
50.6139
 20
130.2082
 30
0.0000
 40
0.2618
 50
270.0000
 51
90.0000
  0
LINE
  8
22
 10
50.6139
 20
129.9464
 30
0.0000
 11
50.2773
 21
129.9464
 31
0.0000
  0
LINE
  8
22
 10
50.2773
 20
129.9464
 30
0.0000
 11
50.2773
 21
130.6195
 31
0.0000
  0
ARC
  8
22
 10
50.5017
 20
130.6195
 30
0.0000
 40
0.2244
 50
89.9992
 51
180.0000
  0
LINE
  8
22
 10
50.5017
 20
130.8439
 30
0.0000
 11
50.8009
 21
130.8439
 31
0.0000
  0
LINE
  8
22
 10
49.1096
 20
129.9464
 30
0.0000
 11
49.4088
 21
129.9464
 31
0.0000
  0
ARC
  8
22
 10
49.4088
 20
130.1708
 30
0.0000
 40
0.2244
 50
270.0000
 51
0.0008
  0
LINE
  8
22
 10
49.6331
 20
130.1708
 30
0.0000
 11
49.6331
 21
130.6195
 31
0.0000
  0
ARC
  8
22
 10
49.4088
 20
130.6195
 30
0.0000
 40
0.2244
 50
0.0000
 51
90.0000
  0
LINE
  8
22
 10
49.4088
 20
130.8439
 30
0.0000
 11
49.1096
 21
130.8439
 31
0.0000
  0
LINE
  8
22
 10
47.9873
 20
129.9464
 30
0.0000
 11
48.3613
 21
129.9464
 31
0.0000
  0
ARC
  8
22
 10
48.3613
 20
130.1708
 30
0.0000
 40
0.2244
 50
270.0000
 51
0.0008
  0
LINE
  8
22
 10
48.5856
 20
130.1708
 30
0.0000
 11
48.5856
 21
130.5447
 31
0.0000
  0
ARC
  8
22
 10
48.2865
 20
130.5447
 30
0.0000
 40
0.2992
 50
0.0000
 51
180.0000
  0
LINE
  8
22
 10
47.9873
 20
130.5447
 30
0.0000
 11
47.9873
 21
130.3951
 31
0.0000
  0
LINE
  8
22
 10
47.9873
 20
130.3951
 30
0.0000
 11
48.5856
 21
130.3951
 31
0.0000
  0
LINE
  8
22
 10
47.3207
 20
129.9464
 30
0.0000
 11
47.3207
 21
130.8439
 31
0.0000
  0
LINE
  8
22
 10
47.3207
 20
130.8439
 30
0.0000
 11
46.6476
 21
130.8439
 31
0.0000
  0
ARC
  8
22
 10
46.6476
 20
130.6195
 30
0.0000
 40
0.2244
 50
90.0000
 51
179.9992
  0
LINE
  8
22
 10
46.4233
 20
130.6195
 30
0.0000
 11
46.4233
 21
129.9464
 31
0.0000
  0
LINE
  8
22
 10
46.8720
 20
129.9464
 30
0.0000
 11
46.8720
 21
130.8439
 31
0.0000
  0
LINE
  8
22
 10
45.1584
 20
129.9464
 30
0.0000
 11
45.5323
 21
129.9464
 31
0.0000
  0
ARC
  8
22
 10
45.5323
 20
130.1708
 30
0.0000
 40
0.2244
 50
270.0000
 51
0.0008
  0
LINE
  8
22
 10
45.7567
 20
130.1708
 30
0.0000
 11
45.7567
 21
130.5447
 31
0.0000
  0
ARC
  8
22
 10
45.4575
 20
130.5447
 30
0.0000
 40
0.2992
 50
0.0000
 51
180.0000
  0
LINE
  8
22
 10
45.1584
 20
130.5447
 30
0.0000
 11
45.1584
 21
130.3951
 31
0.0000
  0
LINE
  8
22
 10
45.1584
 20
130.3951
 30
0.0000
 11
45.7567
 21
130.3951
 31
0.0000
  0
LINE
  8
22
 10
44.5247
 20
129.9464
 30
0.0000
 11
44.5247
 21
130.8439
 31
0.0000
  0
LINE
  8
22
 10
44.5247
 20
130.8439
 30
0.0000
 11
44.1508
 21
130.8439
 31
0.0000
  0
ARC
  8
22
 10
44.1508
 20
130.6195
 30
0.0000
 40
0.2244
 50
90.0000
 51
179.9992
  0
LINE
  8
22
 10
43.9264
 20
130.6195
 30
0.0000
 11
43.9264
 21
129.9464
 31
0.0000
  0
LINE
  8
22
 10
43.4140
 20
130.8439
 30
0.0000
 11
42.9652
 21
130.8439
 31
0.0000
  0
LINE
  8
22
 10
43.2644
 20
131.2926
 30
0.0000
 11
43.2644
 21
130.1708
 31
0.0000
  0
ARC
  8
22
 10
43.0400
 20
130.1708
 30
0.0000
 40
0.2244
 50
269.9992
 51
360.0000
  0
LINE
  8
22
 10
43.0400
 20
129.9464
 30
0.0000
 11
42.9652
 21
129.9464
 31
0.0000
  0
LINE
  8
22
 10
41.2096
 20
130.3203
 30
0.0000
 11
41.5836
 21
130.4699
 31
0.0000
  0
ARC
  8
22
 10
41.5115
 20
130.6500
 30
0.0000
 40
0.1939
 50
291.8014
 51
90.8190
  0
ARC
  8
22
 10
41.5209
 20
129.9946
 30
0.0000
 40
0.8493
 50
90.8190
 51
114.2391
  0
ARC
  8
22
 10
41.2816
 20
130.1403
 30
0.0000
 40
0.1939
 50
111.8014
 51
270.8190
  0
ARC
  8
22
 10
41.2663
 20
131.2147
 30
0.0000
 40
1.2684
 50
270.8190
 51
289.7904
  0
LINE
  8
22
 10
40.5094
 20
130.2456
 30
0.0000
 11
40.5094
 21
130.5447
 31
0.0000
  0
ARC
  8
22
 10
40.2103
 20
130.5447
 30
0.0000
 40
0.2992
 50
0.0000
 51
180.0000
  0
LINE
  8
22
 10
39.9111
 20
130.5447
 30
0.0000
 11
39.9111
 21
130.2456
 31
0.0000
  0
ARC
  8
22
 10
40.2103
 20
130.2456
 30
0.0000
 40
0.2992
 50
180.0000
 51
0.0000
  0
LINE
  8
22
 10
39.3112
 20
131.2926
 30
0.0000
 11
39.3112
 21
130.1708
 31
0.0000
  0
ARC
  8
22
 10
39.0868
 20
130.1708
 30
0.0000
 40
0.2244
 50
270.0008
 51
0.0000
  0
LINE
  8
22
 10
38.0033
 20
131.2926
 30
0.0000
 11
38.0033
 21
129.9464
 31
0.0000
  0
LINE
  8
22
 10
38.0033
 20
129.9464
 30
0.0000
 11
38.3773
 21
129.9464
 31
0.0000
  0
ARC
  8
22
 10
38.3773
 20
130.1708
 30
0.0000
 40
0.2244
 50
270.0000
 51
0.0008
  0
LINE
  8
22
 10
38.6016
 20
130.1708
 30
0.0000
 11
38.6016
 21
130.6195
 31
0.0000
  0
ARC
  8
22
 10
38.3773
 20
130.6195
 30
0.0000
 40
0.2244
 50
0.0000
 51
90.0000
  0
LINE
  8
22
 10
38.3773
 20
130.8439
 30
0.0000
 11
38.0033
 21
130.8439
 31
0.0000
  0
LINE
  8
22
 10
36.7627
 20
129.9464
 30
0.0000
 11
37.1367
 21
129.9464
 31
0.0000
  0
ARC
  8
22
 10
37.1367
 20
130.1708
 30
0.0000
 40
0.2244
 50
270.0000
 51
0.0008
  0
LINE
  8
22
 10
37.3610
 20
130.1708
 30
0.0000
 11
37.3610
 21
130.5447
 31
0.0000
  0
ARC
  8
22
 10
37.0619
 20
130.5447
 30
0.0000
 40
0.2992
 50
0.0000
 51
180.0000
  0
LINE
  8
22
 10
36.7627
 20
130.5447
 30
0.0000
 11
36.7627
 21
130.3951
 31
0.0000
  0
LINE
  8
22
 10
36.7627
 20
130.3951
 30
0.0000
 11
37.3610
 21
130.3951
 31
0.0000
  0
LINE
  8
22
 10
36.1194
 20
129.9464
 30
0.0000
 11
36.1194
 21
130.8439
 31
0.0000
  0
LINE
  8
22
 10
36.1194
 20
130.8439
 30
0.0000
 11
35.6706
 21
130.8439
 31
0.0000
  0
LINE
  8
22
 10
35.6706
 20
130.8439
 30
0.0000
 11
35.6706
 21
130.6943
 31
0.0000
  0
LINE
  8
22
 10
34.0003
 20
130.3203
 30
0.0000
 11
34.3743
 21
130.4699
 31
0.0000
  0
ARC
  8
22
 10
34.3023
 20
130.6500
 30
0.0000
 40
0.1939
 50
291.8014
 51
90.8190
  0
ARC
  8
22
 10
34.3116
 20
129.9946
 30
0.0000
 40
0.8493
 50
90.8190
 51
114.2391
  0
ARC
  8
22
 10
34.0724
 20
130.1403
 30
0.0000
 40
0.1939
 50
111.8014
 51
270.8190
  0
ARC
  8
22
 10
34.0570
 20
131.2147
 30
0.0000
 40
1.2684
 50
270.8190
 51
289.7904
  0
LINE
  8
22
 10
33.3204
 20
129.9464
 30
0.0000
 11
33.3204
 21
130.8439
 31
0.0000
  0
LINE
  8
22
 10
33.3578
 20
131.2178
 30
0.0000
 11
33.3578
 21
131.2926
 31
0.0000
  0
LINE
  8
22
 10
33.3578
 20
131.2926
 30
0.0000
 11
33.2830
 21
131.2926
 31
0.0000
  0
LINE
  8
22
 10
33.2830
 20
131.2926
 30
0.0000
 11
33.2830
 21
131.2178
 31
0.0000
  0
LINE
  8
22
 10
33.2830
 20
131.2178
 30
0.0000
 11
33.3578
 21
131.2178
 31
0.0000
  0
LINE
  8
22
 10
32.1629
 20
131.2926
 30
0.0000
 11
32.1629
 21
129.9464
 31
0.0000
  0
LINE
  8
22
 10
32.1629
 20
129.9464
 30
0.0000
 11
32.5368
 21
129.9464
 31
0.0000
  0
ARC
  8
22
 10
32.5368
 20
130.1708
 30
0.0000
 40
0.2244
 50
270.0000
 51
0.0008
  0
LINE
  8
22
 10
32.7612
 20
130.1708
 30
0.0000
 11
32.7612
 21
130.6195
 31
0.0000
  0
ARC
  8
22
 10
32.5368
 20
130.6195
 30
0.0000
 40
0.2244
 50
0.0000
 51
90.0000
  0
LINE
  8
22
 10
32.5368
 20
130.8439
 30
0.0000
 11
32.1629
 21
130.8439
 31
0.0000
  0
LINE
  8
22
 10
30.9223
 20
129.9464
 30
0.0000
 11
31.2963
 21
129.9464
 31
0.0000
  0
ARC
  8
22
 10
31.2963
 20
130.1708
 30
0.0000
 40
0.2244
 50
270.0000
 51
0.0008
  0
LINE
  8
22
 10
31.5206
 20
130.1708
 30
0.0000
 11
31.5206
 21
130.5447
 31
0.0000
  0
ARC
  8
22
 10
31.2215
 20
130.5447
 30
0.0000
 40
0.2992
 50
0.0000
 51
180.0000
  0
LINE
  8
22
 10
30.9223
 20
130.5447
 30
0.0000
 11
30.9223
 21
130.3951
 31
0.0000
  0
LINE
  8
22
 10
30.9223
 20
130.3951
 30
0.0000
 11
31.5206
 21
130.3951
 31
0.0000
  0
CIRCLE
  8
20
 10
276.9800
 20
55.0000
 30
0.0000
 40
1.5000
  0
CIRCLE
  8
20
 10
276.9800
 20
39.7100
 30
0.0000
 40
2.0000
  0
CIRCLE
  8
20
 10
300.7800
 20
54.9925
 30
0.0000
 40
1.5000
  0
CIRCLE
  8
20
 10
300.7800
 20
39.7025
 30
0.0000
 40
2.0000
  0
CIRCLE
  8
20
 10
84.2300
 20
2.8000
 30
0.0000
 40
1.5000
  0
CIRCLE
  8
20
 10
84.2300
 20
18.0900
 30
0.0000
 40
2.0000
  0
CIRCLE
  8
20
 10
198.5300
 20
2.8000
 30
0.0000
 40
1.5000
  0
CIRCLE
  8
20
 10
198.5300
 20
18.0900
 30
0.0000
 40
2.0000
  0
ENDSEC
  0
EOF
