  0
SECTION
  2
HEADER
  9
$ACADVER
  1
AC1009
  9
$FILLMODE
 70
0
  9
$EXTMIN
 10
-9.7348
 20
-16.1345
 30
0.0000
  9
$EXTMAX
 10
385.7300
 20
144.5387
 30
0.0000
  0
ENDSEC
  0
SECTION
  2
TABLES
  0
TABLE
  2
LTYPE
 70
1
  0
LTYPE
  2
CONTINUOUS
 70
64
  3
Solid line
 72
65
 73
0
 40
0
  0
ENDTAB
  0
TABLE
  2
LAYER
 70
255
  0
LAYER
  2
19
 70
64
 62
53
  6
CONTINUOUS
  0
LAYER
  2
20
 70
64
 62
30
  6
CONTINUOUS
  0
LAYER
  2
102
 70
64
 62
253
  6
CONTINUOUS
  0
LAYER
  2
111
 70
64
 62
253
  6
CONTINUOUS
  0
LAYER
  2
112
 70
64
 62
253
  6
CONTINUOUS
  0
LAYER
  2
113
 70
64
 62
253
  6
CONTINUOUS
  0
LAYER
  2
114
 70
64
 62
253
  6
CONTINUOUS
  0
LAYER
  2
115
 70
64
 62
253
  6
CONTINUOUS
  0
LAYER
  2
116
 70
64
 62
253
  6
CONTINUOUS
  0
LAYER
  2
117
 70
64
 62
253
  6
CONTINUOUS
  0
LAYER
  2
118
 70
64
 62
253
  6
CONTINUOUS
  0
LAYER
  2
119
 70
64
 62
253
  6
CONTINUOUS
  0
LAYER
  2
120
 70
64
 62
253
  6
CONTINUOUS
  0
LAYER
  2
121
 70
64
 62
253
  6
CONTINUOUS
  0
LAYER
  2
122
 70
64
 62
253
  6
CONTINUOUS
  0
LAYER
  2
123
 70
64
 62
253
  6
CONTINUOUS
  0
LAYER
  2
124
 70
64
 62
253
  6
CONTINUOUS
  0
LAYER
  2
127
 70
64
 62
253
  6
CONTINUOUS
  0
LAYER
  2
128
 70
64
 62
253
  6
CONTINUOUS
  0
LAYER
  2
129
 70
64
 62
253
  6
CONTINUOUS
  0
LAYER
  2
130
 70
64
 62
253
  6
CONTINUOUS
  0
LAYER
  2
131
 70
64
 62
253
  6
CONTINUOUS
  0
LAYER
  2
132
 70
64
 62
253
  6
CONTINUOUS
  0
LAYER
  2
133
 70
64
 62
253
  6
CONTINUOUS
  0
LAYER
  2
134
 70
64
 62
253
  6
CONTINUOUS
  0
LAYER
  2
135
 70
64
 62
253
  6
CONTINUOUS
  0
LAYER
  2
136
 70
64
 62
253
  6
CONTINUOUS
  0
LAYER
  2
137
 70
64
 62
253
  6
CONTINUOUS
  0
LAYER
  2
138
 70
64
 62
253
  6
CONTINUOUS
  0
LAYER
  2
139
 70
64
 62
253
  6
CONTINUOUS
  0
LAYER
  2
140
 70
64
 62
253
  6
CONTINUOUS
  0
LAYER
  2
141
 70
64
 62
253
  6
CONTINUOUS
  0
LAYER
  2
142
 70
64
 62
253
  6
CONTINUOUS
  0
LAYER
  2
143
 70
64
 62
253
  6
CONTINUOUS
  0
LAYER
  2
144
 70
64
 62
253
  6
CONTINUOUS
  0
LAYER
  2
145
 70
64
 62
253
  6
CONTINUOUS
  0
LAYER
  2
146
 70
64
 62
253
  6
CONTINUOUS
  0
LAYER
  2
147
 70
64
 62
253
  6
CONTINUOUS
  0
LAYER
  2
148
 70
64
 62
253
  6
CONTINUOUS
  0
LAYER
  2
149
 70
64
 62
253
  6
CONTINUOUS
  0
LAYER
  2
150
 70
64
 62
253
  6
CONTINUOUS
  0
LAYER
  2
152
 70
64
 62
253
  6
CONTINUOUS
  0
LAYER
  2
153
 70
64
 62
253
  6
CONTINUOUS
  0
LAYER
  2
154
 70
64
 62
253
  6
CONTINUOUS
  0
LAYER
  2
155
 70
64
 62
253
  6
CONTINUOUS
  0
LAYER
  2
191
 70
64
 62
253
  6
CONTINUOUS
  0
LAYER
  2
192
 70
64
 62
253
  6
CONTINUOUS
  0
LAYER
  2
193
 70
64
 62
253
  6
CONTINUOUS
  0
LAYER
  2
194
 70
64
 62
253
  6
CONTINUOUS
  0
LAYER
  2
195
 70
64
 62
253
  6
CONTINUOUS
  0
LAYER
  2
196
 70
64
 62
253
  6
CONTINUOUS
  0
LAYER
  2
199
 70
64
 62
253
  6
CONTINUOUS
  0
LAYER
  2
200
 70
64
 62
253
  6
CONTINUOUS
  0
LAYER
  2
201
 70
64
 62
253
  6
CONTINUOUS
  0
LAYER
  2
202
 70
64
 62
253
  6
CONTINUOUS
  0
LAYER
  2
203
 70
64
 62
253
  6
CONTINUOUS
  0
LAYER
  2
204
 70
64
 62
253
  6
CONTINUOUS
  0
LAYER
  2
205
 70
64
 62
253
  6
CONTINUOUS
  0
LAYER
  2
206
 70
64
 62
253
  6
CONTINUOUS
  0
LAYER
  2
207
 70
64
 62
253
  6
CONTINUOUS
  0
LAYER
  2
208
 70
64
 62
253
  6
CONTINUOUS
  0
LAYER
  2
209
 70
64
 62
253
  6
CONTINUOUS
  0
LAYER
  2
210
 70
64
 62
253
  6
CONTINUOUS
  0
LAYER
  2
211
 70
64
 62
253
  6
CONTINUOUS
  0
LAYER
  2
212
 70
64
 62
253
  6
CONTINUOUS
  0
LAYER
  2
213
 70
64
 62
253
  6
CONTINUOUS
  0
LAYER
  2
214
 70
64
 62
253
  6
CONTINUOUS
  0
LAYER
  2
215
 70
64
 62
253
  6
CONTINUOUS
  0
LAYER
  2
216
 70
64
 62
253
  6
CONTINUOUS
  0
LAYER
  2
217
 70
64
 62
253
  6
CONTINUOUS
  0
LAYER
  2
218
 70
64
 62
253
  6
CONTINUOUS
  0
LAYER
  2
219
 70
64
 62
253
  6
CONTINUOUS
  0
LAYER
  2
220
 70
64
 62
253
  6
CONTINUOUS
  0
LAYER
  2
221
 70
64
 62
253
  6
CONTINUOUS
  0
LAYER
  2
222
 70
64
 62
253
  6
CONTINUOUS
  0
LAYER
  2
223
 70
64
 62
253
  6
CONTINUOUS
  0
LAYER
  2
224
 70
64
 62
253
  6
CONTINUOUS
  0
LAYER
  2
225
 70
64
 62
253
  6
CONTINUOUS
  0
LAYER
  2
226
 70
64
 62
253
  6
CONTINUOUS
  0
LAYER
  2
227
 70
64
 62
253
  6
CONTINUOUS
  0
LAYER
  2
228
 70
64
 62
253
  6
CONTINUOUS
  0
LAYER
  2
229
 70
64
 62
253
  6
CONTINUOUS
  0
LAYER
  2
230
 70
64
 62
253
  6
CONTINUOUS
  0
LAYER
  2
231
 70
64
 62
253
  6
CONTINUOUS
  0
LAYER
  2
232
 70
64
 62
253
  6
CONTINUOUS
  0
LAYER
  2
233
 70
64
 62
253
  6
CONTINUOUS
  0
LAYER
  2
248
 70
64
 62
253
  6
CONTINUOUS
  0
LAYER
  2
249
 70
64
 62
253
  6
CONTINUOUS
  0
LAYER
  2
250
 70
64
 62
253
  6
CONTINUOUS
  0
LAYER
  2
251
 70
64
 62
253
  6
CONTINUOUS
  0
LAYER
  2
254
 70
64
 62
253
  6
CONTINUOUS
  0
LAYER
  2
255
 70
64
 62
253
  6
CONTINUOUS
  0
ENDTAB
  0
ENDSEC
  0
SECTION
  2
BLOCKS
  0
BLOCK
  8
0
  2
RECT
 70
64
 10
0.0000
 20
0.0000
 30
0.0000
  3
RECT
  0
SOLID
  8
0
 10
-0.5000
 20
-0.5000
 30
0.0000
 11
0.5000
 21
-0.5000
 31
0.0000
 12
-0.5000
 22
0.5000
 32
0.0000
 13
0.5000
 23
0.5000
 33
0.0000
  0
ENDBLK
  8
0
  0
BLOCK
  8
0
  2
PIE
 70
64
 10
0.0000
 20
0.0000
 30
0.0000
  3
PIE
  0
CIRCLE
  8
0
 10
0.0000
 20
0.0000
 30
0.0000
 40
0.5000
  0
ENDBLK
  8
0
  0
BLOCK
  8
0
  2
OCTAGONP
 70
64
 10
0.0000
 20
0.0000
 30
0.0000
  3
OCTAGONP
  0
POLYLINE
  8
0
 66
1
 10
0.0000
 20
0.0000
 30
0.0000
 40
0.0000
 41
0.0000
 70
1
  0
VERTEX
  8
0
 10
-0.5000
 20
-0.2071
 30
0.0000
  0
VERTEX
  8
0
 10
-0.5000
 20
0.2071
 30
0.0000
  0
VERTEX
  8
0
 10
-0.2071
 20
0.5000
 30
0.0000
  0
VERTEX
  8
0
 10
0.2071
 20
0.5000
 30
0.0000
  0
VERTEX
  8
0
 10
0.5000
 20
0.2071
 30
0.0000
  0
VERTEX
  8
0
 10
0.5000
 20
-0.2071
 30
0.0000
  0
VERTEX
  8
0
 10
0.2071
 20
-0.5000
 30
0.0000
  0
VERTEX
  8
0
 10
-0.2071
 20
-0.5000
 30
0.0000
  0
SEQEND
  8
0
  0
ENDBLK
  8
0
  0
BLOCK
  8
0
  2
SQUAREP
 70
64
 10
0.0000
 20
0.0000
 30
0.0000
  3
SQUAREP
  0
SOLID
  8
0
 10
-0.5000
 20
-0.5000
 30
0.0000
 11
0.5000
 21
-0.5000
 31
0.0000
 12
-0.5000
 22
0.5000
 32
0.0000
 13
0.5000
 23
0.5000
 33
0.0000
  0
ENDBLK
  8
0
  0
BLOCK
  8
0
  2
ROUNDP
 70
64
 10
0.0000
 20
0.0000
 30
0.0000
  3
ROUNDP
  0
CIRCLE
  8
0
 10
0.0000
 20
0.0000
 30
0.0000
 40
0.5000
  0
ENDBLK
  8
0
  0
BLOCK
  8
0
  2
ANNULUSP
 70
64
 10
0.0000
 20
0.0000
 30
0.0000
  3
ANNULUSP
  0
CIRCLE
  8
0
 10
0.0000
 20
0.0000
 30
0.0000
 40
0.5000
  0
ENDBLK
  8
0
  0
BLOCK
  8
0
  2
THERMALP
 70
64
 10
0.0000
 20
0.0000
 30
0.0000
  3
THERMALP
  0
LINE
  8
0
 10
-0.2379
 20
0.4500
 30
0.0000
 11
0.2379
 21
0.4500
 31
0.0000
  0
LINE
  8
0
 10
0.4500
 20
0.2379
 30
0.0000
 11
0.4500
 21
-0.2379
 31
0.0000
  0
LINE
  8
0
 10
0.2379
 20
-0.4500
 30
0.0000
 11
-0.2379
 21
-0.4500
 31
0.0000
  0
LINE
  8
0
 10
-0.4500
 20
-0.2379
 30
0.0000
 11
-0.4500
 21
0.2379
 31
0.0000
  0
ENDBLK
  8
0
  0
BLOCK
  8
0
  2
OCTAGONV
 70
64
 10
0.0000
 20
0.0000
 30
0.0000
  3
OCTAGONV
  0
POLYLINE
  8
0
 66
1
 10
0.0000
 20
0.0000
 30
0.0000
 40
0.0000
 41
0.0000
 70
1
  0
VERTEX
  8
0
 10
-0.5000
 20
-0.2071
 30
0.0000
  0
VERTEX
  8
0
 10
-0.5000
 20
0.2071
 30
0.0000
  0
VERTEX
  8
0
 10
-0.2071
 20
0.5000
 30
0.0000
  0
VERTEX
  8
0
 10
0.2071
 20
0.5000
 30
0.0000
  0
VERTEX
  8
0
 10
0.5000
 20
0.2071
 30
0.0000
  0
VERTEX
  8
0
 10
0.5000
 20
-0.2071
 30
0.0000
  0
VERTEX
  8
0
 10
0.2071
 20
-0.5000
 30
0.0000
  0
VERTEX
  8
0
 10
-0.2071
 20
-0.5000
 30
0.0000
  0
SEQEND
  8
0
  0
ENDBLK
  8
0
  0
BLOCK
  8
0
  2
SQUAREV
 70
64
 10
0.0000
 20
0.0000
 30
0.0000
  3
SQUAREV
  0
SOLID
  8
0
 10
-0.5000
 20
-0.5000
 30
0.0000
 11
0.5000
 21
-0.5000
 31
0.0000
 12
-0.5000
 22
0.5000
 32
0.0000
 13
0.5000
 23
0.5000
 33
0.0000
  0
ENDBLK
  8
0
  0
BLOCK
  8
0
  2
ROUNDV
 70
64
 10
0.0000
 20
0.0000
 30
0.0000
  3
ROUNDV
  0
CIRCLE
  8
0
 10
0.0000
 20
0.0000
 30
0.0000
 40
0.5000
  0
ENDBLK
  8
0
  0
BLOCK
  8
0
  2
ANNULUSV
 70
64
 10
0.0000
 20
0.0000
 30
0.0000
  3
ANNULUSV
  0
CIRCLE
  8
0
 10
0.0000
 20
0.0000
 30
0.0000
 40
0.5000
  0
ENDBLK
  8
0
  0
BLOCK
  8
0
  2
THERMALV
 70
64
 10
0.0000
 20
0.0000
 30
0.0000
  3
THERMALV
  0
LINE
  8
0
 10
-0.2379
 20
0.4500
 30
0.0000
 11
0.2379
 21
0.4500
 31
0.0000
  0
LINE
  8
0
 10
0.4500
 20
0.2379
 30
0.0000
 11
0.4500
 21
-0.2379
 31
0.0000
  0
LINE
  8
0
 10
0.2379
 20
-0.4500
 30
0.0000
 11
-0.2379
 21
-0.4500
 31
0.0000
  0
LINE
  8
0
 10
-0.4500
 20
-0.2379
 30
0.0000
 11
-0.4500
 21
0.2379
 31
0.0000
  0
ENDBLK
  8
0
  0
ENDSEC
  0
SECTION
  2
ENTITIES
  0
LINE
  8
20
 10
0.0000
 20
0.0000
 30
0.0000
 11
385.6000
 21
0.0000
 31
0.0000
  0
LINE
  8
20
 10
385.6000
 20
0.0000
 30
0.0000
 11
385.6000
 21
96.4000
 31
0.0000
  0
LINE
  8
20
 10
385.6000
 20
96.4000
 30
0.0000
 11
0.0000
 21
96.4000
 31
0.0000
  0
LINE
  8
20
 10
0.0000
 20
96.4000
 30
0.0000
 11
0.0000
 21
0.0000
 31
0.0000
  0
CIRCLE
  8
20
 10
3.0000
 20
94.4000
 30
0.0000
 40
1.2500
  0
CIRCLE
  8
20
 10
3.0000
 20
2.0000
 30
0.0000
 40
1.2500
  0
CIRCLE
  8
20
 10
46.1600
 20
94.4000
 30
0.0000
 40
1.2500
  0
CIRCLE
  8
20
 10
103.2900
 20
94.4000
 30
0.0000
 40
1.2500
  0
CIRCLE
  8
20
 10
160.4400
 20
94.4000
 30
0.0000
 40
1.2500
  0
CIRCLE
  8
20
 10
217.5200
 20
94.4000
 30
0.0000
 40
1.2500
  0
CIRCLE
  8
20
 10
274.6400
 20
94.4000
 30
0.0000
 40
1.2500
  0
CIRCLE
  8
20
 10
331.7600
 20
94.4000
 30
0.0000
 40
1.2500
  0
CIRCLE
  8
20
 10
382.6000
 20
94.4000
 30
0.0000
 40
1.2500
  0
CIRCLE
  8
20
 10
46.1600
 20
2.0000
 30
0.0000
 40
1.2500
  0
CIRCLE
  8
20
 10
103.2900
 20
2.0000
 30
0.0000
 40
1.2500
  0
CIRCLE
  8
20
 10
160.4400
 20
2.0000
 30
0.0000
 40
1.2500
  0
CIRCLE
  8
20
 10
274.6400
 20
2.0000
 30
0.0000
 40
1.2500
  0
CIRCLE
  8
20
 10
347.0000
 20
2.0000
 30
0.0000
 40
1.2500
  0
CIRCLE
  8
20
 10
382.6000
 20
2.0000
 30
0.0000
 40
1.2500
  0
CIRCLE
  8
20
 10
74.8000
 20
76.0000
 30
0.0000
 40
1.2500
  0
CIRCLE
  8
20
 10
131.9200
 20
76.0000
 30
0.0000
 40
1.2500
  0
CIRCLE
  8
20
 10
189.0400
 20
76.0000
 30
0.0000
 40
1.2500
  0
CIRCLE
  8
20
 10
246.1400
 20
76.0000
 30
0.0000
 40
1.2500
  0
CIRCLE
  8
20
 10
313.0000
 20
76.0000
 30
0.0000
 40
1.2500
  0
CIRCLE
  8
20
 10
50.8800
 20
37.8000
 30
0.0000
 40
1.2500
  0
CIRCLE
  8
20
 10
108.0000
 20
37.8000
 30
0.0000
 40
1.2500
  0
CIRCLE
  8
20
 10
165.1200
 20
37.8000
 30
0.0000
 40
1.2500
  0
CIRCLE
  8
20
 10
222.2400
 20
37.8000
 30
0.0000
 40
1.2500
  0
CIRCLE
  8
20
 10
269.8400
 20
37.8000
 30
0.0000
 40
1.2500
  0
CIRCLE
  8
20
 10
334.3400
 20
37.8000
 30
0.0000
 40
1.2500
  0
CIRCLE
  8
20
 10
230.8000
 20
2.0000
 30
0.0000
 40
1.2500
  0
CIRCLE
  8
20
 10
316.0000
 20
14.0000
 30
0.0000
 40
1.2500
  0
CIRCLE
  8
20
 10
368.0000
 20
14.0000
 30
0.0000
 40
1.2500
  0
CIRCLE
  8
20
 10
368.0000
 20
30.0000
 30
0.0000
 40
1.2500
  0
CIRCLE
  8
20
 10
366.0000
 20
87.0000
 30
0.0000
 40
1.2500
  0
CIRCLE
  8
20
 10
362.0000
 20
12.0000
 30
0.0000
 40
2.5000
  0
CIRCLE
  8
20
 10
17.6000
 20
86.0500
 30
0.0000
 40
2.0000
  0
CIRCLE
  8
20
 10
22.6800
 20
86.0500
 30
0.0000
 40
0.8500
  0
CIRCLE
  8
20
 10
12.5200
 20
86.0500
 30
0.0000
 40
0.8500
  0
CIRCLE
  8
20
 10
36.6400
 20
86.0500
 30
0.0000
 40
2.0000
  0
CIRCLE
  8
20
 10
41.7200
 20
86.0500
 30
0.0000
 40
0.8500
  0
CIRCLE
  8
20
 10
31.5600
 20
86.0500
 30
0.0000
 40
0.8500
  0
CIRCLE
  8
20
 10
55.6800
 20
86.0500
 30
0.0000
 40
2.0000
  0
CIRCLE
  8
20
 10
60.7600
 20
86.0500
 30
0.0000
 40
0.8500
  0
CIRCLE
  8
20
 10
50.6000
 20
86.0500
 30
0.0000
 40
0.8500
  0
CIRCLE
  8
20
 10
74.7200
 20
86.0500
 30
0.0000
 40
2.0000
  0
CIRCLE
  8
20
 10
79.8000
 20
86.0500
 30
0.0000
 40
0.8500
  0
CIRCLE
  8
20
 10
69.6400
 20
86.0500
 30
0.0000
 40
0.8500
  0
CIRCLE
  8
20
 10
93.7600
 20
86.0500
 30
0.0000
 40
2.0000
  0
CIRCLE
  8
20
 10
98.8400
 20
86.0500
 30
0.0000
 40
0.8500
  0
CIRCLE
  8
20
 10
88.6800
 20
86.0500
 30
0.0000
 40
0.8500
  0
CIRCLE
  8
20
 10
112.8000
 20
86.0500
 30
0.0000
 40
2.0000
  0
CIRCLE
  8
20
 10
117.8800
 20
86.0500
 30
0.0000
 40
0.8500
  0
CIRCLE
  8
20
 10
107.7200
 20
86.0500
 30
0.0000
 40
0.8500
  0
CIRCLE
  8
20
 10
131.8400
 20
86.0500
 30
0.0000
 40
2.0000
  0
CIRCLE
  8
20
 10
136.9200
 20
86.0500
 30
0.0000
 40
0.8500
  0
CIRCLE
  8
20
 10
126.7600
 20
86.0500
 30
0.0000
 40
0.8500
  0
CIRCLE
  8
20
 10
150.8800
 20
86.0500
 30
0.0000
 40
2.0000
  0
CIRCLE
  8
20
 10
155.9600
 20
86.0500
 30
0.0000
 40
0.8500
  0
CIRCLE
  8
20
 10
145.8000
 20
86.0500
 30
0.0000
 40
0.8500
  0
CIRCLE
  8
20
 10
169.9200
 20
86.0500
 30
0.0000
 40
2.0000
  0
CIRCLE
  8
20
 10
175.0000
 20
86.0500
 30
0.0000
 40
0.8500
  0
CIRCLE
  8
20
 10
164.8400
 20
86.0500
 30
0.0000
 40
0.8500
  0
CIRCLE
  8
20
 10
188.9600
 20
86.0500
 30
0.0000
 40
2.0000
  0
CIRCLE
  8
20
 10
194.0400
 20
86.0500
 30
0.0000
 40
0.8500
  0
CIRCLE
  8
20
 10
183.8800
 20
86.0500
 30
0.0000
 40
0.8500
  0
CIRCLE
  8
20
 10
208.0000
 20
86.0500
 30
0.0000
 40
2.0000
  0
CIRCLE
  8
20
 10
213.0800
 20
86.0500
 30
0.0000
 40
0.8500
  0
CIRCLE
  8
20
 10
202.9200
 20
86.0500
 30
0.0000
 40
0.8500
  0
CIRCLE
  8
20
 10
227.0400
 20
86.0500
 30
0.0000
 40
2.0000
  0
CIRCLE
  8
20
 10
232.1200
 20
86.0500
 30
0.0000
 40
0.8500
  0
CIRCLE
  8
20
 10
221.9600
 20
86.0500
 30
0.0000
 40
0.8500
  0
CIRCLE
  8
20
 10
246.0800
 20
86.0500
 30
0.0000
 40
2.0000
  0
CIRCLE
  8
20
 10
251.1600
 20
86.0500
 30
0.0000
 40
0.8500
  0
CIRCLE
  8
20
 10
241.0000
 20
86.0500
 30
0.0000
 40
0.8500
  0
CIRCLE
  8
20
 10
265.1200
 20
86.0500
 30
0.0000
 40
2.0000
  0
CIRCLE
  8
20
 10
270.2000
 20
86.0500
 30
0.0000
 40
0.8500
  0
CIRCLE
  8
20
 10
260.0400
 20
86.0500
 30
0.0000
 40
0.8500
  0
CIRCLE
  8
20
 10
284.1600
 20
86.0500
 30
0.0000
 40
2.0000
  0
CIRCLE
  8
20
 10
289.2400
 20
86.0500
 30
0.0000
 40
0.8500
  0
CIRCLE
  8
20
 10
279.0800
 20
86.0500
 30
0.0000
 40
0.8500
  0
CIRCLE
  8
20
 10
303.2000
 20
86.0500
 30
0.0000
 40
2.0000
  0
CIRCLE
  8
20
 10
308.2800
 20
86.0500
 30
0.0000
 40
0.8500
  0
CIRCLE
  8
20
 10
298.1200
 20
86.0500
 30
0.0000
 40
0.8500
  0
CIRCLE
  8
20
 10
353.8500
 20
86.0500
 30
0.0000
 40
2.0000
  0
CIRCLE
  8
20
 10
353.8500
 20
80.9700
 30
0.0000
 40
0.8500
  0
CIRCLE
  8
20
 10
353.8500
 20
91.1300
 30
0.0000
 40
0.8500
  0
CIRCLE
  8
20
 10
349.1000
 20
86.0500
 30
0.0000
 40
2.0000
  0
CIRCLE
  8
20
 10
349.1000
 20
91.1300
 30
0.0000
 40
0.8500
  0
CIRCLE
  8
20
 10
349.1000
 20
80.9700
 30
0.0000
 40
0.8500
  0
CIRCLE
  8
20
 10
27.2000
 20
67.0000
 30
0.0000
 40
2.0000
  0
CIRCLE
  8
20
 10
27.2000
 20
61.9200
 30
0.0000
 40
0.8500
  0
CIRCLE
  8
20
 10
27.2000
 20
72.0800
 30
0.0000
 40
0.8500
  0
CIRCLE
  8
20
 10
22.4500
 20
67.0000
 30
0.0000
 40
2.0000
  0
CIRCLE
  8
20
 10
22.4500
 20
72.0800
 30
0.0000
 40
0.8500
  0
CIRCLE
  8
20
 10
22.4500
 20
61.9200
 30
0.0000
 40
0.8500
  0
CIRCLE
  8
20
 10
46.2400
 20
67.0000
 30
0.0000
 40
2.0000
  0
CIRCLE
  8
20
 10
51.3200
 20
67.0000
 30
0.0000
 40
0.8500
  0
CIRCLE
  8
20
 10
41.1600
 20
67.0000
 30
0.0000
 40
0.8500
  0
CIRCLE
  8
20
 10
65.2800
 20
67.0000
 30
0.0000
 40
2.0000
  0
CIRCLE
  8
20
 10
70.3600
 20
67.0000
 30
0.0000
 40
0.8500
  0
CIRCLE
  8
20
 10
60.2000
 20
67.0000
 30
0.0000
 40
0.8500
  0
CIRCLE
  8
20
 10
84.3200
 20
67.0000
 30
0.0000
 40
2.0000
  0
CIRCLE
  8
20
 10
89.4000
 20
67.0000
 30
0.0000
 40
0.8500
  0
CIRCLE
  8
20
 10
79.2400
 20
67.0000
 30
0.0000
 40
0.8500
  0
CIRCLE
  8
20
 10
103.3600
 20
67.0000
 30
0.0000
 40
2.0000
  0
CIRCLE
  8
20
 10
108.4400
 20
67.0000
 30
0.0000
 40
0.8500
  0
CIRCLE
  8
20
 10
98.2800
 20
67.0000
 30
0.0000
 40
0.8500
  0
CIRCLE
  8
20
 10
122.4000
 20
67.0000
 30
0.0000
 40
2.0000
  0
CIRCLE
  8
20
 10
127.4800
 20
67.0000
 30
0.0000
 40
0.8500
  0
CIRCLE
  8
20
 10
117.3200
 20
67.0000
 30
0.0000
 40
0.8500
  0
CIRCLE
  8
20
 10
141.4400
 20
67.0000
 30
0.0000
 40
2.0000
  0
CIRCLE
  8
20
 10
146.5200
 20
67.0000
 30
0.0000
 40
0.8500
  0
CIRCLE
  8
20
 10
136.3600
 20
67.0000
 30
0.0000
 40
0.8500
  0
CIRCLE
  8
20
 10
160.4800
 20
67.0000
 30
0.0000
 40
2.0000
  0
CIRCLE
  8
20
 10
165.5600
 20
67.0000
 30
0.0000
 40
0.8500
  0
CIRCLE
  8
20
 10
155.4000
 20
67.0000
 30
0.0000
 40
0.8500
  0
CIRCLE
  8
20
 10
179.5200
 20
67.0000
 30
0.0000
 40
2.0000
  0
CIRCLE
  8
20
 10
184.6000
 20
67.0000
 30
0.0000
 40
0.8500
  0
CIRCLE
  8
20
 10
174.4400
 20
67.0000
 30
0.0000
 40
0.8500
  0
CIRCLE
  8
20
 10
198.5600
 20
67.0000
 30
0.0000
 40
2.0000
  0
CIRCLE
  8
20
 10
203.6400
 20
67.0000
 30
0.0000
 40
0.8500
  0
CIRCLE
  8
20
 10
193.4800
 20
67.0000
 30
0.0000
 40
0.8500
  0
CIRCLE
  8
20
 10
217.6000
 20
67.0000
 30
0.0000
 40
2.0000
  0
CIRCLE
  8
20
 10
222.6800
 20
67.0000
 30
0.0000
 40
0.8500
  0
CIRCLE
  8
20
 10
212.5200
 20
67.0000
 30
0.0000
 40
0.8500
  0
CIRCLE
  8
20
 10
236.6400
 20
67.0000
 30
0.0000
 40
2.0000
  0
CIRCLE
  8
20
 10
241.7200
 20
67.0000
 30
0.0000
 40
0.8500
  0
CIRCLE
  8
20
 10
231.5600
 20
67.0000
 30
0.0000
 40
0.8500
  0
CIRCLE
  8
20
 10
255.6800
 20
67.0000
 30
0.0000
 40
2.0000
  0
CIRCLE
  8
20
 10
260.7600
 20
67.0000
 30
0.0000
 40
0.8500
  0
CIRCLE
  8
20
 10
250.6000
 20
67.0000
 30
0.0000
 40
0.8500
  0
CIRCLE
  8
20
 10
274.7200
 20
67.0000
 30
0.0000
 40
2.0000
  0
CIRCLE
  8
20
 10
279.8000
 20
67.0000
 30
0.0000
 40
0.8500
  0
CIRCLE
  8
20
 10
269.6400
 20
67.0000
 30
0.0000
 40
0.8500
  0
CIRCLE
  8
20
 10
293.7600
 20
67.0000
 30
0.0000
 40
2.0000
  0
CIRCLE
  8
20
 10
293.7600
 20
72.0800
 30
0.0000
 40
0.8500
  0
CIRCLE
  8
20
 10
293.7600
 20
61.9200
 30
0.0000
 40
0.8500
  0
CIRCLE
  8
20
 10
298.5100
 20
67.0000
 30
0.0000
 40
2.0000
  0
CIRCLE
  8
20
 10
298.5100
 20
61.9200
 30
0.0000
 40
0.8500
  0
CIRCLE
  8
20
 10
298.5100
 20
72.0800
 30
0.0000
 40
0.8500
  0
CIRCLE
  8
20
 10
353.8500
 20
67.0000
 30
0.0000
 40
2.0000
  0
CIRCLE
  8
20
 10
353.8500
 20
61.9200
 30
0.0000
 40
0.8500
  0
CIRCLE
  8
20
 10
353.8500
 20
72.0800
 30
0.0000
 40
0.8500
  0
CIRCLE
  8
20
 10
349.1000
 20
67.0000
 30
0.0000
 40
2.0000
  0
CIRCLE
  8
20
 10
349.1000
 20
72.0800
 30
0.0000
 40
0.8500
  0
CIRCLE
  8
20
 10
349.1000
 20
61.9200
 30
0.0000
 40
0.8500
  0
CIRCLE
  8
20
 10
12.8000
 20
47.9500
 30
0.0000
 40
2.0000
  0
CIRCLE
  8
20
 10
17.8800
 20
47.9500
 30
0.0000
 40
0.8500
  0
CIRCLE
  8
20
 10
7.7200
 20
47.9500
 30
0.0000
 40
0.8500
  0
CIRCLE
  8
20
 10
31.8400
 20
47.9500
 30
0.0000
 40
2.0000
  0
CIRCLE
  8
20
 10
26.7600
 20
47.9500
 30
0.0000
 40
0.8500
  0
CIRCLE
  8
20
 10
36.9200
 20
47.9500
 30
0.0000
 40
0.8500
  0
CIRCLE
  8
20
 10
50.8800
 20
47.9500
 30
0.0000
 40
2.0000
  0
CIRCLE
  8
20
 10
55.9600
 20
47.9500
 30
0.0000
 40
0.8500
  0
CIRCLE
  8
20
 10
45.8000
 20
47.9500
 30
0.0000
 40
0.8500
  0
CIRCLE
  8
20
 10
69.9200
 20
47.9500
 30
0.0000
 40
2.0000
  0
CIRCLE
  8
20
 10
75.0000
 20
47.9500
 30
0.0000
 40
0.8500
  0
CIRCLE
  8
20
 10
64.8400
 20
47.9500
 30
0.0000
 40
0.8500
  0
CIRCLE
  8
20
 10
88.9600
 20
47.9500
 30
0.0000
 40
2.0000
  0
CIRCLE
  8
20
 10
94.0400
 20
47.9500
 30
0.0000
 40
0.8500
  0
CIRCLE
  8
20
 10
83.8800
 20
47.9500
 30
0.0000
 40
0.8500
  0
CIRCLE
  8
20
 10
108.0000
 20
47.9500
 30
0.0000
 40
2.0000
  0
CIRCLE
  8
20
 10
113.0800
 20
47.9500
 30
0.0000
 40
0.8500
  0
CIRCLE
  8
20
 10
102.9200
 20
47.9500
 30
0.0000
 40
0.8500
  0
CIRCLE
  8
20
 10
127.0400
 20
47.9500
 30
0.0000
 40
2.0000
  0
CIRCLE
  8
20
 10
132.1200
 20
47.9500
 30
0.0000
 40
0.8500
  0
CIRCLE
  8
20
 10
121.9600
 20
47.9500
 30
0.0000
 40
0.8500
  0
CIRCLE
  8
20
 10
146.0800
 20
47.9500
 30
0.0000
 40
2.0000
  0
CIRCLE
  8
20
 10
151.1600
 20
47.9500
 30
0.0000
 40
0.8500
  0
CIRCLE
  8
20
 10
141.0000
 20
47.9500
 30
0.0000
 40
0.8500
  0
CIRCLE
  8
20
 10
165.1200
 20
47.9500
 30
0.0000
 40
2.0000
  0
CIRCLE
  8
20
 10
170.2000
 20
47.9500
 30
0.0000
 40
0.8500
  0
CIRCLE
  8
20
 10
160.0400
 20
47.9500
 30
0.0000
 40
0.8500
  0
CIRCLE
  8
20
 10
184.1600
 20
47.9500
 30
0.0000
 40
2.0000
  0
CIRCLE
  8
20
 10
189.2400
 20
47.9500
 30
0.0000
 40
0.8500
  0
CIRCLE
  8
20
 10
179.0800
 20
47.9500
 30
0.0000
 40
0.8500
  0
CIRCLE
  8
20
 10
203.2000
 20
47.9500
 30
0.0000
 40
2.0000
  0
CIRCLE
  8
20
 10
208.2800
 20
47.9500
 30
0.0000
 40
0.8500
  0
CIRCLE
  8
20
 10
198.1200
 20
47.9500
 30
0.0000
 40
0.8500
  0
CIRCLE
  8
20
 10
222.2400
 20
47.9500
 30
0.0000
 40
2.0000
  0
CIRCLE
  8
20
 10
227.3200
 20
47.9500
 30
0.0000
 40
0.8500
  0
CIRCLE
  8
20
 10
217.1600
 20
47.9500
 30
0.0000
 40
0.8500
  0
CIRCLE
  8
20
 10
241.2800
 20
47.9500
 30
0.0000
 40
2.0000
  0
CIRCLE
  8
20
 10
246.3600
 20
47.9500
 30
0.0000
 40
0.8500
  0
CIRCLE
  8
20
 10
236.2000
 20
47.9500
 30
0.0000
 40
0.8500
  0
CIRCLE
  8
20
 10
260.3200
 20
47.9500
 30
0.0000
 40
2.0000
  0
CIRCLE
  8
20
 10
265.4000
 20
47.9500
 30
0.0000
 40
0.8500
  0
CIRCLE
  8
20
 10
255.2400
 20
47.9500
 30
0.0000
 40
0.8500
  0
CIRCLE
  8
20
 10
288.8800
 20
47.9500
 30
0.0000
 40
2.0000
  0
CIRCLE
  8
20
 10
293.9600
 20
47.9500
 30
0.0000
 40
0.8500
  0
CIRCLE
  8
20
 10
283.8000
 20
47.9500
 30
0.0000
 40
0.8500
  0
CIRCLE
  8
20
 10
353.8500
 20
47.9500
 30
0.0000
 40
2.0000
  0
CIRCLE
  8
20
 10
353.8500
 20
42.8700
 30
0.0000
 40
0.8500
  0
CIRCLE
  8
20
 10
353.8500
 20
53.0300
 30
0.0000
 40
0.8500
  0
CIRCLE
  8
20
 10
349.1000
 20
47.9500
 30
0.0000
 40
2.0000
  0
CIRCLE
  8
20
 10
349.1000
 20
53.0300
 30
0.0000
 40
0.8500
  0
CIRCLE
  8
20
 10
349.1000
 20
42.8700
 30
0.0000
 40
0.8500
  0
CIRCLE
  8
20
 10
12.8000
 20
28.9000
 30
0.0000
 40
2.0000
  0
CIRCLE
  8
20
 10
17.8800
 20
28.9000
 30
0.0000
 40
0.8500
  0
CIRCLE
  8
20
 10
7.7200
 20
28.9000
 30
0.0000
 40
0.8500
  0
CIRCLE
  8
20
 10
41.3600
 20
28.9000
 30
0.0000
 40
2.0000
  0
CIRCLE
  8
20
 10
41.3600
 20
23.8200
 30
0.0000
 40
0.8500
  0
CIRCLE
  8
20
 10
41.3600
 20
33.9800
 30
0.0000
 40
0.8500
  0
CIRCLE
  8
20
 10
36.6100
 20
28.9000
 30
0.0000
 40
2.0000
  0
CIRCLE
  8
20
 10
36.6100
 20
33.9800
 30
0.0000
 40
0.8500
  0
CIRCLE
  8
20
 10
36.6100
 20
23.8200
 30
0.0000
 40
0.8500
  0
CIRCLE
  8
20
 10
60.4000
 20
28.9000
 30
0.0000
 40
2.0000
  0
CIRCLE
  8
20
 10
65.4800
 20
28.9000
 30
0.0000
 40
0.8500
  0
CIRCLE
  8
20
 10
55.3200
 20
28.9000
 30
0.0000
 40
0.8500
  0
CIRCLE
  8
20
 10
79.4400
 20
28.9000
 30
0.0000
 40
2.0000
  0
CIRCLE
  8
20
 10
84.5200
 20
28.9000
 30
0.0000
 40
0.8500
  0
CIRCLE
  8
20
 10
74.3600
 20
28.9000
 30
0.0000
 40
0.8500
  0
CIRCLE
  8
20
 10
98.4800
 20
28.9000
 30
0.0000
 40
2.0000
  0
CIRCLE
  8
20
 10
103.5600
 20
28.9000
 30
0.0000
 40
0.8500
  0
CIRCLE
  8
20
 10
93.4000
 20
28.9000
 30
0.0000
 40
0.8500
  0
CIRCLE
  8
20
 10
117.5200
 20
28.9000
 30
0.0000
 40
2.0000
  0
CIRCLE
  8
20
 10
122.6000
 20
28.9000
 30
0.0000
 40
0.8500
  0
CIRCLE
  8
20
 10
112.4400
 20
28.9000
 30
0.0000
 40
0.8500
  0
CIRCLE
  8
20
 10
136.5600
 20
28.9000
 30
0.0000
 40
2.0000
  0
CIRCLE
  8
20
 10
141.6400
 20
28.9000
 30
0.0000
 40
0.8500
  0
CIRCLE
  8
20
 10
131.4800
 20
28.9000
 30
0.0000
 40
0.8500
  0
CIRCLE
  8
20
 10
155.6000
 20
28.9000
 30
0.0000
 40
2.0000
  0
CIRCLE
  8
20
 10
160.6800
 20
28.9000
 30
0.0000
 40
0.8500
  0
CIRCLE
  8
20
 10
150.5200
 20
28.9000
 30
0.0000
 40
0.8500
  0
CIRCLE
  8
20
 10
174.6400
 20
28.9000
 30
0.0000
 40
2.0000
  0
CIRCLE
  8
20
 10
179.7200
 20
28.9000
 30
0.0000
 40
0.8500
  0
CIRCLE
  8
20
 10
169.5600
 20
28.9000
 30
0.0000
 40
0.8500
  0
CIRCLE
  8
20
 10
193.6800
 20
28.9000
 30
0.0000
 40
2.0000
  0
CIRCLE
  8
20
 10
198.7600
 20
28.9000
 30
0.0000
 40
0.8500
  0
CIRCLE
  8
20
 10
188.6000
 20
28.9000
 30
0.0000
 40
0.8500
  0
CIRCLE
  8
20
 10
212.7200
 20
28.9000
 30
0.0000
 40
2.0000
  0
CIRCLE
  8
20
 10
217.8000
 20
28.9000
 30
0.0000
 40
0.8500
  0
CIRCLE
  8
20
 10
207.6400
 20
28.9000
 30
0.0000
 40
0.8500
  0
CIRCLE
  8
20
 10
231.7600
 20
28.9000
 30
0.0000
 40
2.0000
  0
CIRCLE
  8
20
 10
236.8400
 20
28.9000
 30
0.0000
 40
0.8500
  0
CIRCLE
  8
20
 10
226.6800
 20
28.9000
 30
0.0000
 40
0.8500
  0
CIRCLE
  8
20
 10
260.3200
 20
28.9000
 30
0.0000
 40
2.0000
  0
CIRCLE
  8
20
 10
260.3200
 20
23.8200
 30
0.0000
 40
0.8500
  0
CIRCLE
  8
20
 10
260.3200
 20
33.9800
 30
0.0000
 40
0.8500
  0
CIRCLE
  8
20
 10
255.5700
 20
28.9000
 30
0.0000
 40
2.0000
  0
CIRCLE
  8
20
 10
255.5700
 20
33.9800
 30
0.0000
 40
0.8500
  0
CIRCLE
  8
20
 10
255.5700
 20
23.8200
 30
0.0000
 40
0.8500
  0
CIRCLE
  8
20
 10
279.3600
 20
28.9000
 30
0.0000
 40
2.0000
  0
CIRCLE
  8
20
 10
284.4400
 20
28.9000
 30
0.0000
 40
0.8500
  0
CIRCLE
  8
20
 10
274.2800
 20
28.9000
 30
0.0000
 40
0.8500
  0
CIRCLE
  8
20
 10
298.4000
 20
28.9000
 30
0.0000
 40
2.0000
  0
CIRCLE
  8
20
 10
303.4800
 20
28.9000
 30
0.0000
 40
0.8500
  0
CIRCLE
  8
20
 10
293.3200
 20
28.9000
 30
0.0000
 40
0.8500
  0
CIRCLE
  8
20
 10
353.8500
 20
28.9000
 30
0.0000
 40
2.0000
  0
CIRCLE
  8
20
 10
353.8500
 20
23.8200
 30
0.0000
 40
0.8500
  0
CIRCLE
  8
20
 10
353.8500
 20
33.9800
 30
0.0000
 40
0.8500
  0
CIRCLE
  8
20
 10
349.1000
 20
28.9000
 30
0.0000
 40
2.0000
  0
CIRCLE
  8
20
 10
349.1000
 20
33.9800
 30
0.0000
 40
0.8500
  0
CIRCLE
  8
20
 10
349.1000
 20
23.8200
 30
0.0000
 40
0.8500
  0
CIRCLE
  8
20
 10
141.3800
 20
9.8500
 30
0.0000
 40
2.0000
  0
CIRCLE
  8
20
 10
146.4600
 20
9.8500
 30
0.0000
 40
0.8500
  0
CIRCLE
  8
20
 10
136.3000
 20
9.8500
 30
0.0000
 40
0.8500
  0
CIRCLE
  8
20
 10
65.1800
 20
9.8500
 30
0.0000
 40
2.0000
  0
CIRCLE
  8
20
 10
70.2600
 20
9.8500
 30
0.0000
 40
0.8500
  0
CIRCLE
  8
20
 10
60.1000
 20
9.8500
 30
0.0000
 40
0.8500
  0
CIRCLE
  8
20
 10
217.5800
 20
9.8500
 30
0.0000
 40
2.0000
  0
CIRCLE
  8
20
 10
222.6600
 20
9.8500
 30
0.0000
 40
0.8500
  0
CIRCLE
  8
20
 10
212.5000
 20
9.8500
 30
0.0000
 40
0.8500
  0
CIRCLE
  8
20
 10
276.9800
 20
55.0000
 30
0.0000
 40
1.5000
  0
CIRCLE
  8
20
 10
276.9800
 20
39.7100
 30
0.0000
 40
2.0000
  0
CIRCLE
  8
20
 10
300.7800
 20
54.9925
 30
0.0000
 40
1.5000
  0
CIRCLE
  8
20
 10
300.7800
 20
39.7025
 30
0.0000
 40
2.0000
  0
CIRCLE
  8
20
 10
84.2300
 20
2.8000
 30
0.0000
 40
1.5000
  0
CIRCLE
  8
20
 10
84.2300
 20
18.0900
 30
0.0000
 40
2.0000
  0
CIRCLE
  8
20
 10
198.5300
 20
2.8000
 30
0.0000
 40
1.5000
  0
CIRCLE
  8
20
 10
198.5300
 20
18.0900
 30
0.0000
 40
2.0000
  0
CIRCLE
  8
20
 10
78.8800
 20
2.8000
 30
0.0000
 40
1.5000
  0
CIRCLE
  8
20
 10
78.8800
 20
18.0900
 30
0.0000
 40
2.0000
  0
CIRCLE
  8
20
 10
203.8800
 20
2.8000
 30
0.0000
 40
1.5000
  0
CIRCLE
  8
20
 10
203.8800
 20
18.0900
 30
0.0000
 40
2.0000
  0
ENDSEC
  0
EOF
